%TF.GenerationSoftware,KiCad,Pcbnew,9.0.7*%
%TF.CreationDate,2026-04-21T14:31:01+02:00*%
%TF.ProjectId,openbms,6f70656e-626d-4732-9e6b-696361645f70,Rev A*%
%TF.SameCoordinates,Original*%
%TF.FileFunction,Legend,Top*%
%TF.FilePolarity,Positive*%
%FSLAX46Y46*%
G04 Gerber Fmt 4.6, Leading zero omitted, Abs format (unit mm)*
G04 Created by KiCad (PCBNEW 9.0.7) date 2026-04-21 14:31:01*
%MOMM*%
%LPD*%
G01*
G04 APERTURE LIST*
%ADD10C,0.120000*%
%ADD11C,0.200000*%
%ADD12C,0.152400*%
%ADD13C,0.000000*%
%ADD14C,0.100000*%
G04 APERTURE END LIST*
D10*
%TO.C,D5*%
X96099500Y-35750500D02*
X96099500Y-38035500D01*
X97569500Y-35750500D02*
X96099500Y-35750500D01*
X97569500Y-38035500D02*
X97569500Y-35750500D01*
%TO.C,J7*%
X120224500Y-48575500D02*
X120224500Y-49995500D01*
X120224500Y-49995500D02*
X124724500Y-49995500D01*
X120224500Y-67275500D02*
X124724500Y-67275500D01*
X120224500Y-68695500D02*
X120224500Y-67275500D01*
X120534500Y-65835500D02*
X121134500Y-66135500D01*
X120534500Y-66435500D02*
X120534500Y-65835500D01*
X121134500Y-66135500D02*
X120534500Y-66435500D01*
X124724500Y-49995500D02*
X124724500Y-58635500D01*
X124724500Y-67275500D02*
X124724500Y-58635500D01*
X131944500Y-48575500D02*
X120224500Y-48575500D01*
X131944500Y-58635500D02*
X131944500Y-48575500D01*
X131944500Y-58635500D02*
X131944500Y-68695500D01*
X131944500Y-68695500D02*
X120224500Y-68695500D01*
X125834500Y-51385500D02*
X131334500Y-51385500D01*
X131334500Y-50885500D01*
X125834500Y-50885500D01*
X125834500Y-51385500D01*
X125834500Y-53885500D02*
X131334500Y-53885500D01*
X131334500Y-53385500D01*
X125834500Y-53385500D01*
X125834500Y-53885500D01*
X125834500Y-56385500D02*
X131334500Y-56385500D01*
X131334500Y-55885500D01*
X125834500Y-55885500D01*
X125834500Y-56385500D01*
X125834500Y-58885500D02*
X131334500Y-58885500D01*
X131334500Y-58385500D01*
X125834500Y-58385500D01*
X125834500Y-58885500D01*
X125834500Y-61385500D02*
X131334500Y-61385500D01*
X131334500Y-60885500D01*
X125834500Y-60885500D01*
X125834500Y-61385500D01*
X125834500Y-63885500D02*
X131334500Y-63885500D01*
X131334500Y-63385500D01*
X125834500Y-63385500D01*
X125834500Y-63885500D01*
X125834500Y-66385500D02*
X131334500Y-66385500D01*
X131334500Y-65885500D01*
X125834500Y-65885500D01*
X125834500Y-66385500D01*
%TO.C,Q5*%
X109175000Y-62970000D02*
X109175000Y-61500000D01*
X109825000Y-62970000D02*
X109175000Y-62970000D01*
X110195000Y-61500000D02*
X110475000Y-61500000D01*
X111495000Y-61585748D02*
X111495000Y-62970000D01*
X111495000Y-62970000D02*
X110845000Y-62970000D01*
X111695000Y-61435000D02*
X111505000Y-61295000D01*
X111695000Y-61155000D01*
X111695000Y-61435000D01*
G36*
X111695000Y-61435000D02*
G01*
X111505000Y-61295000D01*
X111695000Y-61155000D01*
X111695000Y-61435000D01*
G37*
%TO.C,C36*%
X95624500Y-57746752D02*
X95624500Y-56324248D01*
X97444500Y-57746752D02*
X97444500Y-56324248D01*
D11*
%TO.C,U11*%
X82455000Y-56735000D02*
X82947000Y-56735000D01*
X83297000Y-56835000D02*
X83773000Y-56835000D01*
X83297000Y-58435000D02*
X83297000Y-56835000D01*
X83773000Y-56835000D02*
X83773000Y-58435000D01*
X83773000Y-58435000D02*
X83297000Y-58435000D01*
D10*
%TO.C,R97*%
X107955000Y-63388641D02*
X107955000Y-63081359D01*
X108715000Y-63388641D02*
X108715000Y-63081359D01*
%TO.C,R49*%
X76755000Y-51138641D02*
X76755000Y-50831359D01*
X77515000Y-51138641D02*
X77515000Y-50831359D01*
%TO.C,C33*%
X96024500Y-61394920D02*
X96024500Y-61676080D01*
X97044500Y-61394920D02*
X97044500Y-61676080D01*
%TO.C,R92*%
X109955000Y-67388641D02*
X109955000Y-67081359D01*
X110715000Y-67388641D02*
X110715000Y-67081359D01*
%TO.C,C26*%
X108074500Y-43943336D02*
X108074500Y-43727664D01*
X108794500Y-43943336D02*
X108794500Y-43727664D01*
%TO.C,R74*%
X92274564Y-63325000D02*
X87920436Y-63325000D01*
X92274564Y-66745000D02*
X87920436Y-66745000D01*
%TO.C,R73*%
X81005000Y-59681359D02*
X81005000Y-59988641D01*
X81765000Y-59681359D02*
X81765000Y-59988641D01*
%TO.C,R69*%
X79805000Y-59988641D02*
X79805000Y-59681359D01*
X80565000Y-59988641D02*
X80565000Y-59681359D01*
%TO.C,R68*%
X87957936Y-58925000D02*
X92312064Y-58925000D01*
X87957936Y-62345000D02*
X92312064Y-62345000D01*
%TO.C,J5*%
X64025000Y-70575000D02*
X78335000Y-70575000D01*
X64025000Y-86295000D02*
X64025000Y-70575000D01*
X64025000Y-86295000D02*
X78335000Y-86295000D01*
X82445000Y-79725000D02*
X82445000Y-75985000D01*
X78335000Y-70575000D02*
G75*
G02*
X82265413Y-73483352I0J-4110000D01*
G01*
X81857958Y-84301806D02*
G75*
G02*
X78335000Y-86295000I-3522957J2116805D01*
G01*
%TO.C,C42*%
X114124500Y-57646752D02*
X114124500Y-56224248D01*
X115944500Y-57646752D02*
X115944500Y-56224248D01*
%TO.C,C24*%
X110274500Y-43943336D02*
X110274500Y-43727664D01*
X110994500Y-43943336D02*
X110994500Y-43727664D01*
%TO.C,R101*%
X105381359Y-62455000D02*
X105688641Y-62455000D01*
X105381359Y-63215000D02*
X105688641Y-63215000D01*
%TO.C,R75*%
X76755000Y-61581359D02*
X76755000Y-61888641D01*
X77515000Y-61581359D02*
X77515000Y-61888641D01*
%TO.C,R38*%
X114054500Y-48589141D02*
X114054500Y-48281859D01*
X114814500Y-48589141D02*
X114814500Y-48281859D01*
%TO.C,R60*%
X78055000Y-55238641D02*
X78055000Y-54931359D01*
X78815000Y-55238641D02*
X78815000Y-54931359D01*
%TO.C,J1*%
X100224500Y-39295500D02*
X100224500Y-40895500D01*
X100224500Y-40895500D02*
X102024500Y-40895500D01*
X101494500Y-36425500D02*
X106174500Y-36425500D01*
X102024500Y-40895500D02*
X102024500Y-41835500D01*
X107444500Y-39295500D02*
X107444500Y-40895500D01*
X107444500Y-40895500D02*
X105644500Y-40895500D01*
%TO.C,R27*%
X78060000Y-46698641D02*
X78060000Y-46391359D01*
X78820000Y-46698641D02*
X78820000Y-46391359D01*
%TO.C,R47*%
X109680859Y-38855500D02*
X109988141Y-38855500D01*
X109680859Y-39615500D02*
X109988141Y-39615500D01*
%TO.C,R15*%
X78160000Y-41998641D02*
X78160000Y-41691359D01*
X78920000Y-41998641D02*
X78920000Y-41691359D01*
%TO.C,C21*%
X120874500Y-38827664D02*
X120874500Y-39043336D01*
X121594500Y-38827664D02*
X121594500Y-39043336D01*
%TO.C,R10*%
X87957936Y-36925000D02*
X92312064Y-36925000D01*
X87957936Y-40345000D02*
X92312064Y-40345000D01*
%TO.C,R50*%
X81155000Y-50831359D02*
X81155000Y-51138641D01*
X81915000Y-50831359D02*
X81915000Y-51138641D01*
%TO.C,R16*%
X79960000Y-41998641D02*
X79960000Y-41691359D01*
X80720000Y-41998641D02*
X80720000Y-41691359D01*
D12*
%TO.C,U19*%
X99258600Y-65965500D02*
X102611400Y-65965500D01*
X102611400Y-60504500D02*
X99258600Y-60504500D01*
D13*
G36*
X97772700Y-65675501D02*
G01*
X97518700Y-65675501D01*
X97518700Y-65294501D01*
X97772700Y-65294501D01*
X97772700Y-65675501D01*
G37*
G36*
X104351300Y-61175499D02*
G01*
X104097300Y-61175499D01*
X104097300Y-60794499D01*
X104351300Y-60794499D01*
X104351300Y-61175499D01*
G37*
D10*
%TO.C,J2*%
X125789500Y-39989500D02*
X125789500Y-39354500D01*
X126424500Y-39989500D02*
X125789500Y-39989500D01*
%TO.C,C38*%
X100824500Y-57746752D02*
X100824500Y-56324248D01*
X102644500Y-57746752D02*
X102644500Y-56324248D01*
%TO.C,R80*%
X96454500Y-40089141D02*
X96454500Y-39781859D01*
X97214500Y-40089141D02*
X97214500Y-39781859D01*
D11*
%TO.C,U13*%
X78155000Y-61335000D02*
X78647000Y-61335000D01*
X78997000Y-61435000D02*
X79473000Y-61435000D01*
X78997000Y-63035000D02*
X78997000Y-61435000D01*
X79473000Y-61435000D02*
X79473000Y-63035000D01*
X79473000Y-63035000D02*
X78997000Y-63035000D01*
D10*
%TO.C,C43*%
X116374500Y-58247664D02*
X116374500Y-58463336D01*
X117094500Y-58247664D02*
X117094500Y-58463336D01*
%TO.C,J3*%
X64025000Y-36575000D02*
X75745000Y-36575000D01*
X64025000Y-47885000D02*
X64025000Y-36575000D01*
X64025000Y-47885000D02*
X64025000Y-59195000D01*
X64025000Y-59195000D02*
X75745000Y-59195000D01*
X71245000Y-37995000D02*
X71245000Y-47885000D01*
X71245000Y-57775000D02*
X71245000Y-47885000D01*
X74835000Y-39135000D02*
X75435000Y-38835000D01*
X75435000Y-38835000D02*
X75435000Y-39435000D01*
X75435000Y-39435000D02*
X74835000Y-39135000D01*
X75745000Y-36575000D02*
X75745000Y-37995000D01*
X75745000Y-37995000D02*
X71245000Y-37995000D01*
X75745000Y-57775000D02*
X71245000Y-57775000D01*
X75745000Y-59195000D02*
X75745000Y-57775000D01*
X70135000Y-38885000D02*
X64635000Y-38885000D01*
X64635000Y-39385000D01*
X70135000Y-39385000D01*
X70135000Y-38885000D01*
X70135000Y-41385000D02*
X64635000Y-41385000D01*
X64635000Y-41885000D01*
X70135000Y-41885000D01*
X70135000Y-41385000D01*
X70135000Y-43885000D02*
X64635000Y-43885000D01*
X64635000Y-44385000D01*
X70135000Y-44385000D01*
X70135000Y-43885000D01*
X70135000Y-46385000D02*
X64635000Y-46385000D01*
X64635000Y-46885000D01*
X70135000Y-46885000D01*
X70135000Y-46385000D01*
X70135000Y-48885000D02*
X64635000Y-48885000D01*
X64635000Y-49385000D01*
X70135000Y-49385000D01*
X70135000Y-48885000D01*
X70135000Y-51385000D02*
X64635000Y-51385000D01*
X64635000Y-51885000D01*
X70135000Y-51885000D01*
X70135000Y-51385000D01*
X70135000Y-53885000D02*
X64635000Y-53885000D01*
X64635000Y-54385000D01*
X70135000Y-54385000D01*
X70135000Y-53885000D01*
X70135000Y-56385000D02*
X64635000Y-56385000D01*
X64635000Y-56885000D01*
X70135000Y-56885000D01*
X70135000Y-56385000D01*
D11*
%TO.C,U2*%
X78360000Y-36845000D02*
X78852000Y-36845000D01*
X79202000Y-36945000D02*
X79678000Y-36945000D01*
X79202000Y-38545000D02*
X79202000Y-36945000D01*
X79678000Y-36945000D02*
X79678000Y-38545000D01*
X79678000Y-38545000D02*
X79202000Y-38545000D01*
D10*
%TO.C,R28*%
X79960000Y-46698641D02*
X79960000Y-46391359D01*
X80720000Y-46698641D02*
X80720000Y-46391359D01*
%TO.C,C39*%
X103074500Y-56227664D02*
X103074500Y-56443336D01*
X103794500Y-56227664D02*
X103794500Y-56443336D01*
%TO.C,R108*%
X117354500Y-58489141D02*
X117354500Y-58181859D01*
X118114500Y-58489141D02*
X118114500Y-58181859D01*
D11*
%TO.C,R103*%
X89935000Y-84735000D02*
X89935000Y-79735000D01*
D10*
%TO.C,R72*%
X83055000Y-59988641D02*
X83055000Y-59681359D01*
X83815000Y-59988641D02*
X83815000Y-59681359D01*
%TO.C,R67*%
X87957936Y-54525000D02*
X92312064Y-54525000D01*
X87957936Y-57945000D02*
X92312064Y-57945000D01*
%TO.C,R11*%
X87957936Y-41325000D02*
X92312064Y-41325000D01*
X87957936Y-44745000D02*
X92312064Y-44745000D01*
%TO.C,C14*%
X100974500Y-44727664D02*
X100974500Y-44943336D01*
X101694500Y-44727664D02*
X101694500Y-44943336D01*
%TO.C,C37*%
X98224500Y-57746752D02*
X98224500Y-56324248D01*
X100044500Y-57746752D02*
X100044500Y-56324248D01*
D11*
%TO.C,U4*%
X78260000Y-43545000D02*
X78752000Y-43545000D01*
X79102000Y-43645000D02*
X79578000Y-43645000D01*
X79102000Y-45245000D02*
X79102000Y-43645000D01*
X79578000Y-43645000D02*
X79578000Y-45245000D01*
X79578000Y-45245000D02*
X79102000Y-45245000D01*
D10*
%TO.C,R36*%
X78060000Y-48698641D02*
X78060000Y-48391359D01*
X78820000Y-48698641D02*
X78820000Y-48391359D01*
%TO.C,R37*%
X79960000Y-48698641D02*
X79960000Y-48391359D01*
X80720000Y-48698641D02*
X80720000Y-48391359D01*
%TO.C,R25*%
X81260000Y-46708641D02*
X81260000Y-46401359D01*
X82020000Y-46708641D02*
X82020000Y-46401359D01*
%TO.C,R56*%
X78055000Y-53238641D02*
X78055000Y-52931359D01*
X78815000Y-53238641D02*
X78815000Y-52931359D01*
%TO.C,R94*%
X109955000Y-65388641D02*
X109955000Y-65081359D01*
X110715000Y-65388641D02*
X110715000Y-65081359D01*
%TO.C,C40*%
X109324500Y-57646752D02*
X109324500Y-56224248D01*
X111144500Y-57646752D02*
X111144500Y-56224248D01*
%TO.C,R95*%
X107955000Y-65388641D02*
X107955000Y-65081359D01*
X108715000Y-65388641D02*
X108715000Y-65081359D01*
%TO.C,Q2*%
X107764000Y-71870000D02*
X106779000Y-71870000D01*
X107764000Y-76990000D02*
X106779000Y-76990000D01*
X111960000Y-71870000D02*
X109190000Y-71870000D01*
X111960000Y-76990000D02*
X109190000Y-76990000D01*
X111990000Y-73160000D02*
X111990000Y-75700000D01*
X106132250Y-71880000D02*
X105892250Y-71550000D01*
X106372250Y-71550000D01*
X106132250Y-71880000D01*
G36*
X106132250Y-71880000D02*
G01*
X105892250Y-71550000D01*
X106372250Y-71550000D01*
X106132250Y-71880000D01*
G37*
%TO.C,D4*%
X97799500Y-35750500D02*
X97799500Y-38035500D01*
X99269500Y-35750500D02*
X97799500Y-35750500D01*
X99269500Y-38035500D02*
X99269500Y-35750500D01*
%TO.C,C34*%
X105427164Y-60475000D02*
X105642836Y-60475000D01*
X105427164Y-61195000D02*
X105642836Y-61195000D01*
%TO.C,D2*%
X83305000Y-47935000D02*
X83305000Y-47655000D01*
X83390748Y-46635000D02*
X84775000Y-46635000D01*
X84775000Y-46635000D02*
X84775000Y-47285000D01*
X84775000Y-48305000D02*
X84775000Y-48955000D01*
X84775000Y-48955000D02*
X83305000Y-48955000D01*
X83100000Y-46625000D02*
X82960000Y-46435000D01*
X83240000Y-46435000D01*
X83100000Y-46625000D01*
G36*
X83100000Y-46625000D02*
G01*
X82960000Y-46435000D01*
X83240000Y-46435000D01*
X83100000Y-46625000D01*
G37*
%TO.C,D1*%
X83305000Y-41185000D02*
X83305000Y-40905000D01*
X83390748Y-39885000D02*
X84775000Y-39885000D01*
X84775000Y-39885000D02*
X84775000Y-40535000D01*
X84775000Y-41555000D02*
X84775000Y-42205000D01*
X84775000Y-42205000D02*
X83305000Y-42205000D01*
X83100000Y-39875000D02*
X82960000Y-39685000D01*
X83240000Y-39685000D01*
X83100000Y-39875000D01*
G36*
X83100000Y-39875000D02*
G01*
X82960000Y-39685000D01*
X83240000Y-39685000D01*
X83100000Y-39875000D01*
G37*
%TO.C,Q3*%
X107200000Y-67575000D02*
X107200000Y-67295000D01*
X107285748Y-66275000D02*
X108670000Y-66275000D01*
X108670000Y-66275000D02*
X108670000Y-66925000D01*
X108670000Y-67945000D02*
X108670000Y-68595000D01*
X108670000Y-68595000D02*
X107200000Y-68595000D01*
X106995000Y-66265000D02*
X106855000Y-66075000D01*
X107135000Y-66075000D01*
X106995000Y-66265000D01*
G36*
X106995000Y-66265000D02*
G01*
X106855000Y-66075000D01*
X107135000Y-66075000D01*
X106995000Y-66265000D01*
G37*
D11*
%TO.C,U8*%
X78289000Y-50085000D02*
X78781000Y-50085000D01*
X79131000Y-50185000D02*
X79607000Y-50185000D01*
X79131000Y-51785000D02*
X79131000Y-50185000D01*
X79607000Y-50185000D02*
X79607000Y-51785000D01*
X79607000Y-51785000D02*
X79131000Y-51785000D01*
D10*
%TO.C,C22*%
X118874500Y-49043336D02*
X118874500Y-48827664D01*
X119594500Y-49043336D02*
X119594500Y-48827664D01*
%TO.C,R9*%
X81260000Y-39998641D02*
X81260000Y-39691359D01*
X82020000Y-39998641D02*
X82020000Y-39691359D01*
%TO.C,R58*%
X76755000Y-53238641D02*
X76755000Y-52931359D01*
X77515000Y-53238641D02*
X77515000Y-52931359D01*
%TO.C,R99*%
X107955000Y-61388641D02*
X107955000Y-61081359D01*
X108715000Y-61388641D02*
X108715000Y-61081359D01*
%TO.C,U20*%
X104499500Y-55150500D02*
X105724500Y-55150500D01*
X105724500Y-58520500D02*
X104499500Y-58520500D01*
X106944500Y-55150500D02*
X108519500Y-55150500D01*
X108519500Y-58520500D02*
X106944500Y-58520500D01*
X104319500Y-55635500D02*
X103989500Y-55875500D01*
X103989500Y-55395500D01*
X104319500Y-55635500D01*
G36*
X104319500Y-55635500D02*
G01*
X103989500Y-55875500D01*
X103989500Y-55395500D01*
X104319500Y-55635500D01*
G37*
%TO.C,R79*%
X98154500Y-40089141D02*
X98154500Y-39781859D01*
X98914500Y-40089141D02*
X98914500Y-39781859D01*
%TO.C,R57*%
X79855000Y-53238641D02*
X79855000Y-52931359D01*
X80615000Y-53238641D02*
X80615000Y-52931359D01*
%TO.C,R61*%
X79855000Y-55238641D02*
X79855000Y-54931359D01*
X80615000Y-55238641D02*
X80615000Y-54931359D01*
%TO.C,Q1*%
X97080000Y-75670000D02*
X97080000Y-73130000D01*
X97110000Y-71840000D02*
X99880000Y-71840000D01*
X97110000Y-76960000D02*
X99880000Y-76960000D01*
X101306000Y-71840000D02*
X102291000Y-71840000D01*
X101306000Y-76960000D02*
X102291000Y-76960000D01*
X103177750Y-77280000D02*
X102697750Y-77280000D01*
X102937750Y-76950000D01*
X103177750Y-77280000D01*
G36*
X103177750Y-77280000D02*
G01*
X102697750Y-77280000D01*
X102937750Y-76950000D01*
X103177750Y-77280000D01*
G37*
%TO.C,R21*%
X76760000Y-44598641D02*
X76760000Y-44291359D01*
X77520000Y-44598641D02*
X77520000Y-44291359D01*
%TO.C,R14*%
X76860000Y-39998641D02*
X76860000Y-39691359D01*
X77620000Y-39998641D02*
X77620000Y-39691359D01*
%TO.C,R3*%
X76860000Y-37898641D02*
X76860000Y-37591359D01*
X77620000Y-37898641D02*
X77620000Y-37591359D01*
%TO.C,R41*%
X87957936Y-45725000D02*
X92312064Y-45725000D01*
X87957936Y-49145000D02*
X92312064Y-49145000D01*
%TO.C,R98*%
X111155000Y-64081359D02*
X111155000Y-64388641D01*
X111915000Y-64081359D02*
X111915000Y-64388641D01*
%TO.C,R12*%
X78160000Y-39998641D02*
X78160000Y-39691359D01*
X78920000Y-39998641D02*
X78920000Y-39691359D01*
%TO.C,J4*%
X64070000Y-61025000D02*
X75790000Y-61025000D01*
X64070000Y-64835000D02*
X64070000Y-61025000D01*
X64070000Y-64835000D02*
X64070000Y-68645000D01*
X64070000Y-68645000D02*
X75790000Y-68645000D01*
X71290000Y-62445000D02*
X71290000Y-64835000D01*
X71290000Y-67225000D02*
X71290000Y-64835000D01*
X74880000Y-63585000D02*
X75480000Y-63285000D01*
X75480000Y-63285000D02*
X75480000Y-63885000D01*
X75480000Y-63885000D02*
X74880000Y-63585000D01*
X75790000Y-61025000D02*
X75790000Y-62445000D01*
X75790000Y-62445000D02*
X71290000Y-62445000D01*
X75790000Y-67225000D02*
X71290000Y-67225000D01*
X75790000Y-68645000D02*
X75790000Y-67225000D01*
X70180000Y-63335000D02*
X64680000Y-63335000D01*
X64680000Y-63835000D01*
X70180000Y-63835000D01*
X70180000Y-63335000D01*
X70180000Y-65835000D02*
X64680000Y-65835000D01*
X64680000Y-66335000D01*
X70180000Y-66335000D01*
X70180000Y-65835000D01*
%TO.C,R66*%
X81005000Y-57888641D02*
X81005000Y-57581359D01*
X81765000Y-57888641D02*
X81765000Y-57581359D01*
%TO.C,R42*%
X87957936Y-50125000D02*
X92312064Y-50125000D01*
X87957936Y-53545000D02*
X92312064Y-53545000D01*
%TO.C,R29*%
X76760000Y-46688641D02*
X76760000Y-46381359D01*
X77520000Y-46688641D02*
X77520000Y-46381359D01*
%TO.C,U15*%
X112787000Y-38975500D02*
X113262000Y-38975500D01*
X112787000Y-39450500D02*
X112787000Y-38975500D01*
X112787000Y-46195500D02*
X112787000Y-45720500D01*
X113262000Y-46195500D02*
X112787000Y-46195500D01*
X119532000Y-38975500D02*
X120007000Y-38975500D01*
X120007000Y-38975500D02*
X120007000Y-39450500D01*
X120007000Y-45720500D02*
X120007000Y-46195500D01*
X120007000Y-46195500D02*
X119532000Y-46195500D01*
X112257000Y-39835500D02*
X111927000Y-40075500D01*
X111927000Y-39595500D01*
X112257000Y-39835500D01*
G36*
X112257000Y-39835500D02*
G01*
X111927000Y-40075500D01*
X111927000Y-39595500D01*
X112257000Y-39835500D01*
G37*
%TO.C,D3*%
X83200000Y-54375000D02*
X83200000Y-54095000D01*
X83285748Y-53075000D02*
X84670000Y-53075000D01*
X84670000Y-53075000D02*
X84670000Y-53725000D01*
X84670000Y-54745000D02*
X84670000Y-55395000D01*
X84670000Y-55395000D02*
X83200000Y-55395000D01*
X82995000Y-53065000D02*
X82855000Y-52875000D01*
X83135000Y-52875000D01*
X82995000Y-53065000D01*
G36*
X82995000Y-53065000D02*
G01*
X82855000Y-52875000D01*
X83135000Y-52875000D01*
X82995000Y-53065000D01*
G37*
%TO.C,F1*%
X85332936Y-74125000D02*
X86537064Y-74125000D01*
X85332936Y-75945000D02*
X86537064Y-75945000D01*
%TO.C,R22*%
X81260000Y-44291359D02*
X81260000Y-44598641D01*
X82020000Y-44291359D02*
X82020000Y-44598641D01*
%TO.C,C16*%
X100975000Y-49142836D02*
X100975000Y-48927164D01*
X101695000Y-49142836D02*
X101695000Y-48927164D01*
%TO.C,R4*%
X81260000Y-37591359D02*
X81260000Y-37898641D01*
X82020000Y-37591359D02*
X82020000Y-37898641D01*
%TO.C,C25*%
X109174500Y-43727664D02*
X109174500Y-43943336D01*
X109894500Y-43727664D02*
X109894500Y-43943336D01*
%TO.C,R100*%
X105381359Y-59455000D02*
X105688641Y-59455000D01*
X105381359Y-60215000D02*
X105688641Y-60215000D01*
%TO.C,R46*%
X109680859Y-41055500D02*
X109988141Y-41055500D01*
X109680859Y-41815500D02*
X109988141Y-41815500D01*
%TO.C,R44*%
X109680859Y-39955500D02*
X109988141Y-39955500D01*
X109680859Y-40715500D02*
X109988141Y-40715500D01*
%TO.C,C23*%
X111426664Y-37375500D02*
X111642336Y-37375500D01*
X111426664Y-38095500D02*
X111642336Y-38095500D01*
%TO.C,J6*%
X113925000Y-76035000D02*
X113925000Y-79775000D01*
X123645000Y-70625000D02*
X118035000Y-70625000D01*
X123645000Y-70625000D02*
X123645000Y-71475000D01*
X123645000Y-85495000D02*
X123645000Y-86345000D01*
X123645000Y-86345000D02*
X118035000Y-86345000D01*
X131345000Y-71475000D02*
X123645000Y-71475000D01*
X131345000Y-71475000D02*
X131345000Y-85495000D01*
X131345000Y-85495000D02*
X123645000Y-85495000D01*
X114076282Y-73495100D02*
G75*
G02*
X118035000Y-70625000I3918716J-1239898D01*
G01*
X118035000Y-86345000D02*
G75*
G02*
X114512042Y-84351806I0J4110000D01*
G01*
D14*
%TO.C,Y1*%
X102135000Y-48935000D02*
X102135000Y-43935000D01*
X105335000Y-48935000D02*
X105335000Y-43935000D01*
D10*
%TO.C,C41*%
X111724500Y-57646752D02*
X111724500Y-56224248D01*
X113544500Y-57646752D02*
X113544500Y-56224248D01*
%TO.C,R40*%
X115354500Y-48589141D02*
X115354500Y-48281859D01*
X116114500Y-48589141D02*
X116114500Y-48281859D01*
%TO.C,D6*%
X92485000Y-71725000D02*
X92485000Y-77235000D01*
X95785000Y-71725000D02*
X92485000Y-71725000D01*
X95785000Y-71725000D02*
X95785000Y-77235000D01*
D11*
%TO.C,U10*%
X78105000Y-56735000D02*
X78597000Y-56735000D01*
X78947000Y-56835000D02*
X79423000Y-56835000D01*
X78947000Y-58435000D02*
X78947000Y-56835000D01*
X79423000Y-56835000D02*
X79423000Y-58435000D01*
X79423000Y-58435000D02*
X78947000Y-58435000D01*
D10*
%TO.C,R13*%
X79960000Y-39998641D02*
X79960000Y-39691359D01*
X80720000Y-39998641D02*
X80720000Y-39691359D01*
%TO.C,R102*%
X105381359Y-61455000D02*
X105688641Y-61455000D01*
X105381359Y-62215000D02*
X105688641Y-62215000D01*
%TO.C,R54*%
X81155000Y-53238641D02*
X81155000Y-52931359D01*
X81915000Y-53238641D02*
X81915000Y-52931359D01*
%TD*%
M02*
