M48
; DRILL file {KiCad 9.0.7} date 2026-04-21T14:31:15+0200
; FORMAT={-:-/ absolute / metric / decimal}
; #@! TF.CreationDate,2026-04-21T14:31:15+02:00
; #@! TF.GenerationSoftware,Kicad,Pcbnew,9.0.7
; #@! TF.FileFunction,Plated,1,4,PTH
FMAT,2
METRIC
; #@! TA.AperFunction,Plated,PTH,ViaDrill
T1C0.300
; #@! TA.AperFunction,Plated,PTH,ViaDrill
T2C0.400
; #@! TA.AperFunction,Plated,PTH,ComponentDrill
T3C0.600
; #@! TA.AperFunction,Plated,PTH,ComponentDrill
T4C0.950
; #@! TA.AperFunction,Plated,PTH,ComponentDrill
T5C1.000
; #@! TA.AperFunction,Plated,PTH,ComponentDrill
T6C2.700
%
G90
G05
T1
X75.234Y-42.835
X75.935Y-44.935
X76.135Y-50.435
X76.235Y-61.235
X76.334Y-38.035
X77.435Y-55.585
X77.54Y-49.045
X77.64Y-42.345
X79.335Y-53.585
X79.335Y-54.585
X79.345Y-60.345
X79.434Y-36.535
X79.435Y-47.035
X79.435Y-48.035
X79.44Y-40.345
X79.44Y-41.345
X81.235Y-55.585
X81.24Y-42.345
X81.34Y-49.045
X81.635Y-65.035
X82.234Y-58.735
X82.234Y-59.535
X82.335Y-51.535
X82.435Y-60.335
X82.535Y-38.235
X82.535Y-44.935
X83.774Y-56.327
X83.834Y-38.636
X84.135Y-55.535
X84.337Y-58.999
X84.434Y-51.535
X84.455Y-44.17
X84.535Y-45.335
X84.635Y-61.335
X84.834Y-37.035
X85.535Y-53.186
X85.535Y-57.935
X85.584Y-59.334
X85.635Y-49.335
X85.835Y-50.599
X85.935Y-40.435
X86.035Y-41.835
X88.326Y-49.844
X88.335Y-58.935
X88.535Y-46.335
X88.535Y-55.135
X88.935Y-41.835
X89.084Y-57.434
X89.125Y-48.945
X89.335Y-39.835
X89.335Y-78.635
X89.547Y-81.953
X89.684Y-55.534
X89.725Y-46.845
X89.734Y-52.535
X90.035Y-38.135
X90.135Y-78.635
X90.346Y-81.932
X90.734Y-55.535
X90.735Y-46.136
X90.735Y-52.535
X91.034Y-43.535
X91.525Y-50.545
X91.684Y-59.134
X91.684Y-60.334
X91.734Y-58.235
X91.735Y-56.535
X91.735Y-61.335
X91.735Y-65.035
X91.835Y-51.535
X91.884Y-38.886
X91.935Y-41.635
X91.935Y-42.735
X91.935Y-47.635
X95.635Y-38.035
X95.735Y-42.964
X95.735Y-43.935
X95.735Y-44.935
X95.735Y-45.935
X95.735Y-46.935
X95.735Y-48.935
X97.334Y-67.335
X97.334Y-68.335
X97.334Y-69.236
X97.335Y-63.836
X97.335Y-64.636
X99.534Y-38.335
X99.634Y-36.935
X100.335Y-49.435
X101.134Y-61.535
X101.134Y-62.435
X101.61Y-63.411
X101.634Y-64.236
X102.534Y-46.136
X102.934Y-54.335
X103.05Y-51.764
X104.034Y-59.136
X104.934Y-63.935
X104.935Y-46.635
X105.684Y-44.486
X105.735Y-66.835
X105.834Y-54.235
X105.835Y-68.535
X105.935Y-63.835
X105.95Y-51.764
X106.135Y-45.835
X106.135Y-46.835
X106.135Y-77.435
X106.135Y-43.736
X106.334Y-54.935
X106.794Y-40.995
X106.935Y-69.736
X106.955Y-52.715
X107.135Y-59.835
X107.135Y-60.835
X107.135Y-61.835
X107.935Y-52.735
X108.335Y-59.835
X108.434Y-40.335
X108.434Y-41.435
X108.434Y-42.535
X109.059Y-37.26
X109.134Y-50.935
X109.334Y-38.335
X109.634Y-42.535
X109.735Y-60.035
X110.134Y-37.736
X110.434Y-50.935
X110.569Y-42.574
X111.135Y-66.835
X111.228Y-41.37
X111.234Y-50.935
X111.259Y-42.169
X111.436Y-43.749
X111.439Y-42.949
X111.535Y-65.835
X112.334Y-38.535
X113.634Y-48.935
X113.806Y-37.859
X114.334Y-50.935
X114.434Y-63.835
X114.634Y-42.636
X115.134Y-47.136
X115.359Y-60.96
X115.547Y-36.568
X115.734Y-49.835
X115.834Y-50.935
X116.334Y-42.636
X116.334Y-62.735
X116.334Y-67.635
X116.734Y-57.136
X116.834Y-50.935
X117.724Y-53.325
X117.834Y-55.335
X117.934Y-42.636
X118.034Y-40.835
X118.034Y-44.636
X118.234Y-63.335
X118.334Y-68.535
X118.534Y-50.935
X118.61Y-36.011
X118.747Y-47.536
X119.334Y-50.935
X119.534Y-36.035
X119.834Y-46.535
X120.134Y-37.535
X120.134Y-48.435
X120.134Y-49.435
X120.325Y-53.235
X120.634Y-54.136
X120.934Y-66.035
X120.934Y-67.435
X121.084Y-44.185
X121.134Y-40.235
X121.534Y-43.435
X121.734Y-36.335
X121.934Y-44.235
X121.934Y-45.035
X122.034Y-38.435
X122.034Y-39.435
X122.634Y-46.67
X123.234Y-47.935
X123.618Y-48.66
X124.134Y-39.535
X124.334Y-50.445
X124.934Y-51.835
X126.31Y-45.66
X126.434Y-71.535
X126.485Y-72.666
X126.734Y-40.435
X126.734Y-54.335
X126.834Y-56.735
X127.134Y-48.136
X127.134Y-50.435
X127.834Y-65.935
X127.934Y-58.435
X127.934Y-60.835
X127.934Y-63.335
X128.085Y-72.685
X128.584Y-51.485
X129.184Y-49.535
X129.184Y-52.136
X129.435Y-80.035
X130.434Y-41.136
X130.534Y-52.136
X130.734Y-83.236
X130.734Y-84.135
X130.734Y-85.035
X130.834Y-50.535
X131.1Y-46.67
X131.13Y-47.941
X131.13Y-44.136
X131.13Y-45.435
X131.13Y-54.735
X131.13Y-57.435
T2
X76.735Y-80.035
X76.735Y-81.035
X76.735Y-82.235
X76.735Y-83.435
X76.735Y-84.635
X76.735Y-85.635
X77.735Y-80.035
X77.735Y-85.635
X78.735Y-85.635
X79.735Y-85.635
X80.735Y-85.635
X81.735Y-85.635
X82.735Y-84.635
X82.735Y-85.635
X83.735Y-80.035
X83.735Y-81.035
X83.735Y-82.235
X83.735Y-83.435
X83.735Y-84.635
X83.735Y-85.635
X87.135Y-72.835
X88.135Y-71.835
X88.135Y-72.835
X89.135Y-70.835
X89.135Y-71.835
X89.135Y-72.835
X89.135Y-75.635
X90.135Y-70.835
X90.135Y-71.835
X90.135Y-75.635
X91.135Y-70.835
X91.135Y-75.635
X92.135Y-70.835
X93.135Y-70.835
X93.135Y-86.035
X94.135Y-70.835
X94.135Y-86.035
X94.934Y-58.535
X95.135Y-70.835
X95.135Y-86.035
X96.135Y-70.835
X96.135Y-71.835
X96.135Y-72.835
X96.135Y-73.835
X96.135Y-80.035
X96.135Y-82.035
X96.135Y-84.035
X96.135Y-86.035
X96.534Y-56.636
X97.135Y-70.835
X97.135Y-77.835
X97.135Y-80.035
X97.135Y-82.035
X97.135Y-84.035
X97.135Y-86.035
X98.135Y-70.835
X98.135Y-77.835
X98.135Y-80.035
X98.135Y-82.035
X98.135Y-84.035
X98.135Y-86.035
X99.134Y-56.735
X99.135Y-70.835
X99.135Y-77.835
X99.135Y-80.035
X99.135Y-82.035
X99.135Y-84.035
X99.135Y-86.035
X100.135Y-70.835
X100.135Y-77.835
X100.135Y-80.035
X100.135Y-82.035
X100.135Y-84.035
X100.135Y-86.035
X101.135Y-70.835
X101.135Y-77.835
X101.135Y-80.035
X101.135Y-82.035
X101.135Y-84.035
X101.135Y-86.035
X101.734Y-56.735
X102.135Y-80.035
X102.135Y-82.035
X102.135Y-84.035
X102.135Y-86.035
X103.135Y-77.835
X103.135Y-80.035
X103.135Y-82.035
X103.135Y-84.035
X103.135Y-86.035
X104.135Y-80.035
X104.135Y-82.035
X104.135Y-84.035
X104.135Y-86.035
X104.535Y-70.835
X104.535Y-71.835
X104.535Y-72.835
X104.535Y-73.835
X104.535Y-74.835
X104.535Y-75.835
X104.535Y-76.835
X104.535Y-77.835
X105.135Y-80.035
X105.135Y-82.035
X105.135Y-84.035
X105.135Y-86.035
X105.935Y-70.835
X106.135Y-80.035
X106.135Y-82.035
X106.135Y-84.035
X106.135Y-86.035
X107.135Y-80.035
X107.135Y-82.035
X107.135Y-84.035
X107.135Y-86.035
X108.135Y-70.835
X108.135Y-78.035
X108.135Y-80.035
X108.135Y-82.035
X108.135Y-84.035
X108.135Y-86.035
X109.135Y-70.835
X109.135Y-78.035
X109.135Y-80.035
X109.135Y-82.035
X109.135Y-84.035
X109.135Y-86.035
X110.135Y-70.835
X110.135Y-78.035
X110.135Y-80.035
X110.135Y-82.035
X110.135Y-84.035
X110.135Y-86.035
X110.234Y-56.636
X111.135Y-70.835
X111.135Y-78.035
X111.135Y-80.035
X111.135Y-82.035
X111.135Y-84.035
X111.135Y-86.035
X112.135Y-70.835
X112.135Y-78.035
X112.135Y-80.035
X112.135Y-82.035
X112.135Y-84.035
X112.135Y-86.035
X112.634Y-56.636
X113.135Y-70.835
X113.135Y-71.835
X113.135Y-72.835
X113.135Y-73.835
X113.135Y-74.835
X113.135Y-75.835
X113.135Y-77.035
X113.135Y-78.035
X113.135Y-80.035
X113.135Y-82.035
X113.135Y-84.035
X113.135Y-86.035
X114.135Y-70.835
X114.135Y-78.035
X114.135Y-86.035
X115.034Y-56.636
X115.135Y-70.835
X115.135Y-78.035
X115.135Y-86.035
X116.135Y-70.835
X116.135Y-78.035
X116.135Y-86.035
X117.135Y-70.835
X117.135Y-71.835
X117.135Y-78.035
X117.135Y-86.035
X118.034Y-56.735
X118.135Y-70.835
X118.135Y-71.835
X118.135Y-77.035
X118.135Y-78.035
X118.135Y-86.035
X119.135Y-70.835
X119.135Y-71.835
X119.135Y-86.035
T4
X73.335Y-39.135
X73.335Y-41.635
X73.335Y-44.135
X73.335Y-46.635
X73.335Y-49.135
X73.335Y-51.635
X73.335Y-54.135
X73.335Y-56.635
X122.634Y-51.136
X122.634Y-53.636
X122.634Y-56.136
X122.634Y-58.636
X122.634Y-61.136
X122.634Y-63.636
X122.634Y-66.135
T5
X73.38Y-63.585
X73.38Y-66.085
T6
X80.485Y-74.835
X80.485Y-82.035
X115.885Y-74.885
X115.885Y-82.085
T3
G00X73.935Y-71.685
M15
G01X75.035Y-71.685
M16
G05
G00X73.935Y-85.185
M15
G01X75.035Y-85.185
M16
G05
G00X122.435Y-71.735
M15
G01X121.335Y-71.735
M16
G05
G00X122.435Y-85.235
M15
G01X121.335Y-85.235
M16
G05
M30
