%TF.GenerationSoftware,KiCad,Pcbnew,9.0.7*%
%TF.CreationDate,2026-04-21T14:31:01+02:00*%
%TF.ProjectId,openbms,6f70656e-626d-4732-9e6b-696361645f70,Rev A*%
%TF.SameCoordinates,Original*%
%TF.FileFunction,Copper,L1,Top*%
%TF.FilePolarity,Positive*%
%FSLAX46Y46*%
G04 Gerber Fmt 4.6, Leading zero omitted, Abs format (unit mm)*
G04 Created by KiCad (PCBNEW 9.0.7) date 2026-04-21 14:31:01*
%MOMM*%
%LPD*%
G01*
G04 APERTURE LIST*
G04 Aperture macros list*
%AMRoundRect*
0 Rectangle with rounded corners*
0 $1 Rounding radius*
0 $2 $3 $4 $5 $6 $7 $8 $9 X,Y pos of 4 corners*
0 Add a 4 corners polygon primitive as box body*
4,1,4,$2,$3,$4,$5,$6,$7,$8,$9,$2,$3,0*
0 Add four circle primitives for the rounded corners*
1,1,$1+$1,$2,$3*
1,1,$1+$1,$4,$5*
1,1,$1+$1,$6,$7*
1,1,$1+$1,$8,$9*
0 Add four rect primitives between the rounded corners*
20,1,$1+$1,$2,$3,$4,$5,0*
20,1,$1+$1,$4,$5,$6,$7,0*
20,1,$1+$1,$6,$7,$8,$9,0*
20,1,$1+$1,$8,$9,$2,$3,0*%
%AMFreePoly0*
4,1,18,-0.697500,2.280000,2.027500,2.280000,2.502500,2.280000,2.502500,1.530000,2.027500,1.530000,2.027500,-1.530000,2.502500,-1.530000,2.502500,-2.280000,-0.697500,-2.280000,-0.697500,-2.775000,-1.602500,-2.775000,-1.602500,-2.280000,-2.027500,-2.280000,-2.027500,2.280000,-1.602500,2.280000,-1.602500,2.775000,-0.697500,2.775000,-0.697500,2.280000,-0.697500,2.280000,$1*%
G04 Aperture macros list end*
%TA.AperFunction,SMDPad,CuDef*%
%ADD10RoundRect,0.218750X-0.256250X0.218750X-0.256250X-0.218750X0.256250X-0.218750X0.256250X0.218750X0*%
%TD*%
%TA.AperFunction,ComponentPad*%
%ADD11RoundRect,0.250000X0.725000X-0.600000X0.725000X0.600000X-0.725000X0.600000X-0.725000X-0.600000X0*%
%TD*%
%TA.AperFunction,ComponentPad*%
%ADD12O,1.950000X1.700000*%
%TD*%
%TA.AperFunction,SMDPad,CuDef*%
%ADD13RoundRect,0.125000X-0.125000X0.487500X-0.125000X-0.487500X0.125000X-0.487500X0.125000X0.487500X0*%
%TD*%
%TA.AperFunction,SMDPad,CuDef*%
%ADD14RoundRect,0.250000X0.650000X-0.325000X0.650000X0.325000X-0.650000X0.325000X-0.650000X-0.325000X0*%
%TD*%
%TA.AperFunction,SMDPad,CuDef*%
%ADD15R,0.492000X0.300000*%
%TD*%
%TA.AperFunction,SMDPad,CuDef*%
%ADD16RoundRect,0.135000X0.185000X-0.135000X0.185000X0.135000X-0.185000X0.135000X-0.185000X-0.135000X0*%
%TD*%
%TA.AperFunction,SMDPad,CuDef*%
%ADD17RoundRect,0.225000X-0.250000X0.225000X-0.250000X-0.225000X0.250000X-0.225000X0.250000X0.225000X0*%
%TD*%
%TA.AperFunction,SMDPad,CuDef*%
%ADD18RoundRect,0.140000X0.170000X-0.140000X0.170000X0.140000X-0.170000X0.140000X-0.170000X-0.140000X0*%
%TD*%
%TA.AperFunction,SMDPad,CuDef*%
%ADD19RoundRect,0.250000X0.362500X1.425000X-0.362500X1.425000X-0.362500X-1.425000X0.362500X-1.425000X0*%
%TD*%
%TA.AperFunction,SMDPad,CuDef*%
%ADD20RoundRect,0.135000X-0.185000X0.135000X-0.185000X-0.135000X0.185000X-0.135000X0.185000X0.135000X0*%
%TD*%
%TA.AperFunction,SMDPad,CuDef*%
%ADD21RoundRect,0.250000X-0.362500X-1.425000X0.362500X-1.425000X0.362500X1.425000X-0.362500X1.425000X0*%
%TD*%
%TA.AperFunction,ComponentPad*%
%ADD22R,2.000000X0.900000*%
%TD*%
%TA.AperFunction,ComponentPad*%
%ADD23RoundRect,1.025000X1.025000X-1.025000X1.025000X1.025000X-1.025000X1.025000X-1.025000X-1.025000X0*%
%TD*%
%TA.AperFunction,ComponentPad*%
%ADD24C,4.100000*%
%TD*%
%TA.AperFunction,SMDPad,CuDef*%
%ADD25RoundRect,0.135000X-0.135000X-0.185000X0.135000X-0.185000X0.135000X0.185000X-0.135000X0.185000X0*%
%TD*%
%TA.AperFunction,SMDPad,CuDef*%
%ADD26RoundRect,0.150000X-0.150000X-0.700000X0.150000X-0.700000X0.150000X0.700000X-0.150000X0.700000X0*%
%TD*%
%TA.AperFunction,SMDPad,CuDef*%
%ADD27RoundRect,0.250000X-0.250000X-1.150000X0.250000X-1.150000X0.250000X1.150000X-0.250000X1.150000X0*%
%TD*%
%TA.AperFunction,SMDPad,CuDef*%
%ADD28RoundRect,0.140000X-0.170000X0.140000X-0.170000X-0.140000X0.170000X-0.140000X0.170000X0.140000X0*%
%TD*%
%TA.AperFunction,SMDPad,CuDef*%
%ADD29R,1.358900X0.279400*%
%TD*%
%TA.AperFunction,ConnectorPad*%
%ADD30C,0.787400*%
%TD*%
%TA.AperFunction,ComponentPad*%
%ADD31RoundRect,0.250000X-0.725000X0.600000X-0.725000X-0.600000X0.725000X-0.600000X0.725000X0.600000X0*%
%TD*%
%TA.AperFunction,SMDPad,CuDef*%
%ADD32RoundRect,0.147500X0.172500X-0.147500X0.172500X0.147500X-0.172500X0.147500X-0.172500X-0.147500X0*%
%TD*%
%TA.AperFunction,SMDPad,CuDef*%
%ADD33R,2.750000X5.500000*%
%TD*%
%TA.AperFunction,SMDPad,CuDef*%
%ADD34RoundRect,0.187500X-0.312500X-0.187500X0.312500X-0.187500X0.312500X0.187500X-0.312500X0.187500X0*%
%TD*%
%TA.AperFunction,SMDPad,CuDef*%
%ADD35FreePoly0,0.000000*%
%TD*%
%TA.AperFunction,SMDPad,CuDef*%
%ADD36RoundRect,0.140000X-0.140000X-0.170000X0.140000X-0.170000X0.140000X0.170000X-0.140000X0.170000X0*%
%TD*%
%TA.AperFunction,SMDPad,CuDef*%
%ADD37RoundRect,0.125000X-0.487500X-0.125000X0.487500X-0.125000X0.487500X0.125000X-0.487500X0.125000X0*%
%TD*%
%TA.AperFunction,SMDPad,CuDef*%
%ADD38RoundRect,0.100000X-0.300000X-0.100000X0.300000X-0.100000X0.300000X0.100000X-0.300000X0.100000X0*%
%TD*%
%TA.AperFunction,HeatsinkPad*%
%ADD39R,0.700000X2.900000*%
%TD*%
%TA.AperFunction,SMDPad,CuDef*%
%ADD40RoundRect,0.187500X0.312500X0.187500X-0.312500X0.187500X-0.312500X-0.187500X0.312500X-0.187500X0*%
%TD*%
%TA.AperFunction,SMDPad,CuDef*%
%ADD41FreePoly0,180.000000*%
%TD*%
%TA.AperFunction,ComponentPad*%
%ADD42RoundRect,0.250000X-0.750000X0.600000X-0.750000X-0.600000X0.750000X-0.600000X0.750000X0.600000X0*%
%TD*%
%TA.AperFunction,ComponentPad*%
%ADD43O,2.000000X1.700000*%
%TD*%
%TA.AperFunction,SMDPad,CuDef*%
%ADD44RoundRect,0.062500X-0.375000X-0.062500X0.375000X-0.062500X0.375000X0.062500X-0.375000X0.062500X0*%
%TD*%
%TA.AperFunction,SMDPad,CuDef*%
%ADD45RoundRect,0.062500X-0.062500X-0.375000X0.062500X-0.375000X0.062500X0.375000X-0.062500X0.375000X0*%
%TD*%
%TA.AperFunction,HeatsinkPad*%
%ADD46R,5.600000X5.600000*%
%TD*%
%TA.AperFunction,SMDPad,CuDef*%
%ADD47RoundRect,0.250000X-0.375000X-0.625000X0.375000X-0.625000X0.375000X0.625000X-0.375000X0.625000X0*%
%TD*%
%TA.AperFunction,ComponentPad*%
%ADD48RoundRect,1.025000X-1.025000X1.025000X-1.025000X-1.025000X1.025000X-1.025000X1.025000X1.025000X0*%
%TD*%
%TA.AperFunction,SMDPad,CuDef*%
%ADD49R,2.400000X1.900000*%
%TD*%
%TA.AperFunction,SMDPad,CuDef*%
%ADD50RoundRect,0.250000X-0.650000X1.000000X-0.650000X-1.000000X0.650000X-1.000000X0.650000X1.000000X0*%
%TD*%
%TA.AperFunction,ViaPad*%
%ADD51C,0.600000*%
%TD*%
%TA.AperFunction,ViaPad*%
%ADD52C,0.800000*%
%TD*%
%TA.AperFunction,Conductor*%
%ADD53C,0.200000*%
%TD*%
%TA.AperFunction,Conductor*%
%ADD54C,0.500000*%
%TD*%
%TA.AperFunction,Conductor*%
%ADD55C,0.300000*%
%TD*%
%TA.AperFunction,Conductor*%
%ADD56C,0.230000*%
%TD*%
G04 APERTURE END LIST*
D10*
%TO.P,D5,1,K*%
%TO.N,GND*%
X96834500Y-36448000D03*
%TO.P,D5,2,A*%
%TO.N,Net-(D5-A)*%
X96834500Y-38023000D03*
%TD*%
D11*
%TO.P,J7,1,Pin_1*%
%TO.N,/MCU/CAN_L*%
X122634500Y-66135500D03*
D12*
%TO.P,J7,2,Pin_2*%
%TO.N,/MCU/CAN_H*%
X122634500Y-63635500D03*
%TO.P,J7,3,Pin_3*%
%TO.N,/MCU/I2C2_SCL*%
X122634500Y-61135500D03*
%TO.P,J7,4,Pin_4*%
%TO.N,/MCU/I2C2_SDA*%
X122634500Y-58635500D03*
%TO.P,J7,5,Pin_5*%
%TO.N,/MCU/I2C2_INT*%
X122634500Y-56135500D03*
%TO.P,J7,6,Pin_6*%
%TO.N,/MCU/WAKE_UP*%
X122634500Y-53635500D03*
%TO.P,J7,7,Pin_7*%
%TO.N,GND*%
X122634500Y-51135500D03*
%TD*%
D13*
%TO.P,Q5,1,G*%
%TO.N,/FETs/DRV_MAIN_EN*%
X110985000Y-61297500D03*
%TO.P,Q5,2,S*%
%TO.N,GND*%
X109685000Y-61297500D03*
%TO.P,Q5,3,D*%
%TO.N,Net-(Q5-D)*%
X110335000Y-63172500D03*
%TD*%
D14*
%TO.P,C36,1*%
%TO.N,/FETs/BATT_PWR_VCC_FUSED*%
X96534500Y-58510500D03*
%TO.P,C36,2*%
%TO.N,GND*%
X96534500Y-55560500D03*
%TD*%
D15*
%TO.P,U11,1*%
%TO.N,GND*%
X82701000Y-57135000D03*
%TO.P,U11,2*%
%TO.N,/ADC/MEAS_CELL*%
X82701000Y-57635000D03*
%TO.P,U11,3*%
%TO.N,Net-(R66-Pad2)*%
X82701000Y-58135000D03*
%TO.P,U11,4*%
%TO.N,GND*%
X84369000Y-58135000D03*
%TO.P,U11,5*%
%TO.N,/ADC/MEAS_CELL*%
X84369000Y-57635000D03*
%TO.P,U11,6*%
%TO.N,Net-(D1-K)*%
X84369000Y-57135000D03*
%TD*%
D16*
%TO.P,R97,1*%
%TO.N,Net-(U19-EN{slash}UVLO)*%
X108335000Y-63745000D03*
%TO.P,R97,2*%
%TO.N,Net-(U19-OV)*%
X108335000Y-62725000D03*
%TD*%
%TO.P,R49,1*%
%TO.N,Net-(R49-Pad1)*%
X77135000Y-51495000D03*
%TO.P,R49,2*%
%TO.N,/ADC/CELL_2*%
X77135000Y-50475000D03*
%TD*%
D17*
%TO.P,C33,1*%
%TO.N,Net-(U19-BST)*%
X96534500Y-60760500D03*
%TO.P,C33,2*%
%TO.N,/FETs/SYS_VCC*%
X96534500Y-62310500D03*
%TD*%
D16*
%TO.P,R92,1*%
%TO.N,/FETs/BATT_PWR_VCC_FUSED*%
X110335000Y-67745000D03*
%TO.P,R92,2*%
%TO.N,Net-(Q3-G)*%
X110335000Y-66725000D03*
%TD*%
D18*
%TO.P,C26,1*%
%TO.N,Net-(U15-VDDA)*%
X108434500Y-44315500D03*
%TO.P,C26,2*%
%TO.N,GND*%
X108434500Y-43355500D03*
%TD*%
D19*
%TO.P,R74,1*%
%TO.N,Net-(R74-Pad1)*%
X93060000Y-65035000D03*
%TO.P,R74,2*%
%TO.N,/ADC/CELL_1*%
X87135000Y-65035000D03*
%TD*%
D20*
%TO.P,R73,1*%
%TO.N,GND*%
X81385000Y-59325000D03*
%TO.P,R73,2*%
%TO.N,/ADC/CELL_1_M*%
X81385000Y-60345000D03*
%TD*%
D16*
%TO.P,R69,1*%
%TO.N,/ADC/CELL_1_M*%
X80185000Y-60345000D03*
%TO.P,R69,2*%
%TO.N,Net-(R69-Pad2)*%
X80185000Y-59325000D03*
%TD*%
D21*
%TO.P,R68,1*%
%TO.N,/ADC/CELL_1*%
X87172500Y-60635000D03*
%TO.P,R68,2*%
%TO.N,Net-(R68-Pad2)*%
X93097500Y-60635000D03*
%TD*%
D22*
%TO.P,J5,*%
%TO.N,*%
X74485000Y-85185000D03*
X74485000Y-71685000D03*
D23*
%TO.P,J5,1,Pin_1*%
%TO.N,/ADC/BATT_CS_POS*%
X80485000Y-82035000D03*
D24*
%TO.P,J5,2,Pin_2*%
%TO.N,/Battery/BATT_PWR_VCC*%
X80485000Y-74835000D03*
%TD*%
D14*
%TO.P,C42,1*%
%TO.N,Net-(U20-FB)*%
X115034500Y-58410500D03*
%TO.P,C42,2*%
%TO.N,GND*%
X115034500Y-55460500D03*
%TD*%
D18*
%TO.P,C24,1*%
%TO.N,Net-(U15-VDDA)*%
X110634500Y-44315500D03*
%TO.P,C24,2*%
%TO.N,GND*%
X110634500Y-43355500D03*
%TD*%
D25*
%TO.P,R101,1*%
%TO.N,Net-(U19-ISCP)*%
X105025000Y-62835000D03*
%TO.P,R101,2*%
%TO.N,GND*%
X106045000Y-62835000D03*
%TD*%
D20*
%TO.P,R75,1*%
%TO.N,GND*%
X77135000Y-61225000D03*
%TO.P,R75,2*%
%TO.N,/ADC/CELL_1_BAL*%
X77135000Y-62245000D03*
%TD*%
D16*
%TO.P,R38,1*%
%TO.N,Net-(U5-SCLK)*%
X114434500Y-48945500D03*
%TO.P,R38,2*%
%TO.N,/ADC/SCLK*%
X114434500Y-47925500D03*
%TD*%
%TO.P,R60,1*%
%TO.N,GND*%
X78435000Y-55595000D03*
%TO.P,R60,2*%
%TO.N,/ADC/CELL_2_M*%
X78435000Y-54575000D03*
%TD*%
D26*
%TO.P,J1,1,Pin_1*%
%TO.N,/MCU/UART1_TX{slash}LED_G*%
X102584500Y-40985500D03*
%TO.P,J1,2,Pin_2*%
%TO.N,/MCU/UART1_RX{slash}LED_R*%
X103834500Y-40985500D03*
%TO.P,J1,3,Pin_3*%
%TO.N,GND*%
X105084500Y-40985500D03*
D27*
%TO.P,J1,MP*%
%TO.N,N/C*%
X100734500Y-37635500D03*
X106934500Y-37635500D03*
%TD*%
D16*
%TO.P,R27,1*%
%TO.N,/ADC/CELL_4_M*%
X78440000Y-47055000D03*
%TO.P,R27,2*%
%TO.N,Net-(R27-Pad2)*%
X78440000Y-46035000D03*
%TD*%
D25*
%TO.P,R47,1*%
%TO.N,Net-(U5-~{SYNC}{slash}~{RESET})*%
X109324500Y-39235500D03*
%TO.P,R47,2*%
%TO.N,/ADC/~{SYNC}*%
X110344500Y-39235500D03*
%TD*%
D16*
%TO.P,R15,1*%
%TO.N,GND*%
X78540000Y-42355000D03*
%TO.P,R15,2*%
%TO.N,/ADC/CELL_6_M*%
X78540000Y-41335000D03*
%TD*%
D28*
%TO.P,C21,1*%
%TO.N,GND*%
X121234500Y-38455500D03*
%TO.P,C21,2*%
%TO.N,+3V3*%
X121234500Y-39415500D03*
%TD*%
D21*
%TO.P,R10,1*%
%TO.N,/ADC/CELL_6*%
X87172500Y-38635000D03*
%TO.P,R10,2*%
%TO.N,Net-(R10-Pad2)*%
X93097500Y-38635000D03*
%TD*%
D20*
%TO.P,R50,1*%
%TO.N,Net-(R50-Pad1)*%
X81535000Y-50475000D03*
%TO.P,R50,2*%
%TO.N,/ADC/CELL_3*%
X81535000Y-51495000D03*
%TD*%
D16*
%TO.P,R16,1*%
%TO.N,GND*%
X80340000Y-42355000D03*
%TO.P,R16,2*%
%TO.N,/ADC/CELL_7_M*%
X80340000Y-41335000D03*
%TD*%
D29*
%TO.P,U19,1,EN/UVLO*%
%TO.N,Net-(U19-EN{slash}UVLO)*%
X103163850Y-65485001D03*
%TO.P,U19,2,OV*%
%TO.N,Net-(U19-OV)*%
X103163850Y-64985002D03*
%TO.P,U19,3,INP*%
%TO.N,/FETs/DRV_FET_EN*%
X103163850Y-64485000D03*
%TO.P,U19,4,FLT_GD*%
%TO.N,/FETs/DRV_FLT_GD*%
X103163850Y-63985001D03*
%TO.P,U19,5,~{FLT}*%
%TO.N,/FETs/~{DRV_FLT}*%
X103163850Y-63485000D03*
%TO.P,U19,6,GND*%
%TO.N,GND*%
X103163850Y-62985000D03*
%TO.P,U19,7,CS_SEL*%
%TO.N,+3V3*%
X103163850Y-62485002D03*
%TO.P,U19,8,ISCP*%
%TO.N,Net-(U19-ISCP)*%
X103163850Y-61985000D03*
%TO.P,U19,9,TMR*%
%TO.N,Net-(U19-TMR)*%
X103163850Y-61485001D03*
%TO.P,U19,10,SCP_TEST*%
%TO.N,Net-(U19-SCP_TEST)*%
X103163850Y-60984999D03*
%TO.P,U19,11,NC*%
%TO.N,unconnected-(U19-NC-Pad11)*%
X98706150Y-60984999D03*
%TO.P,U19,12,BST*%
%TO.N,Net-(U19-BST)*%
X98706150Y-61484998D03*
%TO.P,U19,13,SRC*%
%TO.N,/FETs/SYS_VCC*%
X98706150Y-61985000D03*
%TO.P,U19,14,PD*%
%TO.N,Net-(Q1-G)*%
X98706150Y-62484999D03*
%TO.P,U19,15,PU*%
X98706150Y-62985000D03*
%TO.P,U19,17,CS-*%
%TO.N,/ADC/BATT_CS_POS*%
X98706150Y-63984998D03*
%TO.P,U19,18,CS+*%
%TO.N,SYS_GND*%
X98706150Y-64485000D03*
%TO.P,U19,19,N.C*%
%TO.N,unconnected-(U19-N.C-Pad19)*%
X98706150Y-64984999D03*
%TO.P,U19,20,VS*%
%TO.N,/FETs/BATT_PWR_VCC_FUSED*%
X98706150Y-65485001D03*
%TD*%
D30*
%TO.P,J2,1,VCC*%
%TO.N,+3V3*%
X126424500Y-39354500D03*
%TO.P,J2,2,SWDIO*%
%TO.N,/MCU/SWDIO*%
X126424500Y-38084500D03*
%TO.P,J2,3,~{RESET}*%
%TO.N,/MCU/RESET*%
X127694500Y-39354500D03*
%TO.P,J2,4,SWCLK*%
%TO.N,/MCU/SWCLK*%
X127694500Y-38084500D03*
%TO.P,J2,5,GND*%
%TO.N,GND*%
X128964500Y-39354500D03*
%TO.P,J2,6,SWO*%
%TO.N,unconnected-(J2-SWO-Pad6)*%
X128964500Y-38084500D03*
%TD*%
D14*
%TO.P,C38,1*%
%TO.N,/FETs/BATT_PWR_VCC_FUSED*%
X101734500Y-58510500D03*
%TO.P,C38,2*%
%TO.N,GND*%
X101734500Y-55560500D03*
%TD*%
D16*
%TO.P,R80,1*%
%TO.N,/MCU/UART1_RX{slash}LED_R*%
X96834500Y-40445500D03*
%TO.P,R80,2*%
%TO.N,Net-(D5-A)*%
X96834500Y-39425500D03*
%TD*%
D15*
%TO.P,U13,1*%
%TO.N,GND_BATT_CELL*%
X78401000Y-61735000D03*
%TO.P,U13,2*%
%TO.N,/ADC/CELL_1_BAL*%
X78401000Y-62235000D03*
%TO.P,U13,3*%
%TO.N,Net-(R74-Pad1)*%
X78401000Y-62735000D03*
%TO.P,U13,4*%
%TO.N,unconnected-(U13-Pad4)*%
X80069000Y-62735000D03*
%TO.P,U13,5*%
%TO.N,unconnected-(U13-Pad5)*%
X80069000Y-62235000D03*
%TO.P,U13,6*%
%TO.N,unconnected-(U13-Pad6)*%
X80069000Y-61735000D03*
%TD*%
D28*
%TO.P,C43,1*%
%TO.N,GND*%
X116734500Y-57875500D03*
%TO.P,C43,2*%
%TO.N,Net-(U20-FB)*%
X116734500Y-58835500D03*
%TD*%
D31*
%TO.P,J3,1,Pin_1*%
%TO.N,/ADC/CELL_7*%
X73335000Y-39135000D03*
D12*
%TO.P,J3,2,Pin_2*%
%TO.N,/ADC/CELL_6*%
X73335000Y-41635000D03*
%TO.P,J3,3,Pin_3*%
%TO.N,/ADC/CELL_5*%
X73335000Y-44135000D03*
%TO.P,J3,4,Pin_4*%
%TO.N,/ADC/CELL_4*%
X73335000Y-46635000D03*
%TO.P,J3,5,Pin_5*%
%TO.N,/ADC/CELL_3*%
X73335000Y-49135000D03*
%TO.P,J3,6,Pin_6*%
%TO.N,/ADC/CELL_2*%
X73335000Y-51635000D03*
%TO.P,J3,7,Pin_7*%
%TO.N,/ADC/CELL_1*%
X73335000Y-54135000D03*
%TO.P,J3,8,Pin_8*%
%TO.N,GND_BATT_CELL*%
X73335000Y-56635000D03*
%TD*%
D15*
%TO.P,U2,1*%
%TO.N,/ADC/CELL_6*%
X78606000Y-37245000D03*
%TO.P,U2,2*%
%TO.N,Net-(R14-Pad2)*%
X78606000Y-37745000D03*
%TO.P,U2,3*%
%TO.N,Net-(R12-Pad2)*%
X78606000Y-38245000D03*
%TO.P,U2,4*%
%TO.N,/ADC/CELL_7*%
X80274000Y-38245000D03*
%TO.P,U2,5*%
%TO.N,Net-(R4-Pad1)*%
X80274000Y-37745000D03*
%TO.P,U2,6*%
%TO.N,Net-(R13-Pad2)*%
X80274000Y-37245000D03*
%TD*%
D16*
%TO.P,R28,1*%
%TO.N,/ADC/CELL_5_M*%
X80340000Y-47055000D03*
%TO.P,R28,2*%
%TO.N,Net-(R28-Pad2)*%
X80340000Y-46035000D03*
%TD*%
D28*
%TO.P,C39,1*%
%TO.N,GND*%
X103434500Y-55855500D03*
%TO.P,C39,2*%
%TO.N,/FETs/BATT_PWR_VCC_FUSED*%
X103434500Y-56815500D03*
%TD*%
D16*
%TO.P,R108,1*%
%TO.N,Net-(U20-FB)*%
X117734500Y-58845500D03*
%TO.P,R108,2*%
%TO.N,+3V3*%
X117734500Y-57825500D03*
%TD*%
D32*
%TO.P,L2,1,1*%
%TO.N,Net-(U15-VDDA)*%
X107334500Y-44320500D03*
%TO.P,L2,2,2*%
%TO.N,+3V3*%
X107334500Y-43350500D03*
%TD*%
D33*
%TO.P,R103,1*%
%TO.N,SYS_GND*%
X94035000Y-82235000D03*
%TO.P,R103,2*%
%TO.N,/ADC/BATT_CS_POS*%
X85835000Y-82235000D03*
%TD*%
D16*
%TO.P,R72,1*%
%TO.N,GND*%
X83435000Y-60345000D03*
%TO.P,R72,2*%
%TO.N,/ADC/MEAS_CELL*%
X83435000Y-59325000D03*
%TD*%
D21*
%TO.P,R67,1*%
%TO.N,/ADC/CELL_2*%
X87172500Y-56235000D03*
%TO.P,R67,2*%
%TO.N,Net-(R67-Pad2)*%
X93097500Y-56235000D03*
%TD*%
%TO.P,R11,1*%
%TO.N,/ADC/CELL_5*%
X87172500Y-43035000D03*
%TO.P,R11,2*%
%TO.N,Net-(R11-Pad2)*%
X93097500Y-43035000D03*
%TD*%
D28*
%TO.P,C14,1*%
%TO.N,Net-(U5-XTAL2)*%
X101334500Y-44355500D03*
%TO.P,C14,2*%
%TO.N,GND*%
X101334500Y-45315500D03*
%TD*%
D14*
%TO.P,C37,1*%
%TO.N,/FETs/BATT_PWR_VCC_FUSED*%
X99134500Y-58510500D03*
%TO.P,C37,2*%
%TO.N,GND*%
X99134500Y-55560500D03*
%TD*%
D15*
%TO.P,U4,1*%
%TO.N,/ADC/CELL_4*%
X78506000Y-43945000D03*
%TO.P,U4,2*%
%TO.N,Net-(R21-Pad1)*%
X78506000Y-44445000D03*
%TO.P,U4,3*%
%TO.N,Net-(R27-Pad2)*%
X78506000Y-44945000D03*
%TO.P,U4,4*%
%TO.N,/ADC/CELL_5*%
X80174000Y-44945000D03*
%TO.P,U4,5*%
%TO.N,Net-(R22-Pad1)*%
X80174000Y-44445000D03*
%TO.P,U4,6*%
%TO.N,Net-(R28-Pad2)*%
X80174000Y-43945000D03*
%TD*%
D16*
%TO.P,R36,1*%
%TO.N,GND*%
X78440000Y-49055000D03*
%TO.P,R36,2*%
%TO.N,/ADC/CELL_4_M*%
X78440000Y-48035000D03*
%TD*%
%TO.P,R37,1*%
%TO.N,GND*%
X80340000Y-49055000D03*
%TO.P,R37,2*%
%TO.N,/ADC/CELL_5_M*%
X80340000Y-48035000D03*
%TD*%
%TO.P,R25,1*%
%TO.N,Net-(D2-A-Pad1)*%
X81640000Y-47065000D03*
%TO.P,R25,2*%
%TO.N,Net-(R22-Pad1)*%
X81640000Y-46045000D03*
%TD*%
%TO.P,R56,1*%
%TO.N,/ADC/CELL_2_M*%
X78435000Y-53595000D03*
%TO.P,R56,2*%
%TO.N,Net-(R56-Pad2)*%
X78435000Y-52575000D03*
%TD*%
%TO.P,R94,1*%
%TO.N,Net-(Q3-G)*%
X110335000Y-65745000D03*
%TO.P,R94,2*%
%TO.N,Net-(Q5-D)*%
X110335000Y-64725000D03*
%TD*%
D14*
%TO.P,C40,1*%
%TO.N,Net-(U20-FB)*%
X110234500Y-58410500D03*
%TO.P,C40,2*%
%TO.N,GND*%
X110234500Y-55460500D03*
%TD*%
D16*
%TO.P,R95,1*%
%TO.N,Net-(Q3-D)*%
X108335000Y-65745000D03*
%TO.P,R95,2*%
%TO.N,Net-(U19-EN{slash}UVLO)*%
X108335000Y-64725000D03*
%TD*%
D34*
%TO.P,Q2,1,S*%
%TO.N,Net-(Q1-S-Pad1)*%
X106135000Y-72525000D03*
%TO.P,Q2,2,S*%
X106135000Y-73795000D03*
%TO.P,Q2,3,S*%
X106135000Y-75065000D03*
%TO.P,Q2,4,G*%
%TO.N,Net-(Q1-G)*%
X106135000Y-76335000D03*
D35*
%TO.P,Q2,5,D*%
%TO.N,/FETs/SYS_VCC*%
X109627250Y-74430000D03*
%TD*%
D10*
%TO.P,D4,1,K*%
%TO.N,GND*%
X98534500Y-36448000D03*
%TO.P,D4,2,A*%
%TO.N,Net-(D4-A)*%
X98534500Y-38023000D03*
%TD*%
D36*
%TO.P,C34,1*%
%TO.N,Net-(U19-TMR)*%
X105055000Y-60835000D03*
%TO.P,C34,2*%
%TO.N,GND*%
X106015000Y-60835000D03*
%TD*%
D37*
%TO.P,D2,1,A*%
%TO.N,Net-(D2-A-Pad1)*%
X83102500Y-47145000D03*
%TO.P,D2,2,A*%
%TO.N,Net-(D2-A-Pad2)*%
X83102500Y-48445000D03*
%TO.P,D2,3,K*%
%TO.N,Net-(D1-K)*%
X84977500Y-47795000D03*
%TD*%
%TO.P,D1,1,A*%
%TO.N,Net-(D1-A-Pad1)*%
X83102500Y-40395000D03*
%TO.P,D1,2,A*%
%TO.N,Net-(D1-A-Pad2)*%
X83102500Y-41695000D03*
%TO.P,D1,3,K*%
%TO.N,Net-(D1-K)*%
X84977500Y-41045000D03*
%TD*%
%TO.P,Q3,1,G*%
%TO.N,Net-(Q3-G)*%
X106997500Y-66785000D03*
%TO.P,Q3,2,S*%
%TO.N,/FETs/BATT_PWR_VCC_FUSED*%
X106997500Y-68085000D03*
%TO.P,Q3,3,D*%
%TO.N,Net-(Q3-D)*%
X108872500Y-67435000D03*
%TD*%
D15*
%TO.P,U8,1*%
%TO.N,/ADC/CELL_2*%
X78535000Y-50485000D03*
%TO.P,U8,2*%
%TO.N,Net-(R49-Pad1)*%
X78535000Y-50985000D03*
%TO.P,U8,3*%
%TO.N,Net-(R56-Pad2)*%
X78535000Y-51485000D03*
%TO.P,U8,4*%
%TO.N,/ADC/CELL_3*%
X80203000Y-51485000D03*
%TO.P,U8,5*%
%TO.N,Net-(R50-Pad1)*%
X80203000Y-50985000D03*
%TO.P,U8,6*%
%TO.N,Net-(R57-Pad2)*%
X80203000Y-50485000D03*
%TD*%
D18*
%TO.P,C22,1*%
%TO.N,GND*%
X119234500Y-49415500D03*
%TO.P,C22,2*%
%TO.N,+3V3*%
X119234500Y-48455500D03*
%TD*%
D16*
%TO.P,R9,1*%
%TO.N,Net-(D1-A-Pad1)*%
X81640000Y-40355000D03*
%TO.P,R9,2*%
%TO.N,Net-(R4-Pad1)*%
X81640000Y-39335000D03*
%TD*%
%TO.P,R58,1*%
%TO.N,Net-(D3-A-Pad2)*%
X77135000Y-53595000D03*
%TO.P,R58,2*%
%TO.N,Net-(R49-Pad1)*%
X77135000Y-52575000D03*
%TD*%
%TO.P,R99,1*%
%TO.N,Net-(U19-OV)*%
X108335000Y-61745000D03*
%TO.P,R99,2*%
%TO.N,GND*%
X108335000Y-60725000D03*
%TD*%
D38*
%TO.P,U20,1,GND*%
%TO.N,GND*%
X104984500Y-55635500D03*
%TO.P,U20,2,MODE/SYNC*%
X104984500Y-56235500D03*
%TO.P,U20,3,VIN*%
%TO.N,/FETs/BATT_PWR_VCC_FUSED*%
X104984500Y-56835500D03*
%TO.P,U20,4,EN*%
%TO.N,Net-(Q6-D)*%
X104984500Y-57435500D03*
%TO.P,U20,5,PG*%
%TO.N,/MCU/PWR_PG*%
X104984500Y-58035500D03*
%TO.P,U20,6,VOUT*%
%TO.N,Net-(U20-FB)*%
X108034500Y-58035500D03*
%TO.P,U20,7,FB*%
X108034500Y-57435500D03*
%TO.P,U20,8*%
%TO.N,unconnected-(U20-Pad8)*%
X108034500Y-56835500D03*
%TO.P,U20,9*%
%TO.N,unconnected-(U20-Pad9)*%
X108034500Y-56235500D03*
%TO.P,U20,10*%
%TO.N,unconnected-(U20-Pad10)*%
X108034500Y-55635500D03*
D39*
%TO.P,U20,11,GND*%
%TO.N,GND*%
X106334500Y-56835500D03*
%TD*%
D16*
%TO.P,R79,1*%
%TO.N,/MCU/UART1_TX{slash}LED_G*%
X98534500Y-40445500D03*
%TO.P,R79,2*%
%TO.N,Net-(D4-A)*%
X98534500Y-39425500D03*
%TD*%
%TO.P,R57,1*%
%TO.N,/ADC/CELL_3_M*%
X80235000Y-53595000D03*
%TO.P,R57,2*%
%TO.N,Net-(R57-Pad2)*%
X80235000Y-52575000D03*
%TD*%
%TO.P,R61,1*%
%TO.N,GND*%
X80235000Y-55595000D03*
%TO.P,R61,2*%
%TO.N,/ADC/CELL_3_M*%
X80235000Y-54575000D03*
%TD*%
D40*
%TO.P,Q1,1,S*%
%TO.N,Net-(Q1-S-Pad1)*%
X102935000Y-76305000D03*
%TO.P,Q1,2,S*%
X102935000Y-75035000D03*
%TO.P,Q1,3,S*%
X102935000Y-73765000D03*
%TO.P,Q1,4,G*%
%TO.N,Net-(Q1-G)*%
X102935000Y-72495000D03*
D41*
%TO.P,Q1,5,D*%
%TO.N,/FETs/BATT_PWR_VCC_FUSED*%
X99442750Y-74400000D03*
%TD*%
D16*
%TO.P,R21,1*%
%TO.N,Net-(R21-Pad1)*%
X77140000Y-44955000D03*
%TO.P,R21,2*%
%TO.N,/ADC/CELL_4*%
X77140000Y-43935000D03*
%TD*%
%TO.P,R14,1*%
%TO.N,Net-(D1-A-Pad2)*%
X77240000Y-40355000D03*
%TO.P,R14,2*%
%TO.N,Net-(R14-Pad2)*%
X77240000Y-39335000D03*
%TD*%
%TO.P,R3,1*%
%TO.N,Net-(R14-Pad2)*%
X77240000Y-38255000D03*
%TO.P,R3,2*%
%TO.N,/ADC/CELL_6*%
X77240000Y-37235000D03*
%TD*%
D21*
%TO.P,R41,1*%
%TO.N,/ADC/CELL_4*%
X87172500Y-47435000D03*
%TO.P,R41,2*%
%TO.N,Net-(R41-Pad2)*%
X93097500Y-47435000D03*
%TD*%
D20*
%TO.P,R98,1*%
%TO.N,/FETs/DRV_MAIN_EN*%
X111535000Y-63725000D03*
%TO.P,R98,2*%
%TO.N,GND*%
X111535000Y-64745000D03*
%TD*%
D16*
%TO.P,R12,1*%
%TO.N,/ADC/CELL_6_M*%
X78540000Y-40355000D03*
%TO.P,R12,2*%
%TO.N,Net-(R12-Pad2)*%
X78540000Y-39335000D03*
%TD*%
D42*
%TO.P,J4,1,Pin_1*%
%TO.N,/MCU/NTC*%
X73380000Y-63585000D03*
D43*
%TO.P,J4,2,Pin_2*%
%TO.N,GND*%
X73380000Y-66085000D03*
%TD*%
D16*
%TO.P,R66,1*%
%TO.N,/ADC/CELL_1*%
X81385000Y-58245000D03*
%TO.P,R66,2*%
%TO.N,Net-(R66-Pad2)*%
X81385000Y-57225000D03*
%TD*%
D21*
%TO.P,R42,1*%
%TO.N,/ADC/CELL_3*%
X87172500Y-51835000D03*
%TO.P,R42,2*%
%TO.N,Net-(R42-Pad2)*%
X93097500Y-51835000D03*
%TD*%
D16*
%TO.P,R29,1*%
%TO.N,Net-(D2-A-Pad2)*%
X77140000Y-47045000D03*
%TO.P,R29,2*%
%TO.N,Net-(R21-Pad1)*%
X77140000Y-46025000D03*
%TD*%
D44*
%TO.P,U15,1,VBAT*%
%TO.N,+3V3*%
X112959500Y-39835500D03*
%TO.P,U15,2,PC13*%
%TO.N,/ADC/~{SYNC}*%
X112959500Y-40335500D03*
%TO.P,U15,3,PC14*%
%TO.N,/ADC/~{CS}*%
X112959500Y-40835500D03*
%TO.P,U15,4,PC15*%
%TO.N,/ADC/~{DRDY}*%
X112959500Y-41335500D03*
%TO.P,U15,5,PH0*%
%TO.N,/MCU/XTAL_1*%
X112959500Y-41835500D03*
%TO.P,U15,6,PH1*%
%TO.N,/MCU/XTAL_2*%
X112959500Y-42335500D03*
%TO.P,U15,7,NRST*%
%TO.N,/MCU/RESET*%
X112959500Y-42835500D03*
%TO.P,U15,8,VSSA*%
%TO.N,GND*%
X112959500Y-43335500D03*
%TO.P,U15,9,VDDA*%
%TO.N,Net-(U15-VDDA)*%
X112959500Y-43835500D03*
%TO.P,U15,10,PA0*%
%TO.N,/ADC/CELL_2_BAL*%
X112959500Y-44335500D03*
%TO.P,U15,11,PA1*%
%TO.N,/FETs/~{DRV_FLT}*%
X112959500Y-44835500D03*
%TO.P,U15,12,PA2*%
%TO.N,/FETs/DRV_FET_EN*%
X112959500Y-45335500D03*
D45*
%TO.P,U15,13,PA3*%
%TO.N,/FETs/DRV_FLT_GD*%
X113647000Y-46023000D03*
%TO.P,U15,14,PA4*%
%TO.N,/ADC/MEAS_CELL*%
X114147000Y-46023000D03*
%TO.P,U15,15,PA5*%
%TO.N,/ADC/SCLK*%
X114647000Y-46023000D03*
%TO.P,U15,16,PA6*%
%TO.N,/ADC/MISO*%
X115147000Y-46023000D03*
%TO.P,U15,17,PA7*%
%TO.N,/ADC/MOSI*%
X115647000Y-46023000D03*
%TO.P,U15,18,PB0*%
%TO.N,/ADC/CELL_1_BAL*%
X116147000Y-46023000D03*
%TO.P,U15,19,PB1*%
%TO.N,/MCU/NTC*%
X116647000Y-46023000D03*
%TO.P,U15,20,PB2*%
%TO.N,/MCU/PWR_PG*%
X117147000Y-46023000D03*
%TO.P,U15,21,PB10*%
%TO.N,/MCU/I2C2_SCL*%
X117647000Y-46023000D03*
%TO.P,U15,22,PB11*%
%TO.N,/MCU/I2C2_SDA*%
X118147000Y-46023000D03*
%TO.P,U15,23,VSS*%
%TO.N,GND*%
X118647000Y-46023000D03*
%TO.P,U15,24,VDD*%
%TO.N,+3V3*%
X119147000Y-46023000D03*
D44*
%TO.P,U15,25,PB12*%
%TO.N,/FETs/DRV_MAIN_EN*%
X119834500Y-45335500D03*
%TO.P,U15,26,PB13*%
%TO.N,/MCU/WAKE_UP*%
X119834500Y-44835500D03*
%TO.P,U15,27,PB14*%
%TO.N,/MCU/I2C2_INT*%
X119834500Y-44335500D03*
%TO.P,U15,28,PB15*%
%TO.N,/MCU/PWR_ON*%
X119834500Y-43835500D03*
%TO.P,U15,29,PA8*%
%TO.N,/FETs/DRV_PRE_FET_EN*%
X119834500Y-43335500D03*
%TO.P,U15,30,PA9*%
%TO.N,/MCU/I2C1_SCL*%
X119834500Y-42835500D03*
%TO.P,U15,31,PA10*%
%TO.N,/MCU/I2C1_SDA*%
X119834500Y-42335500D03*
%TO.P,U15,32,PA11*%
%TO.N,/MCU/CAN_RX*%
X119834500Y-41835500D03*
%TO.P,U15,33,PA12*%
%TO.N,/MCU/CAN_TX*%
X119834500Y-41335500D03*
%TO.P,U15,34,PA13*%
%TO.N,/MCU/SWDIO*%
X119834500Y-40835500D03*
%TO.P,U15,35,VSS*%
%TO.N,GND*%
X119834500Y-40335500D03*
%TO.P,U15,36,VDD*%
%TO.N,+3V3*%
X119834500Y-39835500D03*
D45*
%TO.P,U15,37,PA14*%
%TO.N,/MCU/SWCLK*%
X119147000Y-39148000D03*
%TO.P,U15,38,PA15*%
%TO.N,/ADC/CELL_7_BAL*%
X118647000Y-39148000D03*
%TO.P,U15,39,PB3*%
%TO.N,/ADC/CELL_6_BAL*%
X118147000Y-39148000D03*
%TO.P,U15,40,PB4*%
%TO.N,/ADC/MEAS_BAT*%
X117647000Y-39148000D03*
%TO.P,U15,41,PB5*%
%TO.N,/ADC/CELL_5_BAL*%
X117147000Y-39148000D03*
%TO.P,U15,42,PB6*%
%TO.N,/MCU/UART1_TX{slash}LED_G*%
X116647000Y-39148000D03*
%TO.P,U15,43,PB7*%
%TO.N,/MCU/UART1_RX{slash}LED_R*%
X116147000Y-39148000D03*
%TO.P,U15,44,PH3*%
%TO.N,/MCU/BOOT0*%
X115647000Y-39148000D03*
%TO.P,U15,45,PB8*%
%TO.N,/ADC/CELL_4_BAL*%
X115147000Y-39148000D03*
%TO.P,U15,46,PB9*%
%TO.N,/ADC/CELL_3_BAL*%
X114647000Y-39148000D03*
%TO.P,U15,47,VSS*%
%TO.N,GND*%
X114147000Y-39148000D03*
%TO.P,U15,48,VDD*%
%TO.N,+3V3*%
X113647000Y-39148000D03*
D46*
%TO.P,U15,49,VSS*%
%TO.N,GND*%
X116397000Y-42585500D03*
%TD*%
D37*
%TO.P,D3,1,A*%
%TO.N,Net-(D3-A-Pad1)*%
X82997500Y-53585000D03*
%TO.P,D3,2,A*%
%TO.N,Net-(D3-A-Pad2)*%
X82997500Y-54885000D03*
%TO.P,D3,3,K*%
%TO.N,Net-(D1-K)*%
X84872500Y-54235000D03*
%TD*%
D47*
%TO.P,F1,1*%
%TO.N,/Battery/BATT_PWR_VCC*%
X84535000Y-75035000D03*
%TO.P,F1,2*%
%TO.N,/FETs/BATT_PWR_VCC_FUSED*%
X87335000Y-75035000D03*
%TD*%
D20*
%TO.P,R22,1*%
%TO.N,Net-(R22-Pad1)*%
X81640000Y-43935000D03*
%TO.P,R22,2*%
%TO.N,/ADC/CELL_5*%
X81640000Y-44955000D03*
%TD*%
D18*
%TO.P,C16,1*%
%TO.N,GND*%
X101335000Y-49515000D03*
%TO.P,C16,2*%
%TO.N,Net-(U5-XTAL1{slash}CLKIN)*%
X101335000Y-48555000D03*
%TD*%
D20*
%TO.P,R4,1*%
%TO.N,Net-(R4-Pad1)*%
X81640000Y-37235000D03*
%TO.P,R4,2*%
%TO.N,/ADC/CELL_7*%
X81640000Y-38255000D03*
%TD*%
D28*
%TO.P,C25,1*%
%TO.N,GND*%
X109534500Y-43355500D03*
%TO.P,C25,2*%
%TO.N,Net-(U15-VDDA)*%
X109534500Y-44315500D03*
%TD*%
D25*
%TO.P,R100,1*%
%TO.N,Net-(U19-SCP_TEST)*%
X105025000Y-59835000D03*
%TO.P,R100,2*%
%TO.N,GND*%
X106045000Y-59835000D03*
%TD*%
%TO.P,R46,1*%
%TO.N,Net-(U5-~{DRDY})*%
X109324500Y-41435500D03*
%TO.P,R46,2*%
%TO.N,/ADC/~{DRDY}*%
X110344500Y-41435500D03*
%TD*%
%TO.P,R44,1*%
%TO.N,Net-(U5-~{CS})*%
X109324500Y-40335500D03*
%TO.P,R44,2*%
%TO.N,/ADC/~{CS}*%
X110344500Y-40335500D03*
%TD*%
D36*
%TO.P,C23,1*%
%TO.N,GND*%
X111054500Y-37735500D03*
%TO.P,C23,2*%
%TO.N,+3V3*%
X112014500Y-37735500D03*
%TD*%
D22*
%TO.P,J6,*%
%TO.N,*%
X121885000Y-71735000D03*
X121885000Y-85235000D03*
D48*
%TO.P,J6,1,Pin_1*%
%TO.N,SYS_GND*%
X115885000Y-82085000D03*
D24*
%TO.P,J6,2,Pin_2*%
%TO.N,/FETs/SYS_VCC*%
X115885000Y-74885000D03*
%TD*%
D49*
%TO.P,Y1,1,1*%
%TO.N,Net-(U5-XTAL1{slash}CLKIN)*%
X103735000Y-48485000D03*
%TO.P,Y1,2,2*%
%TO.N,Net-(U5-XTAL2)*%
X103735000Y-44385000D03*
%TD*%
D14*
%TO.P,C41,1*%
%TO.N,Net-(U20-FB)*%
X112634500Y-58410500D03*
%TO.P,C41,2*%
%TO.N,GND*%
X112634500Y-55460500D03*
%TD*%
D16*
%TO.P,R40,1*%
%TO.N,Net-(U5-DIN)*%
X115734500Y-48945500D03*
%TO.P,R40,2*%
%TO.N,/ADC/MOSI*%
X115734500Y-47925500D03*
%TD*%
D50*
%TO.P,D6,1,A1*%
%TO.N,/FETs/BATT_PWR_VCC_FUSED*%
X94135000Y-73235000D03*
%TO.P,D6,2,A2*%
%TO.N,SYS_GND*%
X94135000Y-77235000D03*
%TD*%
D15*
%TO.P,U10,1*%
%TO.N,unconnected-(U10-Pad1)*%
X78351000Y-57135000D03*
%TO.P,U10,2*%
%TO.N,unconnected-(U10-Pad2)*%
X78351000Y-57635000D03*
%TO.P,U10,3*%
%TO.N,unconnected-(U10-Pad3)*%
X78351000Y-58135000D03*
%TO.P,U10,4*%
%TO.N,/ADC/CELL_1*%
X80019000Y-58135000D03*
%TO.P,U10,5*%
%TO.N,Net-(R66-Pad2)*%
X80019000Y-57635000D03*
%TO.P,U10,6*%
%TO.N,Net-(R69-Pad2)*%
X80019000Y-57135000D03*
%TD*%
D16*
%TO.P,R13,1*%
%TO.N,/ADC/CELL_7_M*%
X80340000Y-40355000D03*
%TO.P,R13,2*%
%TO.N,Net-(R13-Pad2)*%
X80340000Y-39335000D03*
%TD*%
D25*
%TO.P,R102,1*%
%TO.N,Net-(U19-TMR)*%
X105025000Y-61835000D03*
%TO.P,R102,2*%
%TO.N,GND*%
X106045000Y-61835000D03*
%TD*%
D16*
%TO.P,R54,1*%
%TO.N,Net-(D3-A-Pad1)*%
X81535000Y-53595000D03*
%TO.P,R54,2*%
%TO.N,Net-(R50-Pad1)*%
X81535000Y-52575000D03*
%TD*%
D51*
%TO.N,GND*%
X131130200Y-45435500D03*
X107135000Y-61835000D03*
X76334500Y-38035500D03*
X130434500Y-41135500D03*
X82234500Y-59535500D03*
X90035000Y-38135000D03*
X110134500Y-37735500D03*
X105935000Y-63835000D03*
X102934500Y-54335500D03*
X84337075Y-58999086D03*
X107135000Y-59835000D03*
X121934500Y-45035500D03*
X106794120Y-40995120D03*
X118034500Y-40835500D03*
X128085000Y-72685000D03*
X126310235Y-45659765D03*
X103050000Y-51764000D03*
X91683943Y-60334000D03*
X131130200Y-54735500D03*
X81235000Y-55585000D03*
X89125000Y-48945000D03*
X102534500Y-46135500D03*
X110569155Y-42573779D03*
D52*
X96534500Y-56635500D03*
D51*
X104935000Y-46635000D03*
X115358765Y-60959765D03*
X91683943Y-59134000D03*
X127934500Y-58435500D03*
D52*
X99134500Y-56735500D03*
D51*
X89725000Y-46845000D03*
X105683673Y-44486328D03*
D52*
X115034500Y-56635500D03*
D51*
X100335000Y-49435000D03*
X130734500Y-85035500D03*
X126734500Y-54335500D03*
X126485000Y-72666250D03*
X89683943Y-55534000D03*
X77540000Y-49045000D03*
X114434500Y-63835500D03*
X120134500Y-37535500D03*
X89335000Y-39835000D03*
X109735000Y-60035000D03*
X117934500Y-42635500D03*
X124934500Y-51835500D03*
X129184500Y-49535500D03*
X131099500Y-46670500D03*
X77640000Y-42345000D03*
X82435000Y-60335000D03*
X90735000Y-52535000D03*
X76235000Y-61235000D03*
X127834500Y-65935500D03*
X131130200Y-44135500D03*
X130734500Y-83235500D03*
X107135000Y-60835000D03*
X108335000Y-59835000D03*
X81340000Y-49045000D03*
X127934500Y-60835500D03*
D52*
X101734500Y-56735500D03*
D51*
X116334500Y-67635500D03*
X107935000Y-52735000D03*
D52*
X112634500Y-56635500D03*
D51*
X120134500Y-49435500D03*
X105950000Y-51764000D03*
X108434500Y-42535500D03*
X118747000Y-47536387D03*
X117834500Y-55335500D03*
X122034500Y-38435500D03*
X101134500Y-62435500D03*
X116334500Y-42635500D03*
X116734500Y-57135500D03*
X81240000Y-42345000D03*
X119834500Y-46535500D03*
X129184500Y-52135500D03*
X130734500Y-84135500D03*
X95634500Y-38035500D03*
X114634500Y-42635500D03*
X113806475Y-37859292D03*
X91935000Y-41635000D03*
X91525000Y-50545000D03*
X83773530Y-56327403D03*
X127934500Y-63335500D03*
X111535000Y-65835000D03*
X131129500Y-47940500D03*
X111436371Y-43748992D03*
X89083943Y-57434000D03*
X126834500Y-56735500D03*
X79434500Y-36535500D03*
X106334500Y-54935500D03*
D52*
X110234500Y-56635500D03*
D51*
X109634500Y-42535500D03*
X118034500Y-44635500D03*
X91034500Y-43535000D03*
X105834500Y-54235500D03*
X121134500Y-40235500D03*
X77435000Y-55585000D03*
%TO.N,+3V3*%
X120134500Y-48435500D03*
X122034500Y-39435500D03*
X106955000Y-52715000D03*
X127134500Y-50435500D03*
X124334500Y-50445500D03*
X117724500Y-53325500D03*
X109058765Y-37259765D03*
X124134500Y-39535500D03*
X121934500Y-44235497D03*
X130834500Y-50535500D03*
X131130200Y-57435500D03*
X101134500Y-61535500D03*
X106135004Y-43735577D03*
X112334500Y-38535500D03*
X121734500Y-36335500D03*
X120324500Y-53235500D03*
X120634500Y-54135500D03*
D52*
X118034500Y-56735500D03*
D51*
%TO.N,GND_BATT_CELL*%
X84135000Y-55535000D03*
X75234500Y-42835500D03*
%TO.N,Net-(U5-XTAL2)*%
X106135000Y-45835000D03*
%TO.N,Net-(U5-XTAL1{slash}CLKIN)*%
X106135000Y-46835000D03*
%TO.N,/MCU/XTAL_1*%
X111227991Y-41370026D03*
%TO.N,/MCU/XTAL_2*%
X111259438Y-42169410D03*
D52*
%TO.N,/FETs/BATT_PWR_VCC_FUSED*%
X91135000Y-75635000D03*
X89135000Y-70835000D03*
X96135000Y-72835000D03*
X95135000Y-70835000D03*
X97135000Y-70835000D03*
X88135000Y-72835000D03*
X93135000Y-70835000D03*
X87135000Y-72835000D03*
X97135000Y-77835000D03*
X91135000Y-70835000D03*
X96135000Y-73835000D03*
X89135000Y-75635000D03*
X96135000Y-71835000D03*
X100135000Y-77835000D03*
X90135000Y-70835000D03*
X96135000Y-70835000D03*
X89135000Y-72835000D03*
X89135000Y-71835000D03*
X101135000Y-70835000D03*
X90135000Y-75635000D03*
X101135000Y-77835000D03*
X94934500Y-58535500D03*
X90135000Y-71835000D03*
X88135000Y-71835000D03*
D51*
X105835000Y-68535500D03*
D52*
X92135000Y-70835000D03*
X98135000Y-77835000D03*
X99135000Y-70835000D03*
X100135000Y-70835000D03*
D51*
X118234500Y-63335500D03*
D52*
X98135000Y-70835000D03*
X99135000Y-77835000D03*
D51*
X118334500Y-68535500D03*
D52*
X94135000Y-70835000D03*
%TO.N,/FETs/SYS_VCC*%
X118135000Y-78035000D03*
X118135000Y-71835000D03*
X118135000Y-70835000D03*
X114135000Y-78035000D03*
X118135000Y-77035000D03*
X113135000Y-78035000D03*
X113135000Y-71835000D03*
X114135000Y-70835000D03*
X115135000Y-78035000D03*
X119135000Y-71835000D03*
D51*
X129435000Y-80035000D03*
D52*
X115135000Y-70835000D03*
X116135000Y-78035000D03*
X110135000Y-70835000D03*
X108135000Y-70835000D03*
X113135000Y-77035000D03*
X109135000Y-70835000D03*
X117135000Y-78035000D03*
X112135000Y-70835000D03*
X113135000Y-70835000D03*
X111135000Y-78035000D03*
X110135000Y-78035000D03*
X113135000Y-74835000D03*
X117135000Y-70835000D03*
X109135000Y-78035000D03*
X116135000Y-70835000D03*
X113135000Y-72835000D03*
X111135000Y-70835000D03*
X119135000Y-70835000D03*
X113135000Y-75835000D03*
X112135000Y-78035000D03*
X117135000Y-71835000D03*
X108135000Y-78035000D03*
X113135000Y-73835000D03*
D51*
%TO.N,/MCU/I2C1_SDA*%
X123234500Y-47935500D03*
%TO.N,/MCU/I2C1_SCL*%
X122634500Y-46670500D03*
%TO.N,/MCU/WAKE_UP*%
X120934500Y-66035500D03*
%TO.N,/MCU/PWR_ON*%
X121084500Y-44185500D03*
X120934500Y-67435500D03*
X123618332Y-48660308D03*
%TO.N,/MCU/RESET*%
X126734500Y-40435500D03*
X111439027Y-42948994D03*
%TO.N,/ADC/CELL_6*%
X88935000Y-41835000D03*
%TO.N,/ADC/CELL_3*%
X88535000Y-55135000D03*
X84434500Y-51535000D03*
X82335000Y-51535000D03*
%TO.N,/ADC/CELL_4*%
X88325764Y-49844236D03*
X75935000Y-44935000D03*
X84535000Y-45335000D03*
%TO.N,/ADC/CELL_5*%
X84454726Y-44170356D03*
X82535000Y-44935000D03*
X88535000Y-46335000D03*
%TO.N,/ADC/CELL_1*%
X84635000Y-61335000D03*
X82234500Y-58735500D03*
%TO.N,/ADC/CELL_2*%
X85535000Y-53186000D03*
X88335000Y-58935000D03*
X76135000Y-50435000D03*
%TO.N,/ADC/CELL_7*%
X82535000Y-38235000D03*
%TO.N,/MCU/NTC*%
X97334500Y-69235500D03*
X116834500Y-50935500D03*
D52*
%TO.N,/ADC/BATT_CS_POS*%
X81735000Y-85635000D03*
X77735000Y-80035000D03*
X78735000Y-85635000D03*
X76735000Y-82235000D03*
X76735000Y-81035000D03*
X82735000Y-84635000D03*
X76735000Y-80035000D03*
X83735000Y-84635000D03*
D51*
X97335000Y-63836000D03*
D52*
X83735000Y-83435000D03*
X83735000Y-82235000D03*
D51*
X89546651Y-81952670D03*
D52*
X80735000Y-85635000D03*
X76735000Y-83435000D03*
X83735000Y-85635000D03*
X79735000Y-85635000D03*
X77735000Y-85635000D03*
X82735000Y-85635000D03*
X76735000Y-85635000D03*
X76735000Y-84635000D03*
X83735000Y-80035000D03*
D51*
X89335000Y-78635000D03*
D52*
X83735000Y-81035000D03*
%TO.N,Net-(Q1-S-Pad1)*%
X104535000Y-72835000D03*
X104535000Y-74835000D03*
X105935000Y-70835000D03*
X104535000Y-70835000D03*
X104535000Y-71835000D03*
X104535000Y-75835000D03*
X104535000Y-73835000D03*
X104535000Y-76835000D03*
X103135000Y-77835000D03*
X104535000Y-77835000D03*
D51*
%TO.N,Net-(Q1-G)*%
X106135000Y-77435000D03*
X106935000Y-69735500D03*
%TO.N,Net-(Q3-G)*%
X105735000Y-66835000D03*
X111135000Y-66835000D03*
%TO.N,/FETs/DRV_PRE_FET_EN*%
X126434500Y-71535500D03*
X121534500Y-43435500D03*
X127134500Y-48135500D03*
%TO.N,Net-(Q6-D)*%
X116334500Y-62735500D03*
X104034500Y-59135500D03*
%TO.N,Net-(R10-Pad2)*%
X91884000Y-38886000D03*
X85935000Y-40435000D03*
%TO.N,Net-(R11-Pad2)*%
X91935000Y-42735000D03*
X86035000Y-41835000D03*
%TO.N,/ADC/CELL_6_M*%
X99534500Y-38335500D03*
X99634500Y-36935500D03*
X79440000Y-41345000D03*
%TO.N,/ADC/CELL_7_M*%
X79440000Y-40345000D03*
%TO.N,/ADC/CELL_1_M*%
X79345000Y-60345000D03*
%TO.N,/ADC/CELL_7_BAL*%
X119534500Y-36035500D03*
%TO.N,/ADC/CELL_6_BAL*%
X118610235Y-36011235D03*
%TO.N,/ADC/CELL_2_M*%
X79335000Y-54585000D03*
X95735000Y-46935000D03*
X95735000Y-48935000D03*
%TO.N,/ADC/CELL_3_M*%
X95735000Y-43935000D03*
X79335000Y-53585000D03*
X95735000Y-45935000D03*
%TO.N,/ADC/CELL_4_M*%
X95735000Y-44935000D03*
X95735000Y-42964000D03*
X79435000Y-48035000D03*
%TO.N,/ADC/CELL_5_M*%
X79435000Y-47035000D03*
%TO.N,Net-(U5-SCLK)*%
X113634500Y-48935500D03*
%TO.N,/ADC/MISO*%
X115134500Y-47135500D03*
%TO.N,Net-(U5-DIN)*%
X115734500Y-49835500D03*
%TO.N,Net-(R41-Pad2)*%
X85635000Y-49335000D03*
X91935000Y-47635000D03*
%TO.N,Net-(R42-Pad2)*%
X85835000Y-50598938D03*
X91835000Y-51535000D03*
%TO.N,Net-(U5-~{CS})*%
X108434500Y-40335500D03*
%TO.N,Net-(U5-~{DRDY})*%
X108434500Y-41435500D03*
%TO.N,Net-(U5-~{SYNC}{slash}~{RESET})*%
X109334500Y-38335500D03*
%TO.N,/ADC/CELL_5_BAL*%
X90735000Y-46136000D03*
%TO.N,/ADC/CELL_4_BAL*%
X89734500Y-52535000D03*
%TO.N,Net-(R67-Pad2)*%
X85535000Y-57935000D03*
X91735000Y-56535000D03*
%TO.N,Net-(R68-Pad2)*%
X91735000Y-61335000D03*
X85583943Y-59334000D03*
%TO.N,/ADC/CELL_3_BAL*%
X90734500Y-55535500D03*
%TO.N,/ADC/CELL_2_BAL*%
X91734500Y-58235500D03*
%TO.N,/ADC/MEAS_CELL*%
X97334500Y-67335500D03*
X114334500Y-50935500D03*
%TO.N,Net-(R74-Pad1)*%
X91735000Y-65035000D03*
X81634500Y-65035000D03*
%TO.N,/ADC/CELL_1_BAL*%
X115834500Y-50935500D03*
X97334500Y-68335500D03*
%TO.N,/ADC/MEAS_BAT*%
X84834500Y-37035500D03*
X83834500Y-38635500D03*
%TO.N,/MCU/BOOT0*%
X115547000Y-36568145D03*
%TO.N,/MCU/I2C2_SDA*%
X119334500Y-50935500D03*
%TO.N,/MCU/I2C2_SCL*%
X118534500Y-50935500D03*
%TO.N,/MCU/CAN_RX*%
X130534500Y-52135500D03*
%TO.N,/FETs/~{DRV_FLT}*%
X101610237Y-63411234D03*
X109134500Y-50935500D03*
%TO.N,/FETs/DRV_FET_EN*%
X101634500Y-64235500D03*
X110434500Y-50935500D03*
%TO.N,/MCU/CAN_TX*%
X128584500Y-51485500D03*
%TO.N,/FETs/DRV_FLT_GD*%
X104934500Y-63935500D03*
X111234500Y-50935500D03*
D52*
%TO.N,SYS_GND*%
X115135000Y-86035000D03*
X107135000Y-80035000D03*
X100135000Y-80035000D03*
X97135000Y-80035000D03*
X100135000Y-82035000D03*
X113135000Y-80035000D03*
X108135000Y-82035000D03*
X98135000Y-84035000D03*
X96135000Y-84035000D03*
X97135000Y-82035000D03*
X104135000Y-80035000D03*
X112135000Y-80035000D03*
X106135000Y-86035000D03*
X107135000Y-84035000D03*
X110135000Y-84035000D03*
X106135000Y-84035000D03*
X101135000Y-80035000D03*
X108135000Y-84035000D03*
X116135000Y-86035000D03*
X111135000Y-84035000D03*
X108135000Y-80035000D03*
X111135000Y-82035000D03*
X119135000Y-86035000D03*
X99135000Y-80035000D03*
X106135000Y-82035000D03*
X93135000Y-86035000D03*
X96135000Y-80035000D03*
X103135000Y-84035000D03*
X99135000Y-82035000D03*
X102135000Y-84035000D03*
X111135000Y-86035000D03*
X104135000Y-82035000D03*
X102135000Y-80035000D03*
X110135000Y-86035000D03*
X103135000Y-82035000D03*
X101135000Y-82035000D03*
X109135000Y-82035000D03*
X102135000Y-82035000D03*
X113135000Y-82035000D03*
X112135000Y-86035000D03*
X102135000Y-86035000D03*
X96135000Y-86035000D03*
X110135000Y-80035000D03*
X97135000Y-84035000D03*
X97135000Y-86035000D03*
X96135000Y-82035000D03*
X104135000Y-86035000D03*
X98135000Y-80035000D03*
X109135000Y-84035000D03*
X113135000Y-86035000D03*
X101135000Y-86035000D03*
X109135000Y-80035000D03*
D51*
X90135003Y-78635000D03*
D52*
X105135000Y-82035000D03*
X105135000Y-84035000D03*
X103135000Y-80035000D03*
D51*
X90346390Y-81932141D03*
D52*
X108135000Y-86035000D03*
X113135000Y-84035000D03*
X98135000Y-86035000D03*
X107135000Y-82035000D03*
X95135000Y-86035000D03*
X99135000Y-84035000D03*
X117135000Y-86035000D03*
X109135000Y-86035000D03*
X101135000Y-84035000D03*
X112135000Y-82035000D03*
X111135000Y-80035000D03*
X114135000Y-86035000D03*
X105135000Y-86035000D03*
X103135000Y-86035000D03*
X98135000Y-82035000D03*
X107135000Y-86035000D03*
X104135000Y-84035000D03*
X106135000Y-80035000D03*
X99135000Y-86035000D03*
X105135000Y-80035000D03*
X110135000Y-82035000D03*
X94135000Y-86035000D03*
D51*
X97335000Y-64636003D03*
D52*
X112135000Y-84035000D03*
X100135000Y-84035000D03*
X100135000Y-86035000D03*
X118135000Y-86035000D03*
%TD*%
D53*
%TO.N,GND*%
X83535000Y-56635000D02*
X83035000Y-57135000D01*
X106045000Y-63725000D02*
X105935000Y-63835000D01*
X96022000Y-36448000D02*
X95734500Y-36735500D01*
X118747000Y-47536387D02*
X118747000Y-47192497D01*
X113951497Y-37859292D02*
X114147000Y-38054795D01*
X78435000Y-55595000D02*
X77445000Y-55595000D01*
D54*
X99134500Y-55560500D02*
X99134500Y-56735500D01*
D55*
X104909500Y-55135500D02*
X104909500Y-55635500D01*
D53*
X120909694Y-40335500D02*
X119834500Y-40335500D01*
X109634500Y-42535500D02*
X109534500Y-42635500D01*
X120134500Y-49435500D02*
X119254500Y-49435500D01*
X108335000Y-59835000D02*
X108335000Y-60725000D01*
X111535000Y-64745000D02*
X111535000Y-65835000D01*
D55*
X105409500Y-54635500D02*
X104909500Y-55135500D01*
D53*
X130434500Y-41135500D02*
X128964500Y-39665500D01*
X77445000Y-55595000D02*
X77435000Y-55585000D01*
X77650000Y-42355000D02*
X77640000Y-42345000D01*
X101335000Y-49515000D02*
X100415000Y-49515000D01*
X83535000Y-56565933D02*
X83535000Y-56635000D01*
X106015000Y-60835000D02*
X107135000Y-60835000D01*
D54*
X115034500Y-55460500D02*
X115034500Y-56635500D01*
D53*
X121234500Y-38455500D02*
X122014500Y-38455500D01*
X121094500Y-40195500D02*
X121049694Y-40195500D01*
X98534500Y-36448000D02*
X96834500Y-36448000D01*
X122014500Y-38455500D02*
X122034500Y-38435500D01*
X118647000Y-47092497D02*
X118647000Y-46023000D01*
D54*
X106334500Y-56835500D02*
X106334500Y-54935500D01*
D53*
X118747000Y-47192497D02*
X118647000Y-47092497D01*
X121049694Y-40195500D02*
X120909694Y-40335500D01*
X106784500Y-40985500D02*
X105084500Y-40985500D01*
X82024000Y-59325000D02*
X81385000Y-59325000D01*
D55*
X104909500Y-56235500D02*
X105659500Y-56235500D01*
D53*
X102134500Y-45535500D02*
X102534500Y-45935500D01*
X81330000Y-49055000D02*
X81340000Y-49045000D01*
X111436371Y-43748992D02*
X111444317Y-43756938D01*
X114147000Y-38054795D02*
X114147000Y-39148000D01*
D55*
X103434500Y-55855500D02*
X103434500Y-54835500D01*
X105434500Y-54635500D02*
X105409500Y-54635500D01*
D53*
X76245000Y-61225000D02*
X76235000Y-61235000D01*
X102534500Y-45935500D02*
X102534500Y-46135500D01*
X106045000Y-61835000D02*
X107135000Y-61835000D01*
D55*
X105659500Y-56235500D02*
X106259500Y-56835500D01*
D53*
X78440000Y-49055000D02*
X77550000Y-49055000D01*
X109534500Y-42635500D02*
X109534500Y-43355500D01*
X80340000Y-42355000D02*
X81230000Y-42355000D01*
X80340000Y-49055000D02*
X81330000Y-49055000D01*
X101334500Y-45315500D02*
X101914500Y-45315500D01*
X81230000Y-42355000D02*
X81240000Y-42345000D01*
X101914500Y-45315500D02*
X102134500Y-45535500D01*
X96834500Y-36448000D02*
X96022000Y-36448000D01*
X83435000Y-60345000D02*
X82445000Y-60345000D01*
X83773530Y-56327403D02*
X83535000Y-56565933D01*
D55*
X105834500Y-54235500D02*
X105434500Y-54635500D01*
D53*
X100415000Y-49515000D02*
X100335000Y-49435000D01*
X81225000Y-55595000D02*
X81235000Y-55585000D01*
X121134500Y-40235500D02*
X121094500Y-40195500D01*
X106045000Y-62835000D02*
X106045000Y-63725000D01*
X77550000Y-49055000D02*
X77540000Y-49045000D01*
X82234500Y-59535500D02*
X82024000Y-59325000D01*
X84369000Y-58967161D02*
X84369000Y-58135000D01*
X110634500Y-42639124D02*
X110634500Y-43355500D01*
X78540000Y-42355000D02*
X77650000Y-42355000D01*
X111664532Y-43756938D02*
X112085970Y-43335500D01*
D54*
X112634500Y-55460500D02*
X112634500Y-56635500D01*
X110234500Y-55460500D02*
X110234500Y-56635500D01*
D53*
X113806475Y-37859292D02*
X113951497Y-37859292D01*
D55*
X103434500Y-54835500D02*
X102934500Y-54335500D01*
D53*
X80235000Y-55595000D02*
X81225000Y-55595000D01*
X119254500Y-49435500D02*
X119234500Y-49415500D01*
D54*
X101734500Y-55560500D02*
X101734500Y-56735500D01*
D53*
X111444317Y-43756938D02*
X111664532Y-43756938D01*
D55*
X116734500Y-57875500D02*
X116734500Y-57135500D01*
D53*
X84337075Y-58999086D02*
X84369000Y-58967161D01*
X77135000Y-61225000D02*
X76245000Y-61225000D01*
X82445000Y-60345000D02*
X82435000Y-60335000D01*
X111054500Y-37735500D02*
X110134500Y-37735500D01*
X95734500Y-36735500D02*
X95634500Y-36835500D01*
X106045000Y-59835000D02*
X107135000Y-59835000D01*
X109685000Y-60085000D02*
X109735000Y-60035000D01*
X109685000Y-61297500D02*
X109685000Y-60085000D01*
X108434500Y-43355500D02*
X108434500Y-42535500D01*
X106794120Y-40995120D02*
X106784500Y-40985500D01*
X95634500Y-36835500D02*
X95634500Y-38035500D01*
D54*
X96534500Y-55560500D02*
X96534500Y-56635500D01*
D53*
X112085970Y-43335500D02*
X112959500Y-43335500D01*
D56*
X103163850Y-62985000D02*
X102055159Y-62985000D01*
D53*
X128964500Y-39665500D02*
X128964500Y-39354500D01*
X83035000Y-57135000D02*
X82701000Y-57135000D01*
X110569155Y-42573779D02*
X110634500Y-42639124D01*
D56*
X102055159Y-62985000D02*
X101505659Y-62435500D01*
X101505659Y-62435500D02*
X101134500Y-62435500D01*
D53*
%TO.N,+3V3*%
X112959500Y-38808740D02*
X113432740Y-38335500D01*
X119434500Y-47035500D02*
X119147000Y-46748000D01*
X120434500Y-39835500D02*
X120854500Y-39415500D01*
D55*
X112014500Y-37735500D02*
X112014500Y-38215500D01*
X112014500Y-38215500D02*
X112334500Y-38535500D01*
D53*
X112834500Y-37735500D02*
X112014500Y-37735500D01*
D56*
X101215185Y-61535500D02*
X101134500Y-61535500D01*
X102164687Y-62485002D02*
X101215185Y-61535500D01*
D53*
X113647000Y-38548000D02*
X113434500Y-38335500D01*
X126424500Y-39354500D02*
X126243500Y-39535500D01*
X126243500Y-39535500D02*
X124134500Y-39535500D01*
X119234500Y-48455500D02*
X119434500Y-48255500D01*
X122014500Y-39415500D02*
X122034500Y-39435500D01*
X119434500Y-48255500D02*
X119434500Y-47035500D01*
X113647000Y-39148000D02*
X113647000Y-38548000D01*
X119147000Y-46748000D02*
X119147000Y-46023000D01*
X106135004Y-43735577D02*
X106520081Y-43350500D01*
D56*
X103163850Y-62485002D02*
X102164687Y-62485002D01*
D53*
X120854500Y-39415500D02*
X121234500Y-39415500D01*
X120134500Y-48435500D02*
X120114500Y-48455500D01*
X120114500Y-48455500D02*
X119234500Y-48455500D01*
X113432740Y-38335500D02*
X113434500Y-38335500D01*
X121234500Y-39415500D02*
X122014500Y-39415500D01*
X112959500Y-39835500D02*
X112959500Y-38808740D01*
X119834500Y-39835500D02*
X120434500Y-39835500D01*
D54*
X117734500Y-57825500D02*
X117734500Y-57035500D01*
D53*
X106520081Y-43350500D02*
X107334500Y-43350500D01*
D54*
X117734500Y-57035500D02*
X118034500Y-56735500D01*
D53*
X113434500Y-38335500D02*
X112834500Y-37735500D01*
%TO.N,GND_BATT_CELL*%
X80932660Y-56635000D02*
X80933660Y-56636000D01*
X80933660Y-56636000D02*
X82035000Y-56636000D01*
X75234500Y-42835500D02*
X75234500Y-54735500D01*
D54*
X74835000Y-59335000D02*
X76235000Y-59335000D01*
D53*
X77235000Y-56635000D02*
X76235000Y-57635000D01*
X75234500Y-54735500D02*
X73335000Y-56635000D01*
X77235000Y-56635000D02*
X80932660Y-56635000D01*
X83635000Y-55535000D02*
X84135000Y-55535000D01*
X82035000Y-56636000D02*
X82534000Y-56636000D01*
X82035000Y-56636000D02*
X82387000Y-56636000D01*
X76235000Y-57635000D02*
X76235000Y-59335000D01*
D54*
X73335000Y-57835000D02*
X74835000Y-59335000D01*
X76235000Y-59335000D02*
X77335000Y-59335000D01*
X78401000Y-60401000D02*
X78401000Y-61634000D01*
X73335000Y-56635000D02*
X73335000Y-57835000D01*
X77335000Y-59335000D02*
X78401000Y-60401000D01*
D53*
X82534000Y-56636000D02*
X83635000Y-55535000D01*
%TO.N,Net-(U5-XTAL2)*%
X103315000Y-44315000D02*
X101335000Y-44315000D01*
X103735000Y-44385000D02*
X103385000Y-44385000D01*
X104485500Y-45135500D02*
X103735000Y-44385000D01*
X104150000Y-44020000D02*
X103935000Y-44235000D01*
X106135000Y-45835000D02*
X105435500Y-45135500D01*
X105435500Y-45135500D02*
X104485500Y-45135500D01*
X104150000Y-43714000D02*
X104150000Y-44020000D01*
X103385000Y-44385000D02*
X103315000Y-44315000D01*
%TO.N,Net-(U5-XTAL1{slash}CLKIN)*%
X106135000Y-46835000D02*
X106135000Y-47635000D01*
X103735000Y-48485000D02*
X103385000Y-48485000D01*
X103385000Y-48485000D02*
X103315000Y-48555000D01*
X103315000Y-48555000D02*
X101335000Y-48555000D01*
X105285000Y-48485000D02*
X103735000Y-48485000D01*
X104150000Y-47814000D02*
X104150000Y-47620000D01*
X106135000Y-47635000D02*
X105285000Y-48485000D01*
%TO.N,Net-(U15-VDDA)*%
X107339500Y-44315500D02*
X107334500Y-44320500D01*
X112959500Y-43835500D02*
X112199806Y-43835500D01*
X112939500Y-43815500D02*
X112959500Y-43835500D01*
X110634500Y-44315500D02*
X107339500Y-44315500D01*
X110668992Y-44349992D02*
X110634500Y-44315500D01*
X111685314Y-44349992D02*
X110668992Y-44349992D01*
X112199806Y-43835500D02*
X111685314Y-44349992D01*
%TO.N,/MCU/XTAL_1*%
X111818050Y-41835500D02*
X112959500Y-41835500D01*
X111227991Y-41370026D02*
X111228243Y-41370278D01*
X111352828Y-41370278D02*
X111818050Y-41835500D01*
X111228243Y-41370278D02*
X111352828Y-41370278D01*
%TO.N,/MCU/XTAL_2*%
X112953342Y-42329342D02*
X111419370Y-42329342D01*
X111419370Y-42329342D02*
X111259438Y-42169410D01*
X112959500Y-42335500D02*
X112953342Y-42329342D01*
D54*
%TO.N,/FETs/BATT_PWR_VCC_FUSED*%
X96534500Y-58510500D02*
X94959500Y-58510500D01*
D53*
X105835000Y-68535500D02*
X105835000Y-68135000D01*
D54*
X94959500Y-58510500D02*
X94934500Y-58535500D01*
D55*
X98706150Y-65535000D02*
X98735000Y-65563850D01*
D53*
X106997500Y-68085000D02*
X109485000Y-68085000D01*
D54*
X103434500Y-56815500D02*
X103434500Y-57835500D01*
X99134500Y-58510500D02*
X96534500Y-58510500D01*
X89535000Y-75035000D02*
X91335000Y-73235000D01*
D53*
X105835000Y-68135000D02*
X105885000Y-68085000D01*
D54*
X102759500Y-58510500D02*
X101734500Y-58510500D01*
D53*
X109485000Y-68085000D02*
X109825000Y-67745000D01*
D54*
X91335000Y-73235000D02*
X94135000Y-73235000D01*
D53*
X118334500Y-68535500D02*
X118334500Y-63435500D01*
D55*
X98735000Y-73692250D02*
X99442750Y-74400000D01*
D54*
X99134500Y-58510500D02*
X101734500Y-58510500D01*
D55*
X104909500Y-56835500D02*
X103454500Y-56835500D01*
X98735000Y-65563850D02*
X98735000Y-73692250D01*
D53*
X118334500Y-63435500D02*
X118234500Y-63335500D01*
X105885000Y-68085000D02*
X106997500Y-68085000D01*
D55*
X98706150Y-65485001D02*
X98706150Y-65535000D01*
X103454500Y-56835500D02*
X103434500Y-56815500D01*
D53*
X109825000Y-67745000D02*
X110335000Y-67745000D01*
D54*
X87335000Y-75035000D02*
X89535000Y-75035000D01*
X103434500Y-57835500D02*
X102759500Y-58510500D01*
D53*
%TO.N,/FETs/SYS_VCC*%
X106686057Y-69134500D02*
X106684057Y-69136500D01*
X110082250Y-74885000D02*
X109627250Y-74430000D01*
X107834500Y-69335500D02*
X107635500Y-69136500D01*
X107635500Y-69136500D02*
X107185943Y-69136500D01*
X100834500Y-62985443D02*
X99834057Y-61985000D01*
X108135000Y-69636000D02*
X107834500Y-69335500D01*
X99834057Y-61985000D02*
X98706150Y-61985000D01*
X97159500Y-62310500D02*
X96534500Y-62310500D01*
X108135000Y-70835000D02*
X108135000Y-69636000D01*
X115885000Y-74885000D02*
X110082250Y-74885000D01*
X107185943Y-69136500D02*
X107183943Y-69134500D01*
D54*
X128935000Y-81135000D02*
X129435000Y-80635000D01*
X118135000Y-78035000D02*
X123735000Y-78035000D01*
D53*
X106684057Y-69136500D02*
X103735500Y-69136500D01*
D54*
X126835000Y-81135000D02*
X128935000Y-81135000D01*
D53*
X100834500Y-66235500D02*
X100834500Y-62985443D01*
X98706150Y-61985000D02*
X97485000Y-61985000D01*
X97485000Y-61985000D02*
X97159500Y-62310500D01*
D54*
X123735000Y-78035000D02*
X126835000Y-81135000D01*
D53*
X103735500Y-69136500D02*
X100834500Y-66235500D01*
D54*
X129435000Y-80635000D02*
X129435000Y-80035000D01*
D53*
X107183943Y-69134500D02*
X106686057Y-69134500D01*
X107834500Y-69335500D02*
X107734500Y-69235500D01*
%TO.N,Net-(U19-BST)*%
X96959500Y-60760500D02*
X96534500Y-60760500D01*
X97683998Y-61484998D02*
X96959500Y-60760500D01*
X98706150Y-61484998D02*
X97683998Y-61484998D01*
%TO.N,Net-(U19-TMR)*%
X104502098Y-61835000D02*
X105025000Y-61835000D01*
X103163850Y-61485001D02*
X104152099Y-61485001D01*
X104152099Y-61485001D02*
X104502098Y-61835000D01*
X105055000Y-60835000D02*
X105055000Y-61805000D01*
X105055000Y-61805000D02*
X105025000Y-61835000D01*
D54*
%TO.N,/Battery/BATT_PWR_VCC*%
X84535000Y-75035000D02*
X80685000Y-75035000D01*
X80685000Y-75035000D02*
X80485000Y-74835000D01*
D55*
%TO.N,Net-(U20-FB)*%
X107959500Y-58035500D02*
X108534500Y-58035500D01*
X109509500Y-58410500D02*
X110234500Y-58410500D01*
X108534500Y-57435500D02*
X109509500Y-58410500D01*
D54*
X115034500Y-58410500D02*
X110234500Y-58410500D01*
D55*
X107959500Y-57435500D02*
X108534500Y-57435500D01*
X108534500Y-58035500D02*
X108909500Y-58410500D01*
D54*
X115809500Y-58410500D02*
X115034500Y-58410500D01*
X117724500Y-58835500D02*
X117734500Y-58845500D01*
X116734500Y-58835500D02*
X116234500Y-58835500D01*
X116734500Y-58835500D02*
X117724500Y-58835500D01*
D55*
X108909500Y-58410500D02*
X110234500Y-58410500D01*
D54*
X116234500Y-58835500D02*
X115809500Y-58410500D01*
D53*
%TO.N,Net-(D1-A-Pad1)*%
X83102500Y-40395000D02*
X81680000Y-40395000D01*
X81680000Y-40395000D02*
X81640000Y-40355000D01*
%TO.N,Net-(D1-K)*%
X84872500Y-55897500D02*
X84872500Y-54235000D01*
X84872500Y-54235000D02*
X84872500Y-52973500D01*
X83734500Y-51835500D02*
X83734500Y-51235500D01*
X84977500Y-41892500D02*
X83735000Y-43135000D01*
X84872500Y-52973500D02*
X83734500Y-51835500D01*
X84977500Y-47078500D02*
X84977500Y-47795000D01*
X83735000Y-43135000D02*
X83735000Y-45836000D01*
X84934500Y-50035500D02*
X84934500Y-47838000D01*
X83734500Y-51235500D02*
X84934500Y-50035500D01*
X83735000Y-45836000D02*
X84977500Y-47078500D01*
X84977500Y-41045000D02*
X84977500Y-41892500D01*
X84369000Y-56401000D02*
X84872500Y-55897500D01*
X84934500Y-47838000D02*
X84977500Y-47795000D01*
X84369000Y-57135000D02*
X84369000Y-56401000D01*
%TO.N,Net-(D1-A-Pad2)*%
X76940000Y-42494943D02*
X77590057Y-43145000D01*
X82140000Y-43145000D02*
X83102500Y-42182500D01*
X77590057Y-43145000D02*
X82140000Y-43145000D01*
X77240000Y-41445000D02*
X76940000Y-41745000D01*
X77240000Y-40355000D02*
X77240000Y-41445000D01*
X83102500Y-42182500D02*
X83102500Y-41695000D01*
X76940000Y-41745000D02*
X76940000Y-42494943D01*
%TO.N,Net-(D2-A-Pad1)*%
X81720000Y-47145000D02*
X81640000Y-47065000D01*
X83102500Y-47145000D02*
X81720000Y-47145000D01*
%TO.N,Net-(D2-A-Pad2)*%
X77340000Y-49745000D02*
X76740000Y-49145000D01*
X83102500Y-48445000D02*
X83102500Y-49182500D01*
X82540000Y-49745000D02*
X77340000Y-49745000D01*
X77140000Y-48145000D02*
X77140000Y-47045000D01*
X76740000Y-49145000D02*
X76740000Y-48545000D01*
X83102500Y-49182500D02*
X82540000Y-49745000D01*
X76740000Y-48545000D02*
X77140000Y-48145000D01*
%TO.N,Net-(D3-A-Pad1)*%
X82997500Y-53585000D02*
X81545000Y-53585000D01*
X81545000Y-53585000D02*
X81535000Y-53595000D01*
%TO.N,Net-(D3-A-Pad2)*%
X76735000Y-55235000D02*
X77135000Y-54835000D01*
X82335000Y-56235000D02*
X77235057Y-56235000D01*
X77135000Y-54835000D02*
X77135000Y-53595000D01*
X82997500Y-55572500D02*
X82335000Y-56235000D01*
X82997500Y-54885000D02*
X82997500Y-55572500D01*
X76735000Y-55734943D02*
X76735000Y-55235000D01*
X77235057Y-56235000D02*
X76735000Y-55734943D01*
%TO.N,Net-(D4-A)*%
X98534500Y-39425500D02*
X98534500Y-38023000D01*
%TO.N,Net-(D5-A)*%
X96834500Y-39425500D02*
X96834500Y-38023000D01*
%TO.N,/MCU/I2C2_INT*%
X120384557Y-44335500D02*
X119834500Y-44335500D01*
X124334500Y-55635500D02*
X124334500Y-51835500D01*
X122734500Y-49535500D02*
X121634500Y-48435500D01*
X124333500Y-51296443D02*
X124333500Y-52035500D01*
X122634500Y-56135500D02*
X123834500Y-56135500D01*
X124935500Y-50694443D02*
X124935500Y-50136500D01*
X121634500Y-48435500D02*
X121634500Y-45585443D01*
X124935500Y-50694443D02*
X124333500Y-51296443D01*
X124935500Y-50136500D02*
X124334500Y-49535500D01*
X121634500Y-45585443D02*
X120384557Y-44335500D01*
X124334500Y-49535500D02*
X122734500Y-49535500D01*
X123834500Y-56135500D02*
X124334500Y-55635500D01*
%TO.N,/MCU/I2C1_SDA*%
X123234500Y-43035500D02*
X123234500Y-47935500D01*
X119834500Y-42335500D02*
X122534500Y-42335500D01*
X122534500Y-42335500D02*
X123234500Y-43035500D01*
%TO.N,/MCU/I2C1_SCL*%
X122634500Y-43335500D02*
X122634500Y-46670500D01*
X119834500Y-42835500D02*
X122134500Y-42835500D01*
X122134500Y-42835500D02*
X122634500Y-43335500D01*
%TO.N,/MCU/WAKE_UP*%
X120287798Y-44835500D02*
X121136500Y-45684202D01*
X120934500Y-66035500D02*
X120434500Y-65535500D01*
X120434500Y-65535500D02*
X120434500Y-55835500D01*
X121136500Y-45684202D02*
X121136500Y-52137500D01*
X119834500Y-44835500D02*
X120287798Y-44835500D01*
X121136500Y-52137500D02*
X122634500Y-53635500D01*
X120434500Y-55835500D02*
X122634500Y-53635500D01*
%TO.N,/MCU/PWR_ON*%
X119834500Y-43835500D02*
X120734500Y-43835500D01*
X120934500Y-67435500D02*
X121234500Y-67735500D01*
X125634500Y-50835500D02*
X125634500Y-49835500D01*
X125034500Y-67035500D02*
X125634500Y-66435500D01*
X125634500Y-49835500D02*
X124834500Y-49035500D01*
X124434500Y-48635500D02*
X123434500Y-48635500D01*
X121234500Y-67735500D02*
X123634500Y-67735500D01*
X124334500Y-67735500D02*
X125034500Y-67035500D01*
X123634500Y-67735500D02*
X124334500Y-67735500D01*
X124834500Y-49035500D02*
X124434500Y-48635500D01*
X125634500Y-66435500D02*
X125634500Y-50835500D01*
X121134500Y-44235500D02*
X121084500Y-44185500D01*
X120734500Y-43835500D02*
X121134500Y-44235500D01*
%TO.N,/MCU/SWCLK*%
X127694500Y-38084500D02*
X126888650Y-37278650D01*
X122034500Y-34735500D02*
X119147000Y-37623000D01*
X119147000Y-37623000D02*
X119147000Y-39148000D01*
X125934500Y-34735500D02*
X122034500Y-34735500D01*
X126888650Y-37278650D02*
X126888650Y-35689650D01*
X126888650Y-35689650D02*
X125934500Y-34735500D01*
%TO.N,/MCU/RESET*%
X111439027Y-42948994D02*
X111448143Y-42958110D01*
X111439027Y-42948994D02*
X111439027Y-42912502D01*
X127694500Y-39354500D02*
X127694500Y-39475500D01*
X127694500Y-39475500D02*
X126734500Y-40435500D01*
X111478624Y-42958110D02*
X111601234Y-42835500D01*
X111601234Y-42835500D02*
X112959500Y-42835500D01*
X111506392Y-42845137D02*
X111506392Y-42807392D01*
X111448143Y-42958110D02*
X111478624Y-42958110D01*
X111439027Y-42912502D02*
X111506392Y-42845137D01*
%TO.N,/MCU/SWDIO*%
X121534500Y-40835500D02*
X124679199Y-37690801D01*
X126030801Y-37690801D02*
X126424500Y-38084500D01*
X119834500Y-40835500D02*
X121534500Y-40835500D01*
X124679199Y-37690801D02*
X126030801Y-37690801D01*
D54*
%TO.N,/ADC/CELL_6*%
X88435000Y-41335000D02*
X88935000Y-41835000D01*
X74335000Y-41635000D02*
X73335000Y-41635000D01*
X75885000Y-36485000D02*
X76635000Y-37235000D01*
X76635000Y-37235000D02*
X77240000Y-37235000D01*
X87935000Y-38635000D02*
X88435000Y-39135000D01*
D53*
X78596000Y-37235000D02*
X78606000Y-37245000D01*
D54*
X75885000Y-36485000D02*
X75435000Y-36935000D01*
X87172500Y-38635000D02*
X87935000Y-38635000D01*
X85035000Y-38635000D02*
X82135500Y-35735500D01*
X88435000Y-39135000D02*
X88435000Y-41335000D01*
X75435000Y-40535000D02*
X74335000Y-41635000D01*
X76634500Y-35735500D02*
X75885000Y-36485000D01*
X75435000Y-36935000D02*
X75435000Y-40535000D01*
D53*
X77240000Y-37235000D02*
X78596000Y-37235000D01*
D54*
X87172500Y-38635000D02*
X85035000Y-38635000D01*
X82135500Y-35735500D02*
X76634500Y-35735500D01*
%TO.N,/ADC/CELL_3*%
X88035000Y-51835000D02*
X87172500Y-51835000D01*
X86872500Y-51535000D02*
X87172500Y-51835000D01*
D53*
X81535000Y-51495000D02*
X82295000Y-51495000D01*
X81525000Y-51485000D02*
X81535000Y-51495000D01*
D54*
X84434500Y-51535000D02*
X86872500Y-51535000D01*
D53*
X82295000Y-51495000D02*
X82335000Y-51535000D01*
D54*
X88535000Y-52335000D02*
X88035000Y-51835000D01*
X88535000Y-55135000D02*
X88535000Y-52335000D01*
D53*
X80203000Y-51485000D02*
X81525000Y-51485000D01*
D54*
%TO.N,/ADC/CELL_4*%
X88335000Y-49835000D02*
X88335000Y-48835000D01*
X88335000Y-48835000D02*
X87172500Y-47672500D01*
D53*
X77150000Y-43945000D02*
X77140000Y-43935000D01*
D54*
X87172500Y-47435000D02*
X85072500Y-45335000D01*
D53*
X78506000Y-43945000D02*
X77150000Y-43945000D01*
X77140000Y-43935000D02*
X76235000Y-43935000D01*
X76235000Y-43935000D02*
X75935000Y-44235000D01*
X75935000Y-44235000D02*
X75935000Y-44935000D01*
D54*
X88325764Y-49844236D02*
X88335000Y-49835000D01*
X87172500Y-47672500D02*
X87172500Y-47435000D01*
X85072500Y-45335000D02*
X84535000Y-45335000D01*
%TO.N,/ADC/CELL_5*%
X87172500Y-43035000D02*
X88035000Y-43035000D01*
X86135000Y-43035000D02*
X87172500Y-43035000D01*
X88035000Y-43035000D02*
X88535000Y-43535000D01*
X84490082Y-44135000D02*
X85035000Y-44135000D01*
X84454726Y-44170356D02*
X84490082Y-44135000D01*
D53*
X81640000Y-44955000D02*
X80184000Y-44955000D01*
X80184000Y-44955000D02*
X80174000Y-44945000D01*
X82515000Y-44955000D02*
X82535000Y-44935000D01*
D54*
X88535000Y-43535000D02*
X88535000Y-46335000D01*
X85035000Y-44135000D02*
X86135000Y-43035000D01*
D53*
X81640000Y-44955000D02*
X82515000Y-44955000D01*
%TO.N,/ADC/CELL_1*%
X81375000Y-58135000D02*
X81385000Y-58145000D01*
D54*
X84635000Y-64035000D02*
X84635000Y-61335000D01*
D53*
X80019000Y-58135000D02*
X81375000Y-58135000D01*
D54*
X87172500Y-60635000D02*
X86472500Y-61335000D01*
X86472500Y-61335000D02*
X84635000Y-61335000D01*
D53*
X81385000Y-58245000D02*
X81844000Y-58245000D01*
D54*
X87135000Y-65035000D02*
X85635000Y-65035000D01*
X85635000Y-65035000D02*
X84635000Y-64035000D01*
D53*
X82234500Y-58635500D02*
X82234500Y-58769429D01*
X81844000Y-58245000D02*
X82234500Y-58635500D01*
D54*
%TO.N,/ADC/CELL_2*%
X88335000Y-58935000D02*
X88335000Y-57535000D01*
X87172500Y-55872500D02*
X87172500Y-56235000D01*
X85936000Y-54602050D02*
X85919025Y-54619025D01*
D53*
X77145000Y-50485000D02*
X77135000Y-50475000D01*
X76175000Y-50475000D02*
X76135000Y-50435000D01*
D54*
X85535000Y-53186000D02*
X85535000Y-53235000D01*
D53*
X78535000Y-50485000D02*
X77145000Y-50485000D01*
X77135000Y-50475000D02*
X76175000Y-50475000D01*
D54*
X87135000Y-56272500D02*
X87172500Y-56235000D01*
X87135000Y-56335000D02*
X87135000Y-56272500D01*
X85535000Y-53235000D02*
X85936000Y-53636000D01*
X85936000Y-53636000D02*
X85936000Y-54602050D01*
X88335000Y-57535000D02*
X87135000Y-56335000D01*
X85919025Y-54619025D02*
X87172500Y-55872500D01*
D53*
%TO.N,/ADC/CELL_7*%
X82515000Y-38255000D02*
X82535000Y-38235000D01*
X80284000Y-38255000D02*
X80274000Y-38245000D01*
X81640000Y-38255000D02*
X80284000Y-38255000D01*
X81640000Y-38255000D02*
X82515000Y-38255000D01*
%TO.N,/MCU/NTC*%
X116834500Y-50935500D02*
X116834500Y-51135500D01*
X84134500Y-69335500D02*
X80834500Y-66035500D01*
X80834500Y-66035500D02*
X77834500Y-66035500D01*
X116834500Y-47368400D02*
X116834500Y-50935500D01*
X75384000Y-63585000D02*
X73380000Y-63585000D01*
X116647000Y-46023000D02*
X116647000Y-47180900D01*
X116647000Y-47180900D02*
X116834500Y-47368400D01*
X77834500Y-66035500D02*
X75384000Y-63585000D01*
X97134500Y-69335500D02*
X84134500Y-69335500D01*
%TO.N,/ADC/BATT_CS_POS*%
X89546651Y-82023349D02*
X89335000Y-82235000D01*
X98706150Y-63984998D02*
X97483998Y-63984998D01*
X97483998Y-63984998D02*
X97335000Y-63836000D01*
X88900100Y-80035000D02*
X86735000Y-80035000D01*
X85835000Y-82235000D02*
X85935000Y-82135000D01*
X89335000Y-78635000D02*
X89534000Y-78834000D01*
X86735000Y-81335000D02*
X85835000Y-82235000D01*
X85935000Y-82135000D02*
X85935000Y-80435000D01*
X89546651Y-81952670D02*
X89546651Y-82023349D01*
X89534000Y-79401100D02*
X88900100Y-80035000D01*
X89335000Y-82235000D02*
X85835000Y-82235000D01*
X86735000Y-80035000D02*
X86735000Y-81335000D01*
X89534000Y-78834000D02*
X89534000Y-79401100D01*
%TO.N,Net-(Q1-G)*%
X103035500Y-69735500D02*
X102935000Y-69635000D01*
X100134500Y-62935500D02*
X99683999Y-62484999D01*
X100134500Y-63835500D02*
X100134500Y-62935500D01*
X100134500Y-63735500D02*
X100134500Y-63835500D01*
X106935000Y-69735500D02*
X103035500Y-69735500D01*
X99683999Y-62484999D02*
X98706150Y-62484999D01*
X98706150Y-62985000D02*
X99384000Y-62985000D01*
X100134500Y-66834500D02*
X100735000Y-67435000D01*
X100134500Y-63835500D02*
X100134500Y-66834500D01*
X102935000Y-69635000D02*
X102935000Y-72495000D01*
X106135000Y-76335000D02*
X106135000Y-77435000D01*
X99384000Y-62985000D02*
X100134500Y-63735500D01*
X102935000Y-69635000D02*
X100735000Y-67435000D01*
%TO.N,Net-(Q3-D)*%
X108335000Y-65745000D02*
X108335000Y-66235000D01*
X108335000Y-66235000D02*
X108872500Y-66772500D01*
X108872500Y-66772500D02*
X108872500Y-67435000D01*
%TO.N,Net-(Q3-G)*%
X105785000Y-66785000D02*
X105735000Y-66835000D01*
X110335000Y-66725000D02*
X111025000Y-66725000D01*
X107057500Y-66725000D02*
X106997500Y-66785000D01*
X111025000Y-66725000D02*
X111135000Y-66835000D01*
X110335000Y-66725000D02*
X110335000Y-65745000D01*
X106997500Y-66785000D02*
X105785000Y-66785000D01*
%TO.N,/FETs/DRV_PRE_FET_EN*%
X119834500Y-43335500D02*
X121034500Y-43335500D01*
X127934500Y-54135500D02*
X126434500Y-52635500D01*
X126434500Y-52635500D02*
X126434500Y-49635500D01*
X129934500Y-68035500D02*
X129934500Y-57035500D01*
X127134500Y-48135500D02*
X127134500Y-48935500D01*
X127134500Y-48935500D02*
X126434500Y-49635500D01*
X129934500Y-57035500D02*
X129934500Y-56135500D01*
X121434500Y-43335500D02*
X121534500Y-43435500D01*
X121034500Y-43335500D02*
X121434500Y-43335500D01*
X129934500Y-56135500D02*
X127934500Y-54135500D01*
X126434500Y-71535500D02*
X129934500Y-68035500D01*
%TO.N,Net-(Q5-D)*%
X110335000Y-64725000D02*
X110335000Y-63172500D01*
%TO.N,/FETs/DRV_MAIN_EN*%
X118334500Y-61835500D02*
X119634500Y-60535500D01*
X113296500Y-61297500D02*
X113834500Y-61835500D01*
X119834500Y-45635500D02*
X119834500Y-45335500D01*
X110985000Y-61297500D02*
X110985000Y-62685000D01*
X119634500Y-60535500D02*
X119634500Y-51935500D01*
X111535000Y-63235000D02*
X111535000Y-63725000D01*
X120735500Y-48635500D02*
X120735500Y-46536500D01*
X110985000Y-61297500D02*
X113296500Y-61297500D01*
X119634500Y-51935500D02*
X120734500Y-50835500D01*
X120735500Y-46536500D02*
X119834500Y-45635500D01*
X120734500Y-50835500D02*
X120734500Y-48636500D01*
X113834500Y-61835500D02*
X118334500Y-61835500D01*
X120734500Y-48636500D02*
X120735500Y-48635500D01*
X110985000Y-62685000D02*
X111535000Y-63235000D01*
%TO.N,Net-(Q6-D)*%
X104034500Y-57835500D02*
X104034500Y-59035500D01*
X104034500Y-59035500D02*
X104034500Y-59135500D01*
X104909500Y-57435500D02*
X104434500Y-57435500D01*
X104434500Y-57435500D02*
X104034500Y-57835500D01*
%TO.N,Net-(R14-Pad2)*%
X78606000Y-37745000D02*
X78040000Y-37745000D01*
X77530000Y-38255000D02*
X77240000Y-38255000D01*
X77240000Y-38255000D02*
X77240000Y-39335000D01*
X78040000Y-37745000D02*
X77530000Y-38255000D01*
%TO.N,Net-(R4-Pad1)*%
X81640000Y-39335000D02*
X82735000Y-39335000D01*
X80740000Y-37745000D02*
X81250000Y-37235000D01*
X83135000Y-38935000D02*
X83135000Y-37835000D01*
X82735000Y-39335000D02*
X83135000Y-38935000D01*
X83135000Y-37835000D02*
X82535000Y-37235000D01*
X81250000Y-37235000D02*
X81640000Y-37235000D01*
X82535000Y-37235000D02*
X81640000Y-37235000D01*
X80274000Y-37745000D02*
X80740000Y-37745000D01*
D54*
%TO.N,Net-(R10-Pad2)*%
X93097500Y-38635000D02*
X93097500Y-38772500D01*
X92686000Y-38886000D02*
X91884000Y-38886000D01*
X92835000Y-39035000D02*
X92686000Y-38886000D01*
X93097500Y-38772500D02*
X92835000Y-39035000D01*
%TO.N,Net-(R11-Pad2)*%
X93097500Y-42897500D02*
X92935000Y-42735000D01*
X93097500Y-43035000D02*
X93097500Y-42897500D01*
X92935000Y-42735000D02*
X91935000Y-42735000D01*
D53*
%TO.N,/ADC/CELL_6_M*%
X78540000Y-41335000D02*
X79430000Y-41335000D01*
X99634500Y-38235500D02*
X99534500Y-38335500D01*
X99634500Y-36935500D02*
X99634500Y-38235500D01*
X78540000Y-40355000D02*
X78540000Y-41335000D01*
X79430000Y-41335000D02*
X79440000Y-41345000D01*
%TO.N,Net-(R12-Pad2)*%
X78540000Y-38311000D02*
X78606000Y-38245000D01*
X78540000Y-39335000D02*
X78540000Y-38311000D01*
%TO.N,/ADC/CELL_7_M*%
X79540000Y-40345000D02*
X79550000Y-40355000D01*
X80340000Y-41335000D02*
X80340000Y-40355000D01*
X79550000Y-40355000D02*
X80440000Y-40355000D01*
X79440000Y-40345000D02*
X79540000Y-40345000D01*
%TO.N,Net-(R13-Pad2)*%
X79440000Y-37645000D02*
X79840000Y-37245000D01*
X80340000Y-39335000D02*
X79930000Y-39335000D01*
X79840000Y-37245000D02*
X80274000Y-37245000D01*
X79440000Y-38845000D02*
X79440000Y-37645000D01*
X79930000Y-39335000D02*
X79440000Y-38845000D01*
%TO.N,/ADC/CELL_1_M*%
X79335000Y-60335000D02*
X79345000Y-60345000D01*
X80185000Y-60345000D02*
X79345000Y-60345000D01*
X81385000Y-60345000D02*
X80185000Y-60345000D01*
%TO.N,/ADC/CELL_7_BAL*%
X119434500Y-36035500D02*
X118647000Y-36823000D01*
X118647000Y-36823000D02*
X118647000Y-39148000D01*
X119534500Y-36035500D02*
X119434500Y-36035500D01*
%TO.N,/ADC/CELL_6_BAL*%
X118147000Y-36523000D02*
X118634500Y-36035500D01*
X118634500Y-36035500D02*
X118610235Y-36011235D01*
X118147000Y-39148000D02*
X118147000Y-36523000D01*
%TO.N,/ADC/CELL_2_M*%
X78435000Y-54575000D02*
X79325000Y-54575000D01*
X95735000Y-46935000D02*
X95735000Y-48935000D01*
X79325000Y-54575000D02*
X79335000Y-54585000D01*
X78435000Y-53595000D02*
X78435000Y-54575000D01*
%TO.N,Net-(R21-Pad1)*%
X77140000Y-46025000D02*
X77140000Y-44955000D01*
X78040000Y-44445000D02*
X78506000Y-44445000D01*
X77140000Y-44955000D02*
X77530000Y-44955000D01*
X77530000Y-44955000D02*
X78040000Y-44445000D01*
%TO.N,Net-(R22-Pad1)*%
X82425000Y-46045000D02*
X83235000Y-45235000D01*
X80740000Y-44445000D02*
X80174000Y-44445000D01*
X82835000Y-43935000D02*
X81640000Y-43935000D01*
X83235000Y-44435000D02*
X82835000Y-44035000D01*
X82835000Y-44035000D02*
X82835000Y-43935000D01*
X81640000Y-43935000D02*
X81250000Y-43935000D01*
X83235000Y-45235000D02*
X83235000Y-44435000D01*
X81640000Y-46045000D02*
X82425000Y-46045000D01*
X81250000Y-43935000D02*
X80740000Y-44445000D01*
%TO.N,/ADC/CELL_3_M*%
X80235000Y-53595000D02*
X80235000Y-54575000D01*
X95035000Y-44335000D02*
X95435000Y-43935000D01*
X95435000Y-43935000D02*
X95735000Y-43935000D01*
X95535000Y-45935000D02*
X95035000Y-45435000D01*
X79345000Y-53595000D02*
X79335000Y-53585000D01*
X80235000Y-53595000D02*
X79345000Y-53595000D01*
X95735000Y-45935000D02*
X95535000Y-45935000D01*
X95035000Y-45435000D02*
X95035000Y-44335000D01*
%TO.N,Net-(R27-Pad2)*%
X78506000Y-44945000D02*
X78506000Y-45969000D01*
X78506000Y-45969000D02*
X78440000Y-46035000D01*
%TO.N,/ADC/CELL_4_M*%
X78440000Y-48035000D02*
X79435000Y-48035000D01*
X96135000Y-44935000D02*
X96435000Y-44635000D01*
X96435000Y-44635000D02*
X96435000Y-43235000D01*
X78440000Y-47055000D02*
X78440000Y-48035000D01*
X96435000Y-43235000D02*
X96164000Y-42964000D01*
X96164000Y-42964000D02*
X95735000Y-42964000D01*
X95735000Y-44935000D02*
X96135000Y-44935000D01*
%TO.N,Net-(R28-Pad2)*%
X79340000Y-45445000D02*
X79340000Y-44345000D01*
X79340000Y-44345000D02*
X79740000Y-43945000D01*
X79930000Y-46035000D02*
X79340000Y-45445000D01*
X80340000Y-46035000D02*
X79930000Y-46035000D01*
X79740000Y-43945000D02*
X80174000Y-43945000D01*
%TO.N,/ADC/CELL_5_M*%
X80340000Y-47055000D02*
X80340000Y-48035000D01*
X80340000Y-47055000D02*
X79455000Y-47055000D01*
X79455000Y-47055000D02*
X79435000Y-47035000D01*
%TO.N,/ADC/SCLK*%
X114647000Y-46023000D02*
X114647000Y-46773057D01*
X114647000Y-46773057D02*
X114434500Y-46985557D01*
X114434500Y-46985557D02*
X114434500Y-47925500D01*
%TO.N,Net-(U5-SCLK)*%
X113644500Y-48945500D02*
X113634500Y-48935500D01*
X114434500Y-48945500D02*
X113644500Y-48945500D01*
%TO.N,/ADC/MISO*%
X115147000Y-47123000D02*
X115134500Y-47135500D01*
X115147000Y-46023000D02*
X115147000Y-47123000D01*
%TO.N,Net-(U5-DIN)*%
X115934500Y-48945500D02*
X115734500Y-49145500D01*
X115734500Y-49145500D02*
X115734500Y-49835500D01*
%TO.N,/ADC/MOSI*%
X115647000Y-46476298D02*
X115734500Y-46563798D01*
X115734500Y-46563798D02*
X115734500Y-47925500D01*
X115647000Y-46023000D02*
X115647000Y-46476298D01*
D54*
%TO.N,Net-(R41-Pad2)*%
X91935000Y-47635000D02*
X92897500Y-47635000D01*
X92897500Y-47635000D02*
X93097500Y-47435000D01*
%TO.N,Net-(R42-Pad2)*%
X91835000Y-51535000D02*
X92797500Y-51535000D01*
X92797500Y-51535000D02*
X93097500Y-51835000D01*
D53*
%TO.N,/ADC/~{CS}*%
X111701600Y-40335500D02*
X110344500Y-40335500D01*
X112959500Y-40835500D02*
X112201600Y-40835500D01*
X112201600Y-40835500D02*
X111701600Y-40335500D01*
%TO.N,Net-(U5-~{CS})*%
X108434500Y-40335500D02*
X109324500Y-40335500D01*
%TO.N,Net-(U5-~{DRDY})*%
X109124500Y-41435500D02*
X108434500Y-41435500D01*
%TO.N,/ADC/~{DRDY}*%
X111568026Y-40769026D02*
X112134500Y-41335500D01*
X110344500Y-41435500D02*
X110344500Y-41403574D01*
X110344500Y-41403574D02*
X110979048Y-40769026D01*
X112134500Y-41335500D02*
X112959500Y-41335500D01*
X110979048Y-40769026D02*
X111568026Y-40769026D01*
%TO.N,/ADC/~{SYNC}*%
X111168700Y-39235500D02*
X110344500Y-39235500D01*
X112959500Y-40335500D02*
X112268700Y-40335500D01*
X112268700Y-40335500D02*
X111168700Y-39235500D01*
%TO.N,Net-(U5-~{SYNC}{slash}~{RESET})*%
X109334500Y-38335500D02*
X109334500Y-39225500D01*
X109334500Y-39225500D02*
X109324500Y-39235500D01*
%TO.N,Net-(R49-Pad1)*%
X77135000Y-51495000D02*
X77135000Y-52575000D01*
X78535000Y-50985000D02*
X78035000Y-50985000D01*
X78035000Y-50985000D02*
X77525000Y-51495000D01*
X77525000Y-51495000D02*
X77135000Y-51495000D01*
%TO.N,Net-(R50-Pad1)*%
X83034500Y-51235500D02*
X83034500Y-51835500D01*
X82274000Y-50475000D02*
X83034500Y-51235500D01*
X82295000Y-52575000D02*
X81535000Y-52575000D01*
X81025000Y-50985000D02*
X80203000Y-50985000D01*
X81535000Y-50475000D02*
X81025000Y-50985000D01*
X83034500Y-51835500D02*
X82295000Y-52575000D01*
X81535000Y-50475000D02*
X82274000Y-50475000D01*
%TO.N,/ADC/CELL_5_BAL*%
X117147000Y-39148000D02*
X117147000Y-36015100D01*
X94634500Y-36835500D02*
X94634500Y-44335500D01*
X93734500Y-45235500D02*
X91635500Y-45235500D01*
X116173700Y-35041800D02*
X96428200Y-35041800D01*
X96428200Y-35041800D02*
X94634500Y-36835500D01*
X117147000Y-36015100D02*
X116173700Y-35041800D01*
X91635500Y-45235500D02*
X90735000Y-46136000D01*
X94634500Y-44335500D02*
X93734500Y-45235500D01*
%TO.N,/ADC/CELL_4_BAL*%
X115147000Y-37018088D02*
X114373712Y-36244800D01*
X107434500Y-39668400D02*
X107735500Y-39367400D01*
X96934500Y-49635500D02*
X97834500Y-48735500D01*
X97834500Y-48735500D02*
X97834500Y-43635500D01*
X107395120Y-41224880D02*
X107434500Y-41185500D01*
X107395120Y-41244063D02*
X107395120Y-41224880D01*
X108325200Y-36244800D02*
X110534500Y-36244800D01*
X115147000Y-39148000D02*
X115147000Y-37018088D01*
X107735500Y-39367400D02*
X107735500Y-36834500D01*
X114373712Y-36244800D02*
X110025200Y-36244800D01*
X98934500Y-42535500D02*
X106103683Y-42535500D01*
X91134500Y-49635500D02*
X96934500Y-49635500D01*
X89734500Y-51035500D02*
X91134500Y-49635500D01*
X107735500Y-36834500D02*
X108325200Y-36244800D01*
X97834500Y-43635500D02*
X98934500Y-42535500D01*
X106103683Y-42535500D02*
X107395120Y-41244063D01*
X89734500Y-52535000D02*
X89734500Y-51035500D01*
X107434500Y-41185500D02*
X107434500Y-39668400D01*
%TO.N,Net-(R56-Pad2)*%
X78535000Y-51485000D02*
X78535000Y-52475000D01*
X78535000Y-52475000D02*
X78435000Y-52575000D01*
%TO.N,Net-(R57-Pad2)*%
X79635000Y-50485000D02*
X80203000Y-50485000D01*
X79725000Y-52575000D02*
X79335000Y-52185000D01*
X79335000Y-50785000D02*
X79635000Y-50485000D01*
X79335000Y-52185000D02*
X79335000Y-50785000D01*
X80235000Y-52575000D02*
X79725000Y-52575000D01*
%TO.N,Net-(R66-Pad2)*%
X82701000Y-58135000D02*
X82315340Y-58135000D01*
X80019000Y-57635000D02*
X80535000Y-57635000D01*
X82315340Y-58135000D02*
X81935000Y-57754660D01*
X81825000Y-57125000D02*
X81385000Y-57125000D01*
X81935000Y-57235000D02*
X81825000Y-57125000D01*
X81935000Y-57754660D02*
X81935000Y-57235000D01*
X81045000Y-57125000D02*
X81385000Y-57125000D01*
X80535000Y-57635000D02*
X81045000Y-57125000D01*
D54*
%TO.N,Net-(R67-Pad2)*%
X93097500Y-56235000D02*
X92035000Y-56235000D01*
X92035000Y-56235000D02*
X91735000Y-56535000D01*
%TO.N,Net-(R68-Pad2)*%
X92397500Y-61335000D02*
X91735000Y-61335000D01*
X93097500Y-60635000D02*
X92397500Y-61335000D01*
D53*
%TO.N,Net-(R69-Pad2)*%
X79135000Y-57135000D02*
X80019000Y-57135000D01*
X79325000Y-59325000D02*
X78898000Y-58898000D01*
X78898000Y-58898000D02*
X78898000Y-57372000D01*
X78898000Y-57372000D02*
X79135000Y-57135000D01*
X80185000Y-59325000D02*
X79325000Y-59325000D01*
%TO.N,/ADC/CELL_3_BAL*%
X98634500Y-44035500D02*
X98634500Y-49935500D01*
X106267981Y-43035500D02*
X99634500Y-43035500D01*
X108334500Y-37135500D02*
X108334500Y-39535500D01*
X92234500Y-54035500D02*
X90734500Y-55535500D01*
X110834500Y-36645800D02*
X108824200Y-36645800D01*
X98634500Y-49935500D02*
X94534500Y-54035500D01*
X108334500Y-39535500D02*
X107834500Y-40035500D01*
X94534500Y-54035500D02*
X92234500Y-54035500D01*
X113644800Y-36645800D02*
X110834500Y-36645800D01*
X107834500Y-41468981D02*
X106267981Y-43035500D01*
X114647000Y-39148000D02*
X114647000Y-37648000D01*
X108824200Y-36645800D02*
X108334500Y-37135500D01*
X99634500Y-43035500D02*
X98634500Y-44035500D01*
X107834500Y-40035500D02*
X107834500Y-41468981D01*
X114647000Y-37648000D02*
X113644800Y-36645800D01*
%TO.N,/ADC/CELL_2_BAL*%
X94934500Y-54435500D02*
X94934500Y-57535500D01*
X112266906Y-44335500D02*
X110534500Y-46067906D01*
X112959500Y-44335500D02*
X112266906Y-44335500D01*
X110534500Y-46067906D02*
X110534500Y-47335500D01*
X91834500Y-58335500D02*
X91734500Y-58235500D01*
X94134500Y-58335500D02*
X91834500Y-58335500D01*
X101534500Y-50835500D02*
X99834500Y-52535500D01*
X107034500Y-50835500D02*
X101534500Y-50835500D01*
X99834500Y-52535500D02*
X96834500Y-52535500D01*
X110534500Y-47335500D02*
X107034500Y-50835500D01*
X94934500Y-57535500D02*
X94134500Y-58335500D01*
X96834500Y-52535500D02*
X94934500Y-54435500D01*
%TO.N,/ADC/MEAS_CELL*%
X83435000Y-57635000D02*
X82701000Y-57635000D01*
X84099086Y-59600086D02*
X84234500Y-59735500D01*
X113834500Y-50935500D02*
X112934500Y-50035500D01*
X84369000Y-57635000D02*
X83435000Y-57635000D01*
X83435000Y-59325000D02*
X83813046Y-59325000D01*
X83834500Y-65635500D02*
X83834500Y-62335500D01*
X114147000Y-46023000D02*
X114147000Y-46705957D01*
X84088132Y-59600086D02*
X84099086Y-59600086D01*
X85634500Y-67435500D02*
X83834500Y-65635500D01*
X97134500Y-67435500D02*
X85634500Y-67435500D01*
X84234500Y-59735500D02*
X84234500Y-60885557D01*
X114147000Y-46705957D02*
X112934500Y-47918457D01*
X83813046Y-59325000D02*
X84088132Y-59600086D01*
X84234500Y-60885557D02*
X83834500Y-61285557D01*
X83435000Y-59325000D02*
X83435000Y-57635000D01*
X112934500Y-47918457D02*
X112934500Y-50035500D01*
X83834500Y-61285557D02*
X83834500Y-62335500D01*
X113834500Y-50935500D02*
X114334500Y-50935500D01*
D54*
%TO.N,Net-(R74-Pad1)*%
X79435000Y-65035000D02*
X78401000Y-64001000D01*
X78401000Y-64001000D02*
X78401000Y-62836000D01*
X93060000Y-65035000D02*
X91735000Y-65035000D01*
X81634500Y-65035000D02*
X79435000Y-65035000D01*
D53*
%TO.N,/ADC/CELL_1_BAL*%
X78944000Y-62245000D02*
X77135000Y-62245000D01*
X79234500Y-63235500D02*
X79234500Y-62535500D01*
X81734500Y-63635500D02*
X79634500Y-63635500D01*
X116147000Y-46023000D02*
X116147000Y-47248000D01*
X84834500Y-68435500D02*
X82634500Y-66235500D01*
X116434500Y-47535500D02*
X116434500Y-50335500D01*
X77245000Y-62235000D02*
X77235000Y-62245000D01*
X97134500Y-68435500D02*
X97334500Y-68435500D01*
X97334500Y-68335500D02*
X97234500Y-68435500D01*
X79634500Y-63635500D02*
X79234500Y-63235500D01*
X82634500Y-66235500D02*
X82634500Y-64535500D01*
X116147000Y-47248000D02*
X116434500Y-47535500D01*
X78401000Y-62235000D02*
X77245000Y-62235000D01*
X79234500Y-62535500D02*
X78944000Y-62245000D01*
X97234500Y-68435500D02*
X84834500Y-68435500D01*
X82634500Y-64535500D02*
X81734500Y-63635500D01*
X116434500Y-50335500D02*
X115834500Y-50935500D01*
%TO.N,/ADC/MEAS_BAT*%
X87229200Y-34640800D02*
X87034500Y-34835500D01*
X116339800Y-34640800D02*
X112334500Y-34640800D01*
X84834500Y-37035500D02*
X87034500Y-34835500D01*
X93734500Y-34640800D02*
X113139800Y-34640800D01*
X117034500Y-35335500D02*
X116339800Y-34640800D01*
X117647000Y-35948000D02*
X117647000Y-39148000D01*
X117034500Y-35335500D02*
X117647000Y-35948000D01*
X93734500Y-34640800D02*
X87229200Y-34640800D01*
%TO.N,/MCU/BOOT0*%
X115647000Y-36668145D02*
X115547000Y-36568145D01*
X115647000Y-39148000D02*
X115647000Y-36668145D01*
%TO.N,/MCU/I2C2_SDA*%
X119334500Y-50885557D02*
X119334500Y-50935500D01*
X118147000Y-46023000D02*
X118147000Y-47235500D01*
X118147000Y-49698057D02*
X119334500Y-50885557D01*
X118147000Y-47235500D02*
X118147000Y-49698057D01*
%TO.N,/MCU/I2C2_SCL*%
X117647000Y-46023000D02*
X117647000Y-47535500D01*
X117647000Y-50048000D02*
X118534500Y-50935500D01*
X117647000Y-47535500D02*
X117647000Y-50048000D01*
%TO.N,Net-(U19-EN{slash}UVLO)*%
X106484999Y-65485001D02*
X107245000Y-64725000D01*
X108335000Y-64725000D02*
X108335000Y-63745000D01*
X107245000Y-64725000D02*
X108335000Y-64725000D01*
X103163850Y-65485001D02*
X106484999Y-65485001D01*
%TO.N,Net-(U19-OV)*%
X108335000Y-62725000D02*
X108335000Y-61745000D01*
X107445000Y-62725000D02*
X108335000Y-62725000D01*
X105984998Y-64985002D02*
X107135000Y-63835000D01*
X107135000Y-63035000D02*
X107445000Y-62725000D01*
X107135000Y-63835000D02*
X107135000Y-63035000D01*
X103163850Y-64985002D02*
X105984998Y-64985002D01*
%TO.N,Net-(U19-SCP_TEST)*%
X103735000Y-59835000D02*
X103163850Y-60406150D01*
X105025000Y-59835000D02*
X103735000Y-59835000D01*
X103163850Y-60406150D02*
X103163850Y-60984999D01*
%TO.N,Net-(U19-ISCP)*%
X104535000Y-62835000D02*
X105025000Y-62835000D01*
X104335000Y-62235002D02*
X104335000Y-62635000D01*
X104335000Y-62635000D02*
X104535000Y-62835000D01*
X103163850Y-61985000D02*
X104084998Y-61985000D01*
X104084998Y-61985000D02*
X104335000Y-62235002D01*
%TO.N,/MCU/CAN_RX*%
X127734500Y-52135500D02*
X127734500Y-46235500D01*
X130534500Y-52535500D02*
X129934500Y-53135500D01*
X130534500Y-52135500D02*
X130534500Y-52535500D01*
X129934500Y-53135500D02*
X128734500Y-53135500D01*
X122734500Y-41835500D02*
X119834500Y-41835500D01*
X127734500Y-46235500D02*
X125334500Y-43835500D01*
X124734500Y-43835500D02*
X122734500Y-41835500D01*
X125334500Y-43835500D02*
X124734500Y-43835500D01*
X128734500Y-53135500D02*
X127734500Y-52135500D01*
%TO.N,/FETs/~{DRV_FLT}*%
X112506202Y-44835500D02*
X111234500Y-46107202D01*
X112959500Y-44835500D02*
X112506202Y-44835500D01*
X111234500Y-46107202D02*
X111234500Y-48235500D01*
X103163850Y-63485000D02*
X101684003Y-63485000D01*
X111234500Y-48235500D02*
X109134500Y-50335500D01*
X109134500Y-50335500D02*
X109134500Y-50935500D01*
X101684003Y-63485000D02*
X101610237Y-63411234D01*
%TO.N,/FETs/DRV_FET_EN*%
X112959500Y-45335500D02*
X112959500Y-45710500D01*
X110434500Y-50135500D02*
X110434500Y-50935500D01*
X111834500Y-48735500D02*
X110434500Y-50135500D01*
X101884000Y-64485000D02*
X101634500Y-64235500D01*
X112959500Y-45710500D02*
X111834500Y-46835500D01*
X111834500Y-46835500D02*
X111834500Y-48735500D01*
X103163850Y-64485000D02*
X101884000Y-64485000D01*
%TO.N,/MCU/PWR_PG*%
X109983943Y-59434000D02*
X108783943Y-59434000D01*
X108783943Y-59434000D02*
X108285443Y-58935500D01*
X118734500Y-59435500D02*
X118234500Y-59935500D01*
X110434500Y-59935500D02*
X110434500Y-59884557D01*
X108285443Y-58935500D02*
X105334500Y-58935500D01*
X117147000Y-46023000D02*
X117134500Y-46035500D01*
X104909500Y-58510500D02*
X104909500Y-58035500D01*
X117235500Y-50486557D02*
X118734500Y-51985557D01*
X110434500Y-59884557D02*
X109983943Y-59434000D01*
X118734500Y-51985557D02*
X118734500Y-59435500D01*
X105334500Y-58935500D02*
X104909500Y-58510500D01*
X117134500Y-46835500D02*
X117235500Y-46936500D01*
X117134500Y-46035500D02*
X117134500Y-46835500D01*
X118234500Y-59935500D02*
X110434500Y-59935500D01*
X117235500Y-46936500D02*
X117235500Y-50486557D01*
%TO.N,/MCU/CAN_TX*%
X119834500Y-41335500D02*
X122934500Y-41335500D01*
X128584500Y-51485500D02*
X128559500Y-51460500D01*
X125834500Y-43135500D02*
X128584500Y-45885500D01*
X124734500Y-43135500D02*
X125834500Y-43135500D01*
X128584500Y-45885500D02*
X128584500Y-51485500D01*
X122934500Y-41335500D02*
X124734500Y-43135500D01*
%TO.N,/FETs/DRV_FLT_GD*%
X113647000Y-46523000D02*
X112334500Y-47835500D01*
X113647000Y-46023000D02*
X113647000Y-46523000D01*
X112334500Y-49435500D02*
X111234500Y-50535500D01*
X112334500Y-47835500D02*
X112334500Y-49435500D01*
X104884999Y-63985001D02*
X104934500Y-63935500D01*
X103163850Y-63985001D02*
X104884999Y-63985001D01*
X111234500Y-50535500D02*
X111234500Y-50935500D01*
%TO.N,SYS_GND*%
X90346390Y-82046390D02*
X90535000Y-82235000D01*
X93935000Y-82135000D02*
X94035000Y-82235000D01*
X94035000Y-80735000D02*
X94035000Y-82235000D01*
X97486003Y-64485000D02*
X97335000Y-64636003D01*
X90535000Y-82235000D02*
X94035000Y-82235000D01*
X93535000Y-80235000D02*
X94035000Y-80735000D01*
X94035000Y-80935000D02*
X94035000Y-82235000D01*
X98706150Y-64485000D02*
X97486003Y-64485000D01*
X93935000Y-80435000D02*
X93935000Y-82135000D01*
X90346390Y-81932141D02*
X90346390Y-82046390D01*
X90735000Y-80035000D02*
X93135000Y-80035000D01*
X89935000Y-79235000D02*
X90735000Y-80035000D01*
X93135000Y-80035000D02*
X94035000Y-80935000D01*
X89935000Y-78835003D02*
X89935000Y-79235000D01*
X90135003Y-78635000D02*
X89935000Y-78835003D01*
%TO.N,/MCU/UART1_TX{slash}LED_G*%
X102584500Y-37585500D02*
X102584500Y-40785500D01*
X102584500Y-40985500D02*
X101584500Y-40985500D01*
X116647000Y-39148000D02*
X116647000Y-36197660D01*
X116647000Y-36197660D02*
X115892140Y-35442800D01*
X101044500Y-40445500D02*
X98534500Y-40445500D01*
X104727200Y-35442800D02*
X102584500Y-37585500D01*
X115892140Y-35442800D02*
X104727200Y-35442800D01*
X101584500Y-40985500D02*
X101044500Y-40445500D01*
%TO.N,/MCU/UART1_RX{slash}LED_R*%
X103834500Y-38135500D02*
X103834500Y-40985500D01*
X97434500Y-41535500D02*
X96834500Y-40935500D01*
X106126200Y-35843800D02*
X103834500Y-38135500D01*
X103434500Y-42135500D02*
X100334500Y-42135500D01*
X115726040Y-35843800D02*
X106126200Y-35843800D01*
X116147000Y-36264760D02*
X115726040Y-35843800D01*
X103834500Y-41735500D02*
X103434500Y-42135500D01*
X99734500Y-41535500D02*
X97434500Y-41535500D01*
X103834500Y-40985500D02*
X103834500Y-41735500D01*
X116147000Y-39148000D02*
X116147000Y-36264760D01*
X100334500Y-42135500D02*
X99734500Y-41535500D01*
X96834500Y-40935500D02*
X96834500Y-40445500D01*
%TD*%
%TA.AperFunction,Conductor*%
%TO.N,SYS_GND*%
G36*
X94643059Y-75836061D02*
G01*
X94748223Y-75849906D01*
X94779491Y-75858284D01*
X94869918Y-75895740D01*
X94897952Y-75911925D01*
X94975602Y-75971509D01*
X94998491Y-75994398D01*
X95058074Y-76072048D01*
X95074259Y-76100081D01*
X95111715Y-76190508D01*
X95120093Y-76221775D01*
X95133939Y-76326939D01*
X95135000Y-76343125D01*
X95135000Y-80035000D01*
X93135000Y-80035000D01*
X93135000Y-76343125D01*
X93136061Y-76326940D01*
X93149906Y-76221776D01*
X93149906Y-76221775D01*
X93158284Y-76190508D01*
X93195740Y-76100081D01*
X93211923Y-76072050D01*
X93271513Y-75994392D01*
X93294392Y-75971513D01*
X93372050Y-75911923D01*
X93400079Y-75895740D01*
X93490509Y-75858283D01*
X93521775Y-75849906D01*
X93626941Y-75836061D01*
X93643126Y-75835000D01*
X94626874Y-75835000D01*
X94643059Y-75836061D01*
G37*
%TD.AperFunction*%
%TD*%
%TA.AperFunction,Conductor*%
%TO.N,/Battery/BATT_PWR_VCC*%
G36*
X84843059Y-70236061D02*
G01*
X84948223Y-70249906D01*
X84979491Y-70258284D01*
X85069918Y-70295740D01*
X85097952Y-70311925D01*
X85175602Y-70371509D01*
X85198491Y-70394398D01*
X85258074Y-70472048D01*
X85274259Y-70500081D01*
X85311715Y-70590508D01*
X85320093Y-70621775D01*
X85333939Y-70726939D01*
X85335000Y-70743125D01*
X85335000Y-78126874D01*
X85333939Y-78143059D01*
X85333939Y-78143060D01*
X85320093Y-78248224D01*
X85311715Y-78279491D01*
X85274259Y-78369918D01*
X85258074Y-78397951D01*
X85198491Y-78475601D01*
X85175601Y-78498491D01*
X85097951Y-78558074D01*
X85069918Y-78574259D01*
X84979491Y-78611715D01*
X84948224Y-78620093D01*
X84854398Y-78632446D01*
X84843058Y-78633939D01*
X84826874Y-78635000D01*
X76443126Y-78635000D01*
X76426941Y-78633939D01*
X76413917Y-78632224D01*
X76321775Y-78620093D01*
X76290508Y-78611715D01*
X76200081Y-78574259D01*
X76172048Y-78558074D01*
X76094398Y-78498491D01*
X76071508Y-78475601D01*
X76011925Y-78397951D01*
X75995740Y-78369918D01*
X75958284Y-78279491D01*
X75949906Y-78248223D01*
X75936061Y-78143059D01*
X75935000Y-78126874D01*
X75935000Y-72383068D01*
X75942817Y-72339737D01*
X75979091Y-72242483D01*
X75985500Y-72182873D01*
X75985499Y-71187128D01*
X75979091Y-71127517D01*
X75942818Y-71030263D01*
X75941802Y-71024633D01*
X75940023Y-71021865D01*
X75935000Y-70986930D01*
X75935000Y-70743125D01*
X75936061Y-70726940D01*
X75949906Y-70621776D01*
X75958284Y-70590508D01*
X75995740Y-70500081D01*
X76011923Y-70472050D01*
X76071513Y-70394392D01*
X76094392Y-70371513D01*
X76172050Y-70311923D01*
X76200079Y-70295740D01*
X76290509Y-70258283D01*
X76321775Y-70249906D01*
X76426941Y-70236061D01*
X76443126Y-70235000D01*
X84826874Y-70235000D01*
X84843059Y-70236061D01*
G37*
%TD.AperFunction*%
%TD*%
%TA.AperFunction,Conductor*%
%TO.N,/FETs/SYS_VCC*%
G36*
X120043059Y-70236061D02*
G01*
X120148223Y-70249906D01*
X120179491Y-70258284D01*
X120269918Y-70295740D01*
X120297952Y-70311925D01*
X120375602Y-70371509D01*
X120398491Y-70394398D01*
X120458074Y-70472048D01*
X120474259Y-70500081D01*
X120511715Y-70590508D01*
X120520093Y-70621775D01*
X120533939Y-70726939D01*
X120535000Y-70743125D01*
X120535000Y-70876102D01*
X120515315Y-70943141D01*
X120510267Y-70950413D01*
X120441203Y-71042669D01*
X120441202Y-71042671D01*
X120390908Y-71177517D01*
X120384501Y-71237116D01*
X120384500Y-71237135D01*
X120384500Y-72232870D01*
X120384501Y-72232876D01*
X120390908Y-72292483D01*
X120441202Y-72427328D01*
X120441204Y-72427331D01*
X120510266Y-72519586D01*
X120534684Y-72585050D01*
X120535000Y-72593897D01*
X120535000Y-72835000D01*
X121826874Y-72835000D01*
X121843059Y-72836061D01*
X121948223Y-72849906D01*
X121979491Y-72858284D01*
X122069918Y-72895740D01*
X122097952Y-72911925D01*
X122175602Y-72971509D01*
X122198491Y-72994398D01*
X122258074Y-73072048D01*
X122274259Y-73100081D01*
X122311715Y-73190508D01*
X122320093Y-73221775D01*
X122333939Y-73326939D01*
X122335000Y-73343125D01*
X122335000Y-77976874D01*
X122333939Y-77993059D01*
X122333939Y-77993060D01*
X122320093Y-78098224D01*
X122311715Y-78129491D01*
X122274259Y-78219918D01*
X122258074Y-78247951D01*
X122198491Y-78325601D01*
X122175601Y-78348491D01*
X122097951Y-78408074D01*
X122069918Y-78424259D01*
X121979491Y-78461715D01*
X121948224Y-78470093D01*
X121854398Y-78482446D01*
X121843058Y-78483939D01*
X121826874Y-78485000D01*
X107843126Y-78485000D01*
X107826941Y-78483939D01*
X107813917Y-78482224D01*
X107721775Y-78470093D01*
X107690508Y-78461715D01*
X107600081Y-78424259D01*
X107572048Y-78408074D01*
X107494398Y-78348491D01*
X107471508Y-78325601D01*
X107411925Y-78247951D01*
X107395740Y-78219918D01*
X107358284Y-78129491D01*
X107349906Y-78098223D01*
X107336061Y-77993059D01*
X107335000Y-77976874D01*
X107335000Y-77478601D01*
X107354685Y-77411562D01*
X107407489Y-77365807D01*
X107476647Y-77355863D01*
X107540203Y-77384888D01*
X107563316Y-77411563D01*
X107643094Y-77535702D01*
X107751726Y-77629832D01*
X107751727Y-77629833D01*
X107882471Y-77689543D01*
X107882475Y-77689544D01*
X108024751Y-77709999D01*
X108024753Y-77710000D01*
X108929750Y-77710000D01*
X108929752Y-77709999D01*
X109001620Y-77704859D01*
X109139531Y-77664365D01*
X109260453Y-77586654D01*
X109354582Y-77478023D01*
X109354583Y-77478022D01*
X109414293Y-77347278D01*
X109414294Y-77347274D01*
X109418021Y-77321353D01*
X109447046Y-77257798D01*
X109505824Y-77220023D01*
X109540759Y-77215000D01*
X112129750Y-77215000D01*
X112129752Y-77214999D01*
X112201620Y-77209859D01*
X112339531Y-77169365D01*
X112460453Y-77091654D01*
X112525580Y-77016495D01*
X112554582Y-76983023D01*
X112554583Y-76983022D01*
X112614293Y-76852278D01*
X112614294Y-76852274D01*
X112634749Y-76709998D01*
X112634750Y-76709997D01*
X112634750Y-75960000D01*
X112634749Y-75959997D01*
X112629609Y-75888129D01*
X112589115Y-75750218D01*
X112511404Y-75629296D01*
X112402773Y-75535167D01*
X112402772Y-75535166D01*
X112272024Y-75475455D01*
X112272021Y-75475454D01*
X112266100Y-75474603D01*
X112202545Y-75445577D01*
X112164772Y-75386798D01*
X112159750Y-75351866D01*
X112159750Y-74741790D01*
X113335000Y-74741790D01*
X113335000Y-75028209D01*
X113367066Y-75312801D01*
X113367068Y-75312817D01*
X113430799Y-75592042D01*
X113430803Y-75592054D01*
X113525396Y-75862383D01*
X113629916Y-76079422D01*
X114560034Y-75149305D01*
X114568242Y-75201126D01*
X114633906Y-75403220D01*
X114730377Y-75592554D01*
X114855278Y-75764466D01*
X115005534Y-75914722D01*
X115177446Y-76039623D01*
X115366780Y-76136094D01*
X115568874Y-76201758D01*
X115620693Y-76209965D01*
X114690577Y-77140081D01*
X114907612Y-77244601D01*
X114907626Y-77244607D01*
X115177945Y-77339196D01*
X115177957Y-77339200D01*
X115457182Y-77402931D01*
X115457198Y-77402933D01*
X115741790Y-77434999D01*
X115741792Y-77435000D01*
X116028208Y-77435000D01*
X116028209Y-77434999D01*
X116312801Y-77402933D01*
X116312817Y-77402931D01*
X116592042Y-77339200D01*
X116592054Y-77339196D01*
X116862373Y-77244607D01*
X116862387Y-77244601D01*
X117079421Y-77140081D01*
X116149305Y-76209965D01*
X116201126Y-76201758D01*
X116403220Y-76136094D01*
X116592554Y-76039623D01*
X116764466Y-75914722D01*
X116914722Y-75764466D01*
X117039623Y-75592554D01*
X117136094Y-75403220D01*
X117201758Y-75201126D01*
X117209965Y-75149305D01*
X118140081Y-76079421D01*
X118244601Y-75862387D01*
X118244607Y-75862373D01*
X118339196Y-75592054D01*
X118339200Y-75592042D01*
X118402931Y-75312817D01*
X118402933Y-75312801D01*
X118434999Y-75028209D01*
X118435000Y-75028207D01*
X118435000Y-74741792D01*
X118434999Y-74741790D01*
X118402933Y-74457198D01*
X118402931Y-74457182D01*
X118339200Y-74177957D01*
X118339196Y-74177945D01*
X118244607Y-73907626D01*
X118244601Y-73907612D01*
X118140081Y-73690577D01*
X117209965Y-74620693D01*
X117201758Y-74568874D01*
X117136094Y-74366780D01*
X117039623Y-74177446D01*
X116914722Y-74005534D01*
X116764466Y-73855278D01*
X116592554Y-73730377D01*
X116403220Y-73633906D01*
X116201126Y-73568242D01*
X116149305Y-73560034D01*
X117079422Y-72629916D01*
X116862383Y-72525396D01*
X116592054Y-72430803D01*
X116592042Y-72430799D01*
X116312817Y-72367068D01*
X116312801Y-72367066D01*
X116028209Y-72335000D01*
X115741790Y-72335000D01*
X115457198Y-72367066D01*
X115457182Y-72367068D01*
X115177957Y-72430799D01*
X115177945Y-72430803D01*
X114907616Y-72525396D01*
X114690577Y-72629916D01*
X114690577Y-72629917D01*
X115620694Y-73560034D01*
X115568874Y-73568242D01*
X115366780Y-73633906D01*
X115177446Y-73730377D01*
X115005534Y-73855278D01*
X114855278Y-74005534D01*
X114730377Y-74177446D01*
X114633906Y-74366780D01*
X114568242Y-74568874D01*
X114560034Y-74620694D01*
X113629917Y-73690577D01*
X113629916Y-73690577D01*
X113525396Y-73907616D01*
X113430803Y-74177945D01*
X113430799Y-74177957D01*
X113367068Y-74457182D01*
X113367066Y-74457198D01*
X113335000Y-74741790D01*
X112159750Y-74741790D01*
X112159750Y-73504979D01*
X112179435Y-73437940D01*
X112232239Y-73392185D01*
X112248815Y-73386002D01*
X112339531Y-73359365D01*
X112460453Y-73281654D01*
X112554582Y-73173023D01*
X112554583Y-73173022D01*
X112614293Y-73042278D01*
X112614294Y-73042274D01*
X112634749Y-72899998D01*
X112634750Y-72899997D01*
X112634750Y-72150000D01*
X112634749Y-72149997D01*
X112629609Y-72078129D01*
X112589115Y-71940218D01*
X112511404Y-71819296D01*
X112402773Y-71725167D01*
X112402772Y-71725166D01*
X112272028Y-71665456D01*
X112272024Y-71665455D01*
X112129748Y-71645000D01*
X109540602Y-71645000D01*
X109473563Y-71625315D01*
X109427808Y-71572511D01*
X109421625Y-71555935D01*
X109389115Y-71445218D01*
X109311404Y-71324296D01*
X109202773Y-71230167D01*
X109202772Y-71230166D01*
X109072028Y-71170456D01*
X109072024Y-71170455D01*
X108929748Y-71150000D01*
X108024747Y-71150000D01*
X107952879Y-71155140D01*
X107814968Y-71195634D01*
X107694046Y-71273345D01*
X107599917Y-71381976D01*
X107599916Y-71381977D01*
X107571794Y-71443556D01*
X107526039Y-71496360D01*
X107459000Y-71516044D01*
X107391960Y-71496359D01*
X107346205Y-71443555D01*
X107335000Y-71392044D01*
X107335000Y-70743125D01*
X107336061Y-70726940D01*
X107349906Y-70621776D01*
X107349906Y-70621775D01*
X107358284Y-70590508D01*
X107395740Y-70500081D01*
X107411923Y-70472050D01*
X107471513Y-70394392D01*
X107494392Y-70371513D01*
X107572050Y-70311923D01*
X107600079Y-70295740D01*
X107690509Y-70258283D01*
X107721775Y-70249906D01*
X107826941Y-70236061D01*
X107843126Y-70235000D01*
X120026874Y-70235000D01*
X120043059Y-70236061D01*
G37*
%TD.AperFunction*%
%TD*%
%TA.AperFunction,Conductor*%
%TO.N,Net-(Q1-S-Pad1)*%
G36*
X106422273Y-70355685D02*
G01*
X106424124Y-70356897D01*
X106424711Y-70357289D01*
X106500665Y-70408039D01*
X106503152Y-70410369D01*
X106504897Y-70410997D01*
X106530149Y-70435655D01*
X106558074Y-70472048D01*
X106574259Y-70500081D01*
X106611715Y-70590508D01*
X106620093Y-70621775D01*
X106633939Y-70726939D01*
X106635000Y-70743125D01*
X106635000Y-75222789D01*
X106632617Y-75246980D01*
X106616976Y-75325612D01*
X106598461Y-75370312D01*
X106575690Y-75404391D01*
X106522078Y-75449196D01*
X106472588Y-75459500D01*
X105766885Y-75459500D01*
X105697576Y-75465798D01*
X105697571Y-75465799D01*
X105538062Y-75515504D01*
X105538060Y-75515505D01*
X105535395Y-75517117D01*
X105532991Y-75517787D01*
X105531223Y-75518583D01*
X105531101Y-75518313D01*
X105471246Y-75535000D01*
X105335000Y-75535000D01*
X105335000Y-75610659D01*
X105315315Y-75677698D01*
X105298681Y-75698340D01*
X105276939Y-75720081D01*
X105276935Y-75720086D01*
X105190505Y-75863060D01*
X105190503Y-75863064D01*
X105140799Y-76022572D01*
X105134500Y-76091895D01*
X105134500Y-76578114D01*
X105140798Y-76647423D01*
X105140799Y-76647428D01*
X105190504Y-76806937D01*
X105190505Y-76806939D01*
X105276935Y-76949913D01*
X105276939Y-76949918D01*
X105298681Y-76971660D01*
X105332166Y-77032983D01*
X105335000Y-77059341D01*
X105335000Y-77353644D01*
X105334500Y-77356158D01*
X105334500Y-77513842D01*
X105335000Y-77516355D01*
X105335000Y-78026874D01*
X105333939Y-78043060D01*
X105320093Y-78148224D01*
X105311715Y-78179491D01*
X105274259Y-78269918D01*
X105258074Y-78297951D01*
X105198491Y-78375601D01*
X105175601Y-78398491D01*
X105097951Y-78458074D01*
X105069918Y-78474259D01*
X104979491Y-78511715D01*
X104948224Y-78520093D01*
X104854398Y-78532446D01*
X104843058Y-78533939D01*
X104826874Y-78535000D01*
X102943126Y-78535000D01*
X102926941Y-78533939D01*
X102913917Y-78532224D01*
X102821775Y-78520093D01*
X102790508Y-78511715D01*
X102700081Y-78474259D01*
X102672048Y-78458074D01*
X102594398Y-78398491D01*
X102571508Y-78375601D01*
X102511925Y-78297951D01*
X102495740Y-78269918D01*
X102458284Y-78179491D01*
X102449906Y-78148223D01*
X102436061Y-78043059D01*
X102435000Y-78026874D01*
X102435000Y-73843125D01*
X102436061Y-73826940D01*
X102449906Y-73721776D01*
X102458284Y-73690508D01*
X102495740Y-73600081D01*
X102511923Y-73572050D01*
X102571513Y-73494392D01*
X102594392Y-73471513D01*
X102672053Y-73411921D01*
X102700077Y-73395741D01*
X102738232Y-73379937D01*
X102785677Y-73370499D01*
X103303106Y-73370499D01*
X103303113Y-73370499D01*
X103372419Y-73364202D01*
X103372421Y-73364201D01*
X103372426Y-73364201D01*
X103448117Y-73340614D01*
X103485006Y-73335000D01*
X103735000Y-73335000D01*
X103735000Y-73219341D01*
X103754685Y-73152302D01*
X103771319Y-73131660D01*
X103793060Y-73109919D01*
X103879495Y-72966938D01*
X103929201Y-72807426D01*
X103935500Y-72738107D01*
X103935499Y-72251894D01*
X103935499Y-72251893D01*
X103935499Y-72251885D01*
X103929201Y-72182576D01*
X103929200Y-72182571D01*
X103879495Y-72023062D01*
X103879494Y-72023060D01*
X103793064Y-71880086D01*
X103793060Y-71880081D01*
X103771319Y-71858340D01*
X103737834Y-71797017D01*
X103735000Y-71770659D01*
X103735000Y-70743125D01*
X103736061Y-70726940D01*
X103749906Y-70621776D01*
X103749906Y-70621775D01*
X103758284Y-70590508D01*
X103795740Y-70500081D01*
X103811923Y-70472050D01*
X103871513Y-70394392D01*
X103894397Y-70371509D01*
X103907283Y-70361621D01*
X103972453Y-70336430D01*
X103982766Y-70336000D01*
X106355234Y-70336000D01*
X106422273Y-70355685D01*
G37*
%TD.AperFunction*%
%TD*%
%TA.AperFunction,Conductor*%
%TO.N,/FETs/BATT_PWR_VCC_FUSED*%
G36*
X101437057Y-70236076D02*
G01*
X101543009Y-70250134D01*
X101574498Y-70258639D01*
X101665498Y-70296654D01*
X101693679Y-70313076D01*
X101771618Y-70373505D01*
X101794536Y-70396701D01*
X101829263Y-70442623D01*
X101854023Y-70475365D01*
X101870103Y-70503741D01*
X101907019Y-70595191D01*
X101915144Y-70626780D01*
X101927923Y-70732889D01*
X101928804Y-70749210D01*
X101918747Y-71583853D01*
X101908711Y-71616566D01*
X101899071Y-71649399D01*
X101898483Y-71649907D01*
X101898256Y-71650650D01*
X101872140Y-71672734D01*
X101846267Y-71695154D01*
X101845497Y-71695264D01*
X101844905Y-71695766D01*
X101811013Y-71700222D01*
X101777109Y-71705097D01*
X101776129Y-71704809D01*
X101775631Y-71704875D01*
X101743244Y-71695153D01*
X101614097Y-71636173D01*
X101561293Y-71590418D01*
X101546632Y-71558314D01*
X101504615Y-71415218D01*
X101426904Y-71294296D01*
X101318273Y-71200167D01*
X101318272Y-71200166D01*
X101187528Y-71140456D01*
X101187524Y-71140455D01*
X101045248Y-71120000D01*
X100140247Y-71120000D01*
X100068379Y-71125140D01*
X99930468Y-71165634D01*
X99809546Y-71243345D01*
X99715417Y-71351976D01*
X99715416Y-71351977D01*
X99655706Y-71482721D01*
X99655705Y-71482725D01*
X99651979Y-71508647D01*
X99622954Y-71572202D01*
X99564176Y-71609977D01*
X99529241Y-71615000D01*
X96940247Y-71615000D01*
X96868379Y-71620140D01*
X96730468Y-71660634D01*
X96609546Y-71738345D01*
X96515417Y-71846976D01*
X96515416Y-71846977D01*
X96455706Y-71977721D01*
X96455705Y-71977725D01*
X96435250Y-72120001D01*
X96435250Y-72870002D01*
X96440390Y-72941870D01*
X96480884Y-73079781D01*
X96558595Y-73200703D01*
X96667226Y-73294832D01*
X96667227Y-73294833D01*
X96797971Y-73354543D01*
X96797977Y-73354544D01*
X96803893Y-73355395D01*
X96867449Y-73384417D01*
X96905226Y-73443194D01*
X96910250Y-73478133D01*
X96910250Y-75325020D01*
X96890565Y-75392059D01*
X96837761Y-75437814D01*
X96821186Y-75443997D01*
X96730468Y-75470634D01*
X96609546Y-75548345D01*
X96515417Y-75656976D01*
X96515416Y-75656977D01*
X96455706Y-75787721D01*
X96455705Y-75787725D01*
X96435250Y-75930001D01*
X96435250Y-76680002D01*
X96440390Y-76751870D01*
X96480884Y-76889781D01*
X96558595Y-77010703D01*
X96667226Y-77104832D01*
X96667227Y-77104833D01*
X96797971Y-77164543D01*
X96797975Y-77164544D01*
X96940251Y-77184999D01*
X96940253Y-77185000D01*
X99529398Y-77185000D01*
X99596437Y-77204685D01*
X99642192Y-77257489D01*
X99648375Y-77274065D01*
X99680884Y-77384781D01*
X99758595Y-77505703D01*
X99867226Y-77599832D01*
X99867227Y-77599833D01*
X99997971Y-77659543D01*
X99997975Y-77659544D01*
X100140251Y-77679999D01*
X100140253Y-77680000D01*
X101045250Y-77680000D01*
X101045252Y-77679999D01*
X101117120Y-77674859D01*
X101255031Y-77634365D01*
X101375953Y-77556654D01*
X101470082Y-77448023D01*
X101470083Y-77448022D01*
X101529793Y-77317278D01*
X101529794Y-77317272D01*
X101538537Y-77256462D01*
X101545772Y-77240618D01*
X101548135Y-77223359D01*
X101559985Y-77209494D01*
X101567561Y-77192906D01*
X101582347Y-77183332D01*
X101593532Y-77170247D01*
X101624838Y-77155821D01*
X101625537Y-77155369D01*
X101690681Y-77135762D01*
X101717500Y-77135580D01*
X101744054Y-77131760D01*
X101751913Y-77135348D01*
X101760549Y-77135290D01*
X101783207Y-77149636D01*
X101807613Y-77160779D01*
X101812284Y-77168046D01*
X101819581Y-77172666D01*
X101830888Y-77196988D01*
X101845393Y-77219554D01*
X101847082Y-77231823D01*
X101849035Y-77236024D01*
X101848349Y-77241029D01*
X101850410Y-77255994D01*
X101841049Y-78032954D01*
X101839811Y-78049002D01*
X101824918Y-78153216D01*
X101816293Y-78184159D01*
X101778312Y-78273561D01*
X101762026Y-78301253D01*
X101702354Y-78377896D01*
X101679503Y-78400473D01*
X101602145Y-78459217D01*
X101574263Y-78475166D01*
X101502853Y-78504493D01*
X101485272Y-78511715D01*
X101484412Y-78512068D01*
X101453365Y-78520320D01*
X101348988Y-78533955D01*
X101332926Y-78535000D01*
X96443126Y-78535000D01*
X96426941Y-78533939D01*
X96413917Y-78532224D01*
X96321775Y-78520093D01*
X96290508Y-78511715D01*
X96200081Y-78474259D01*
X96172048Y-78458074D01*
X96094398Y-78398491D01*
X96071508Y-78375601D01*
X96011925Y-78297951D01*
X95995740Y-78269918D01*
X95958284Y-78179491D01*
X95949906Y-78148223D01*
X95936061Y-78043059D01*
X95935000Y-78026874D01*
X95935000Y-74635000D01*
X95435000Y-74635000D01*
X92761884Y-74635000D01*
X92535000Y-74635000D01*
X92385597Y-74805747D01*
X92385596Y-74805748D01*
X91290211Y-76057615D01*
X91277717Y-76069999D01*
X91190522Y-76144941D01*
X91160936Y-76163820D01*
X91064352Y-76207647D01*
X91030662Y-76217481D01*
X90944766Y-76229760D01*
X90916845Y-76233752D01*
X90899298Y-76235000D01*
X87043126Y-76235000D01*
X87026941Y-76233939D01*
X87013917Y-76232224D01*
X86921775Y-76220093D01*
X86890508Y-76211715D01*
X86800081Y-76174259D01*
X86772048Y-76158074D01*
X86694398Y-76098491D01*
X86671508Y-76075601D01*
X86667209Y-76069999D01*
X86611925Y-75997951D01*
X86595740Y-75969918D01*
X86558284Y-75879491D01*
X86549906Y-75848223D01*
X86536061Y-75743059D01*
X86535000Y-75726874D01*
X86535000Y-72850232D01*
X86536061Y-72834047D01*
X86549906Y-72728883D01*
X86558284Y-72697616D01*
X86595739Y-72607191D01*
X86611924Y-72579157D01*
X86676503Y-72494996D01*
X86687190Y-72482809D01*
X88782809Y-70387190D01*
X88794996Y-70376503D01*
X88879157Y-70311924D01*
X88907191Y-70295739D01*
X88997616Y-70258284D01*
X89028882Y-70249906D01*
X89134048Y-70236061D01*
X89150233Y-70235000D01*
X101420749Y-70235000D01*
X101437057Y-70236076D01*
G37*
%TD.AperFunction*%
%TD*%
%TA.AperFunction,Conductor*%
%TO.N,SYS_GND*%
G36*
X93135000Y-80035000D02*
G01*
X95135000Y-80035000D01*
X95135000Y-79435000D01*
X114172883Y-79435000D01*
X114239922Y-79454685D01*
X114285677Y-79507489D01*
X114295621Y-79576647D01*
X114266596Y-79640203D01*
X114219180Y-79674033D01*
X114176414Y-79691244D01*
X113965710Y-79818620D01*
X113965700Y-79818627D01*
X113778153Y-79978153D01*
X113618627Y-80165700D01*
X113618620Y-80165710D01*
X113491244Y-80376414D01*
X113399315Y-80604827D01*
X113399313Y-80604834D01*
X113345217Y-80845031D01*
X113345215Y-80845041D01*
X113335000Y-80989731D01*
X113335000Y-81335000D01*
X114761216Y-81335000D01*
X114730377Y-81377446D01*
X114633906Y-81566780D01*
X114568242Y-81768874D01*
X114535000Y-81978753D01*
X114535000Y-82191247D01*
X114568242Y-82401126D01*
X114633906Y-82603220D01*
X114730377Y-82792554D01*
X114761216Y-82835000D01*
X113335000Y-82835000D01*
X113335000Y-83180268D01*
X113345215Y-83324958D01*
X113345217Y-83324968D01*
X113399313Y-83565165D01*
X113399315Y-83565172D01*
X113491244Y-83793585D01*
X113618620Y-84004289D01*
X113618627Y-84004299D01*
X113778153Y-84191846D01*
X113965700Y-84351372D01*
X113965710Y-84351379D01*
X114176414Y-84478755D01*
X114404827Y-84570684D01*
X114404834Y-84570686D01*
X114645031Y-84624782D01*
X114645041Y-84624784D01*
X114789731Y-84634999D01*
X114789734Y-84635000D01*
X115135000Y-84635000D01*
X115135000Y-83208784D01*
X115177446Y-83239623D01*
X115366780Y-83336094D01*
X115568874Y-83401758D01*
X115778753Y-83435000D01*
X115991247Y-83435000D01*
X116201126Y-83401758D01*
X116403220Y-83336094D01*
X116592554Y-83239623D01*
X116635000Y-83208784D01*
X116635000Y-84635000D01*
X116980266Y-84635000D01*
X116980268Y-84634999D01*
X117124958Y-84624784D01*
X117124968Y-84624782D01*
X117365165Y-84570686D01*
X117365172Y-84570684D01*
X117593585Y-84478755D01*
X117804289Y-84351379D01*
X117804299Y-84351372D01*
X117991846Y-84191846D01*
X118151372Y-84004299D01*
X118151379Y-84004289D01*
X118278755Y-83793585D01*
X118370684Y-83565172D01*
X118370686Y-83565165D01*
X118424782Y-83324968D01*
X118424784Y-83324958D01*
X118434999Y-83180268D01*
X118435000Y-83180266D01*
X118435000Y-82835000D01*
X117008784Y-82835000D01*
X117039623Y-82792554D01*
X117136094Y-82603220D01*
X117201758Y-82401126D01*
X117235000Y-82191247D01*
X117235000Y-81978753D01*
X117201758Y-81768874D01*
X117136094Y-81566780D01*
X117039623Y-81377446D01*
X117008784Y-81335000D01*
X118435000Y-81335000D01*
X118435000Y-80989734D01*
X118434999Y-80989731D01*
X118424784Y-80845041D01*
X118424782Y-80845031D01*
X118370686Y-80604834D01*
X118370684Y-80604827D01*
X118278755Y-80376414D01*
X118151379Y-80165710D01*
X118151372Y-80165700D01*
X117991846Y-79978153D01*
X117804299Y-79818627D01*
X117804289Y-79818620D01*
X117593585Y-79691244D01*
X117550820Y-79674033D01*
X117495978Y-79630742D01*
X117473247Y-79564673D01*
X117489844Y-79496803D01*
X117540499Y-79448680D01*
X117597117Y-79435000D01*
X121826874Y-79435000D01*
X121843059Y-79436061D01*
X121948223Y-79449906D01*
X121979491Y-79458284D01*
X122069918Y-79495740D01*
X122097952Y-79511925D01*
X122175602Y-79571509D01*
X122198491Y-79594398D01*
X122258074Y-79672048D01*
X122274259Y-79700081D01*
X122311715Y-79790508D01*
X122320093Y-79821775D01*
X122333939Y-79926939D01*
X122335000Y-79943125D01*
X122335000Y-83326874D01*
X122333939Y-83343060D01*
X122320093Y-83448224D01*
X122311715Y-83479491D01*
X122274259Y-83569918D01*
X122258074Y-83597951D01*
X122198491Y-83675601D01*
X122175601Y-83698491D01*
X122097951Y-83758074D01*
X122069918Y-83774259D01*
X121979491Y-83811715D01*
X121948224Y-83820093D01*
X121854398Y-83832446D01*
X121843058Y-83833939D01*
X121826874Y-83835000D01*
X120535000Y-83835000D01*
X120535000Y-84376102D01*
X120515315Y-84443141D01*
X120510267Y-84450413D01*
X120441203Y-84542669D01*
X120441202Y-84542671D01*
X120390908Y-84677517D01*
X120384501Y-84737116D01*
X120384500Y-84737135D01*
X120384500Y-85732870D01*
X120384501Y-85732876D01*
X120390908Y-85792483D01*
X120441202Y-85927328D01*
X120441204Y-85927331D01*
X120510266Y-86019586D01*
X120518004Y-86040332D01*
X120529977Y-86058962D01*
X120533128Y-86080879D01*
X120534684Y-86085050D01*
X120535000Y-86093897D01*
X120535000Y-86126874D01*
X120533939Y-86143060D01*
X120520093Y-86248224D01*
X120511715Y-86279490D01*
X120474260Y-86369915D01*
X120458076Y-86397947D01*
X120430732Y-86433584D01*
X120374306Y-86474788D01*
X120332355Y-86482100D01*
X92537645Y-86482100D01*
X92533987Y-86481026D01*
X92530271Y-86481881D01*
X92500720Y-86471257D01*
X92470606Y-86462415D01*
X92467067Y-86459159D01*
X92464521Y-86458244D01*
X92439269Y-86433586D01*
X92411924Y-86397949D01*
X92395739Y-86369915D01*
X92358284Y-86279490D01*
X92349906Y-86248223D01*
X92336061Y-86143059D01*
X92335000Y-86126874D01*
X92335000Y-79844755D01*
X92336527Y-79825358D01*
X92351504Y-79730790D01*
X92363490Y-79693898D01*
X92402479Y-79617379D01*
X92425278Y-79586000D01*
X92486000Y-79525278D01*
X92517379Y-79502479D01*
X92593898Y-79463490D01*
X92630784Y-79451505D01*
X92725370Y-79436525D01*
X92744756Y-79435000D01*
X93135000Y-79435000D01*
X93135000Y-80035000D01*
G37*
%TD.AperFunction*%
%TD*%
%TA.AperFunction,Conductor*%
%TO.N,/ADC/BATT_CS_POS*%
G36*
X78739814Y-79454685D02*
G01*
X78785569Y-79507489D01*
X78795513Y-79576647D01*
X78766488Y-79640203D01*
X78736925Y-79665117D01*
X78565710Y-79768620D01*
X78565700Y-79768627D01*
X78378153Y-79928153D01*
X78218627Y-80115700D01*
X78218620Y-80115710D01*
X78091244Y-80326414D01*
X77999315Y-80554827D01*
X77999313Y-80554834D01*
X77945217Y-80795031D01*
X77945215Y-80795041D01*
X77935000Y-80939731D01*
X77935000Y-81285000D01*
X79361216Y-81285000D01*
X79330377Y-81327446D01*
X79233906Y-81516780D01*
X79168242Y-81718874D01*
X79135000Y-81928753D01*
X79135000Y-82141247D01*
X79168242Y-82351126D01*
X79233906Y-82553220D01*
X79330377Y-82742554D01*
X79361216Y-82785000D01*
X77935000Y-82785000D01*
X77935000Y-83130268D01*
X77945215Y-83274958D01*
X77945217Y-83274968D01*
X77999313Y-83515165D01*
X77999315Y-83515172D01*
X78091244Y-83743585D01*
X78218620Y-83954289D01*
X78218627Y-83954299D01*
X78378153Y-84141846D01*
X78565700Y-84301372D01*
X78565710Y-84301379D01*
X78776414Y-84428755D01*
X79004827Y-84520684D01*
X79004834Y-84520686D01*
X79245031Y-84574782D01*
X79245041Y-84574784D01*
X79389731Y-84584999D01*
X79389734Y-84585000D01*
X79735000Y-84585000D01*
X79735000Y-83158784D01*
X79777446Y-83189623D01*
X79966780Y-83286094D01*
X80168874Y-83351758D01*
X80378753Y-83385000D01*
X80591247Y-83385000D01*
X80801126Y-83351758D01*
X81003220Y-83286094D01*
X81192554Y-83189623D01*
X81235000Y-83158784D01*
X81235000Y-84585000D01*
X81580266Y-84585000D01*
X81580268Y-84584999D01*
X81724958Y-84574784D01*
X81724968Y-84574782D01*
X81965165Y-84520686D01*
X81965172Y-84520684D01*
X82193585Y-84428755D01*
X82404289Y-84301379D01*
X82404299Y-84301372D01*
X82591846Y-84141846D01*
X82751372Y-83954299D01*
X82751379Y-83954289D01*
X82878755Y-83743585D01*
X82970684Y-83515172D01*
X82970686Y-83515165D01*
X83024782Y-83274968D01*
X83024784Y-83274958D01*
X83034999Y-83130268D01*
X83035000Y-83130266D01*
X83035000Y-82785000D01*
X81608784Y-82785000D01*
X81639623Y-82742554D01*
X81736094Y-82553220D01*
X81801758Y-82351126D01*
X81835000Y-82141247D01*
X81835000Y-81928753D01*
X81801758Y-81718874D01*
X81736094Y-81516780D01*
X81639623Y-81327446D01*
X81608784Y-81285000D01*
X83035000Y-81285000D01*
X83035000Y-80939734D01*
X83034999Y-80939731D01*
X83024784Y-80795041D01*
X83024782Y-80795031D01*
X82970686Y-80554834D01*
X82970684Y-80554827D01*
X82878755Y-80326414D01*
X82751379Y-80115710D01*
X82751372Y-80115700D01*
X82591846Y-79928153D01*
X82404299Y-79768627D01*
X82404289Y-79768620D01*
X82233075Y-79665117D01*
X82185887Y-79613589D01*
X82174049Y-79544730D01*
X82201318Y-79480401D01*
X82259037Y-79441027D01*
X82297225Y-79435000D01*
X86826874Y-79435000D01*
X86843059Y-79436061D01*
X86948223Y-79449906D01*
X86979491Y-79458284D01*
X87069918Y-79495740D01*
X87097952Y-79511925D01*
X87175602Y-79571509D01*
X87198491Y-79594398D01*
X87258074Y-79672048D01*
X87274259Y-79700081D01*
X87311715Y-79790508D01*
X87320093Y-79821775D01*
X87333939Y-79926939D01*
X87335000Y-79943125D01*
X87335000Y-85726874D01*
X87333939Y-85743060D01*
X87320093Y-85848224D01*
X87311715Y-85879491D01*
X87274259Y-85969918D01*
X87258074Y-85997951D01*
X87198491Y-86075601D01*
X87175601Y-86098491D01*
X87097951Y-86158074D01*
X87069918Y-86174259D01*
X86979491Y-86211715D01*
X86948224Y-86220093D01*
X86854398Y-86232446D01*
X86843058Y-86233939D01*
X86826874Y-86235000D01*
X76443126Y-86235000D01*
X76426941Y-86233939D01*
X76413917Y-86232224D01*
X76321775Y-86220093D01*
X76290508Y-86211715D01*
X76200081Y-86174259D01*
X76172048Y-86158074D01*
X76094398Y-86098491D01*
X76071508Y-86075601D01*
X76011925Y-85997951D01*
X75995740Y-85969918D01*
X75961013Y-85886080D01*
X75953544Y-85816611D01*
X75959388Y-85795307D01*
X75979091Y-85742483D01*
X75985500Y-85682873D01*
X75985499Y-84687128D01*
X75979091Y-84627517D01*
X75963233Y-84585000D01*
X75942818Y-84530263D01*
X75935000Y-84486930D01*
X75935000Y-79943125D01*
X75936061Y-79926940D01*
X75949906Y-79821776D01*
X75949906Y-79821775D01*
X75958284Y-79790508D01*
X75995740Y-79700079D01*
X76011923Y-79672050D01*
X76071513Y-79594392D01*
X76094392Y-79571513D01*
X76172050Y-79511923D01*
X76200079Y-79495740D01*
X76290509Y-79458283D01*
X76321775Y-79449906D01*
X76426941Y-79436061D01*
X76443126Y-79435000D01*
X78672775Y-79435000D01*
X78739814Y-79454685D01*
G37*
%TD.AperFunction*%
%TD*%
M02*
