%TF.GenerationSoftware,KiCad,Pcbnew,9.0.7*%
%TF.CreationDate,2026-04-21T14:31:01+02:00*%
%TF.ProjectId,openbms,6f70656e-626d-4732-9e6b-696361645f70,Rev A*%
%TF.SameCoordinates,Original*%
%TF.FileFunction,Paste,Bot*%
%TF.FilePolarity,Positive*%
%FSLAX46Y46*%
G04 Gerber Fmt 4.6, Leading zero omitted, Abs format (unit mm)*
G04 Created by KiCad (PCBNEW 9.0.7) date 2026-04-21 14:31:01*
%MOMM*%
%LPD*%
G01*
G04 APERTURE LIST*
G04 Aperture macros list*
%AMRoundRect*
0 Rectangle with rounded corners*
0 $1 Rounding radius*
0 $2 $3 $4 $5 $6 $7 $8 $9 X,Y pos of 4 corners*
0 Add a 4 corners polygon primitive as box body*
4,1,4,$2,$3,$4,$5,$6,$7,$8,$9,$2,$3,0*
0 Add four circle primitives for the rounded corners*
1,1,$1+$1,$2,$3*
1,1,$1+$1,$4,$5*
1,1,$1+$1,$6,$7*
1,1,$1+$1,$8,$9*
0 Add four rect primitives between the rounded corners*
20,1,$1+$1,$2,$3,$4,$5,0*
20,1,$1+$1,$4,$5,$6,$7,0*
20,1,$1+$1,$6,$7,$8,$9,0*
20,1,$1+$1,$8,$9,$2,$3,0*%
G04 Aperture macros list end*
%ADD10RoundRect,0.112500X-0.187500X-0.112500X0.187500X-0.112500X0.187500X0.112500X-0.187500X0.112500X0*%
%ADD11RoundRect,0.140000X0.170000X-0.140000X0.170000X0.140000X-0.170000X0.140000X-0.170000X-0.140000X0*%
%ADD12RoundRect,0.135000X-0.185000X0.135000X-0.185000X-0.135000X0.185000X-0.135000X0.185000X0.135000X0*%
%ADD13RoundRect,0.140000X-0.140000X-0.170000X0.140000X-0.170000X0.140000X0.170000X-0.140000X0.170000X0*%
%ADD14RoundRect,0.135000X0.135000X0.185000X-0.135000X0.185000X-0.135000X-0.185000X0.135000X-0.185000X0*%
%ADD15RoundRect,0.135000X-0.135000X-0.185000X0.135000X-0.185000X0.135000X0.185000X-0.135000X0.185000X0*%
%ADD16RoundRect,0.135000X0.185000X-0.135000X0.185000X0.135000X-0.185000X0.135000X-0.185000X-0.135000X0*%
%ADD17R,0.300000X0.492000*%
%ADD18RoundRect,0.140000X0.140000X0.170000X-0.140000X0.170000X-0.140000X-0.170000X0.140000X-0.170000X0*%
%ADD19R,0.350000X0.850000*%
%ADD20R,2.450000X1.600000*%
%ADD21RoundRect,0.140000X-0.170000X0.140000X-0.170000X-0.140000X0.170000X-0.140000X0.170000X0.140000X0*%
%ADD22RoundRect,0.125000X-0.487500X-0.125000X0.487500X-0.125000X0.487500X0.125000X-0.487500X0.125000X0*%
%ADD23RoundRect,0.125000X0.487500X0.125000X-0.487500X0.125000X-0.487500X-0.125000X0.487500X-0.125000X0*%
%ADD24RoundRect,0.250000X-1.425000X0.362500X-1.425000X-0.362500X1.425000X-0.362500X1.425000X0.362500X0*%
%ADD25RoundRect,0.150000X0.825000X0.150000X-0.825000X0.150000X-0.825000X-0.150000X0.825000X-0.150000X0*%
%ADD26RoundRect,0.147500X-0.147500X-0.172500X0.147500X-0.172500X0.147500X0.172500X-0.147500X0.172500X0*%
%ADD27R,2.400000X1.900000*%
%ADD28RoundRect,0.250000X-0.650000X1.000000X-0.650000X-1.000000X0.650000X-1.000000X0.650000X1.000000X0*%
%ADD29RoundRect,0.250000X-0.262500X-0.450000X0.262500X-0.450000X0.262500X0.450000X-0.262500X0.450000X0*%
%ADD30RoundRect,0.075000X-0.662500X-0.075000X0.662500X-0.075000X0.662500X0.075000X-0.662500X0.075000X0*%
%ADD31RoundRect,0.075000X-0.075000X-0.662500X0.075000X-0.662500X0.075000X0.662500X-0.075000X0.662500X0*%
G04 APERTURE END LIST*
D10*
%TO.C,D10*%
X124735000Y-60835000D03*
X126835000Y-60835000D03*
%TD*%
D11*
%TO.C,C11*%
X98750000Y-48744000D03*
X98750000Y-47784000D03*
%TD*%
D12*
%TO.C,R78*%
X122734500Y-36325500D03*
X122734500Y-37345500D03*
%TD*%
D13*
%TO.C,C6*%
X104955000Y-38935000D03*
X105915000Y-38935000D03*
%TD*%
%TO.C,C18*%
X101150000Y-39954000D03*
X102110000Y-39954000D03*
%TD*%
D10*
%TO.C,D13*%
X124635000Y-53435000D03*
X126735000Y-53435000D03*
%TD*%
D14*
%TO.C,R64*%
X88693943Y-56334000D03*
X87673943Y-56334000D03*
%TD*%
D12*
%TO.C,R59*%
X103030000Y-37944000D03*
X103030000Y-38964000D03*
%TD*%
%TO.C,R106*%
X70935000Y-44925000D03*
X70935000Y-45945000D03*
%TD*%
D15*
%TO.C,R93*%
X129375000Y-76085000D03*
X130395000Y-76085000D03*
%TD*%
D16*
%TO.C,R88*%
X125134500Y-50445500D03*
X125134500Y-49425500D03*
%TD*%
D15*
%TO.C,R18*%
X90025000Y-38835000D03*
X91045000Y-38835000D03*
%TD*%
%TO.C,R2*%
X88025000Y-42835000D03*
X89045000Y-42835000D03*
%TD*%
D16*
%TO.C,R89*%
X126234500Y-50445500D03*
X126234500Y-49425500D03*
%TD*%
D14*
%TO.C,R71*%
X90693943Y-60334000D03*
X89673943Y-60334000D03*
%TD*%
D17*
%TO.C,U9*%
X86683943Y-57500000D03*
X87183943Y-57500000D03*
X87683943Y-57500000D03*
X87683943Y-59168000D03*
X87183943Y-59168000D03*
X86683943Y-59168000D03*
%TD*%
D18*
%TO.C,C7*%
X105915000Y-37935000D03*
X104955000Y-37935000D03*
%TD*%
D13*
%TO.C,C9*%
X106955000Y-51835000D03*
X107915000Y-51835000D03*
%TD*%
D14*
%TO.C,R84*%
X120744500Y-52335500D03*
X119724500Y-52335500D03*
%TD*%
D19*
%TO.C,U16*%
X128584500Y-53235500D03*
X129234500Y-53235500D03*
X129884500Y-53235500D03*
X130534500Y-53235500D03*
X130534500Y-56135500D03*
X129884500Y-56135500D03*
X129234500Y-56135500D03*
X128584500Y-56135500D03*
D20*
X129559500Y-54685500D03*
%TD*%
D15*
%TO.C,R70*%
X89673943Y-56334000D03*
X90693943Y-56334000D03*
%TD*%
D14*
%TO.C,R31*%
X86735000Y-51745000D03*
X85715000Y-51745000D03*
%TD*%
D13*
%TO.C,C8*%
X106955000Y-50835000D03*
X107915000Y-50835000D03*
%TD*%
D15*
%TO.C,R26*%
X96740000Y-46964000D03*
X97760000Y-46964000D03*
%TD*%
D16*
%TO.C,R5*%
X104950000Y-54874000D03*
X104950000Y-53854000D03*
%TD*%
D14*
%TO.C,R111*%
X116344500Y-61835500D03*
X115324500Y-61835500D03*
%TD*%
D17*
%TO.C,U1*%
X87035000Y-40001000D03*
X87535000Y-40001000D03*
X88035000Y-40001000D03*
X88035000Y-41669000D03*
X87535000Y-41669000D03*
X87035000Y-41669000D03*
%TD*%
D16*
%TO.C,R8*%
X103950000Y-54874000D03*
X103950000Y-53854000D03*
%TD*%
D15*
%TO.C,R33*%
X96740000Y-43964000D03*
X97760000Y-43964000D03*
%TD*%
D12*
%TO.C,R51*%
X102030000Y-37944000D03*
X102030000Y-38964000D03*
%TD*%
%TO.C,R77*%
X77235000Y-37925000D03*
X77235000Y-38945000D03*
%TD*%
D15*
%TO.C,R86*%
X116824500Y-54335500D03*
X117844500Y-54335500D03*
%TD*%
D21*
%TO.C,C19*%
X109035000Y-47355000D03*
X109035000Y-48315000D03*
%TD*%
D14*
%TO.C,R87*%
X126944500Y-51835500D03*
X125924500Y-51835500D03*
%TD*%
D21*
%TO.C,C17*%
X98750000Y-42104000D03*
X98750000Y-43064000D03*
%TD*%
D13*
%TO.C,C28*%
X116054500Y-44635500D03*
X117014500Y-44635500D03*
%TD*%
D18*
%TO.C,C2*%
X104930000Y-51864000D03*
X103970000Y-51864000D03*
%TD*%
D16*
%TO.C,R113*%
X102150000Y-52874000D03*
X102150000Y-51854000D03*
%TD*%
D18*
%TO.C,C5*%
X105915000Y-36935000D03*
X104955000Y-36935000D03*
%TD*%
D10*
%TO.C,D8*%
X124735000Y-65935000D03*
X126835000Y-65935000D03*
%TD*%
D17*
%TO.C,U18*%
X128385000Y-77451000D03*
X128885000Y-77451000D03*
X129385000Y-77451000D03*
X129385000Y-79119000D03*
X128885000Y-79119000D03*
X128385000Y-79119000D03*
%TD*%
D12*
%TO.C,R104*%
X70935000Y-40025000D03*
X70935000Y-41045000D03*
%TD*%
D14*
%TO.C,R35*%
X88735000Y-51745000D03*
X87715000Y-51745000D03*
%TD*%
D15*
%TO.C,R109*%
X119124500Y-63735500D03*
X120144500Y-63735500D03*
%TD*%
D22*
%TO.C,Q7*%
X115697000Y-65085500D03*
X115697000Y-63785500D03*
X117572000Y-64435500D03*
%TD*%
D23*
%TO.C,D14*%
X119672000Y-66085500D03*
X119672000Y-67385500D03*
X117797000Y-66735500D03*
%TD*%
D17*
%TO.C,U14*%
X78535000Y-41569000D03*
X78035000Y-41569000D03*
X77535000Y-41569000D03*
X77535000Y-39901000D03*
X78035000Y-39901000D03*
X78535000Y-39901000D03*
%TD*%
%TO.C,U12*%
X89783943Y-57500000D03*
X90283943Y-57500000D03*
X90783943Y-57500000D03*
X90783943Y-59168000D03*
X90283943Y-59168000D03*
X89783943Y-59168000D03*
%TD*%
D12*
%TO.C,R114*%
X70935000Y-49915000D03*
X70935000Y-50935000D03*
%TD*%
D13*
%TO.C,C10*%
X101170000Y-50864000D03*
X102130000Y-50864000D03*
%TD*%
D10*
%TO.C,D12*%
X124735000Y-55935000D03*
X126835000Y-55935000D03*
%TD*%
D24*
%TO.C,R90*%
X124685000Y-76122500D03*
X124685000Y-82047500D03*
%TD*%
D25*
%TO.C,U17*%
X129709500Y-44130500D03*
X129709500Y-45400500D03*
X129709500Y-46670500D03*
X129709500Y-47940500D03*
X124759500Y-47940500D03*
X124759500Y-46670500D03*
X124759500Y-45400500D03*
X124759500Y-44130500D03*
%TD*%
D21*
%TO.C,C13*%
X98750000Y-45884000D03*
X98750000Y-46844000D03*
%TD*%
D16*
%TO.C,R96*%
X126485000Y-74795000D03*
X126485000Y-73775000D03*
%TD*%
D15*
%TO.C,R43*%
X96740000Y-41964000D03*
X97760000Y-41964000D03*
%TD*%
%TO.C,R32*%
X96740000Y-44964000D03*
X97760000Y-44964000D03*
%TD*%
%TO.C,R85*%
X129074500Y-57435500D03*
X130094500Y-57435500D03*
%TD*%
%TO.C,R20*%
X96740000Y-48964000D03*
X97760000Y-48964000D03*
%TD*%
D17*
%TO.C,U6*%
X86725000Y-48911000D03*
X87225000Y-48911000D03*
X87725000Y-48911000D03*
X87725000Y-50579000D03*
X87225000Y-50579000D03*
X86725000Y-50579000D03*
%TD*%
D11*
%TO.C,C15*%
X98750000Y-44964000D03*
X98750000Y-44004000D03*
%TD*%
D15*
%TO.C,R39*%
X109224500Y-45435500D03*
X110244500Y-45435500D03*
%TD*%
D26*
%TO.C,L1*%
X106949500Y-36935500D03*
X107919500Y-36935500D03*
%TD*%
D10*
%TO.C,D11*%
X124735000Y-58435000D03*
X126835000Y-58435000D03*
%TD*%
D18*
%TO.C,C20*%
X104010000Y-39954000D03*
X103050000Y-39954000D03*
%TD*%
D12*
%TO.C,R82*%
X120634500Y-55025500D03*
X120634500Y-56045500D03*
%TD*%
D14*
%TO.C,R81*%
X118944500Y-37535500D03*
X117924500Y-37535500D03*
%TD*%
D18*
%TO.C,C1*%
X105930000Y-50864000D03*
X104970000Y-50864000D03*
%TD*%
%TO.C,C12*%
X105915000Y-39935000D03*
X104955000Y-39935000D03*
%TD*%
D15*
%TO.C,R112*%
X115324500Y-66735500D03*
X116344500Y-66735500D03*
%TD*%
D11*
%TO.C,C30*%
X122734500Y-45015500D03*
X122734500Y-44055500D03*
%TD*%
D14*
%TO.C,R53*%
X90735000Y-51745000D03*
X89715000Y-51745000D03*
%TD*%
D10*
%TO.C,D9*%
X124735000Y-63335000D03*
X126835000Y-63335000D03*
%TD*%
D12*
%TO.C,R48*%
X101030000Y-37944000D03*
X101030000Y-38964000D03*
%TD*%
D13*
%TO.C,C29*%
X128954500Y-50535500D03*
X129914500Y-50535500D03*
%TD*%
D22*
%TO.C,Q4*%
X128147500Y-74735000D03*
X128147500Y-73435000D03*
X130022500Y-74085000D03*
%TD*%
D14*
%TO.C,R62*%
X86693943Y-56334000D03*
X85673943Y-56334000D03*
%TD*%
D27*
%TO.C,Y2*%
X113734500Y-40485500D03*
X113734500Y-44585500D03*
%TD*%
D12*
%TO.C,R105*%
X70935000Y-42525000D03*
X70935000Y-43545000D03*
%TD*%
D13*
%TO.C,C31*%
X108735000Y-69135000D03*
X109695000Y-69135000D03*
%TD*%
D15*
%TO.C,R24*%
X96740000Y-45964000D03*
X97760000Y-45964000D03*
%TD*%
D16*
%TO.C,R17*%
X101150000Y-52874000D03*
X101150000Y-51854000D03*
%TD*%
D28*
%TO.C,D7*%
X120335000Y-77035000D03*
X120335000Y-81035000D03*
%TD*%
D18*
%TO.C,C4*%
X104030000Y-50864000D03*
X103070000Y-50864000D03*
%TD*%
D23*
%TO.C,Q6*%
X119572000Y-61185500D03*
X119572000Y-62485500D03*
X117697000Y-61835500D03*
%TD*%
D14*
%TO.C,R34*%
X88735000Y-47745000D03*
X87715000Y-47745000D03*
%TD*%
D15*
%TO.C,R45*%
X96740000Y-42964000D03*
X97760000Y-42964000D03*
%TD*%
D14*
%TO.C,R1*%
X87045000Y-38835000D03*
X86025000Y-38835000D03*
%TD*%
D29*
%TO.C,R115*%
X127522000Y-84135500D03*
X129347000Y-84135500D03*
%TD*%
D12*
%TO.C,R55*%
X104030000Y-37944000D03*
X104030000Y-38964000D03*
%TD*%
D14*
%TO.C,R19*%
X91045000Y-42835000D03*
X90025000Y-42835000D03*
%TD*%
D12*
%TO.C,R76*%
X78435000Y-37925000D03*
X78435000Y-38945000D03*
%TD*%
%TO.C,R107*%
X70935000Y-47425000D03*
X70935000Y-48445000D03*
%TD*%
D15*
%TO.C,R83*%
X117724500Y-52335500D03*
X118744500Y-52335500D03*
%TD*%
%TO.C,R7*%
X86025000Y-42835000D03*
X87045000Y-42835000D03*
%TD*%
D14*
%TO.C,R6*%
X89045000Y-38835000D03*
X88025000Y-38835000D03*
%TD*%
%TO.C,R63*%
X86693943Y-60334000D03*
X85673943Y-60334000D03*
%TD*%
D18*
%TO.C,C27*%
X117014500Y-40835500D03*
X116054500Y-40835500D03*
%TD*%
D15*
%TO.C,R52*%
X89715000Y-47745000D03*
X90735000Y-47745000D03*
%TD*%
%TO.C,R91*%
X127375000Y-76085000D03*
X128395000Y-76085000D03*
%TD*%
D14*
%TO.C,R30*%
X86735000Y-47745000D03*
X85715000Y-47745000D03*
%TD*%
%TO.C,R65*%
X88693943Y-60334000D03*
X87673943Y-60334000D03*
%TD*%
D13*
%TO.C,C32*%
X111055000Y-69135000D03*
X112015000Y-69135000D03*
%TD*%
D15*
%TO.C,R23*%
X96740000Y-47964000D03*
X97760000Y-47964000D03*
%TD*%
D17*
%TO.C,U7*%
X89825000Y-48911000D03*
X90325000Y-48911000D03*
X90825000Y-48911000D03*
X90825000Y-50579000D03*
X90325000Y-50579000D03*
X89825000Y-50579000D03*
%TD*%
D30*
%TO.C,U5*%
X101087500Y-47214000D03*
X101087500Y-46714000D03*
X101087500Y-46214000D03*
X101087500Y-45714000D03*
X101087500Y-45214000D03*
X101087500Y-44714000D03*
X101087500Y-44214000D03*
X101087500Y-43714000D03*
D31*
X102500000Y-42301500D03*
X103000000Y-42301500D03*
X103500000Y-42301500D03*
X104000000Y-42301500D03*
X104500000Y-42301500D03*
X105000000Y-42301500D03*
X105500000Y-42301500D03*
X106000000Y-42301500D03*
D30*
X107412500Y-43714000D03*
X107412500Y-44214000D03*
X107412500Y-44714000D03*
X107412500Y-45214000D03*
X107412500Y-45714000D03*
X107412500Y-46214000D03*
X107412500Y-46714000D03*
X107412500Y-47214000D03*
D31*
X106000000Y-48626500D03*
X105500000Y-48626500D03*
X105000000Y-48626500D03*
X104500000Y-48626500D03*
X104000000Y-48626500D03*
X103500000Y-48626500D03*
X103000000Y-48626500D03*
X102500000Y-48626500D03*
%TD*%
D17*
%TO.C,U3*%
X90135000Y-40001000D03*
X90635000Y-40001000D03*
X91135000Y-40001000D03*
X91135000Y-41669000D03*
X90635000Y-41669000D03*
X90135000Y-41669000D03*
%TD*%
D18*
%TO.C,C3*%
X104930000Y-52864000D03*
X103970000Y-52864000D03*
%TD*%
D14*
%TO.C,R110*%
X120144500Y-64835500D03*
X119124500Y-64835500D03*
%TD*%
M02*
