%TF.GenerationSoftware,KiCad,Pcbnew,9.0.7*%
%TF.CreationDate,2026-04-21T14:31:01+02:00*%
%TF.ProjectId,openbms,6f70656e-626d-4732-9e6b-696361645f70,Rev A*%
%TF.SameCoordinates,Original*%
%TF.FileFunction,Paste,Top*%
%TF.FilePolarity,Positive*%
%FSLAX46Y46*%
G04 Gerber Fmt 4.6, Leading zero omitted, Abs format (unit mm)*
G04 Created by KiCad (PCBNEW 9.0.7) date 2026-04-21 14:31:01*
%MOMM*%
%LPD*%
G01*
G04 APERTURE LIST*
G04 Aperture macros list*
%AMRoundRect*
0 Rectangle with rounded corners*
0 $1 Rounding radius*
0 $2 $3 $4 $5 $6 $7 $8 $9 X,Y pos of 4 corners*
0 Add a 4 corners polygon primitive as box body*
4,1,4,$2,$3,$4,$5,$6,$7,$8,$9,$2,$3,0*
0 Add four circle primitives for the rounded corners*
1,1,$1+$1,$2,$3*
1,1,$1+$1,$4,$5*
1,1,$1+$1,$6,$7*
1,1,$1+$1,$8,$9*
0 Add four rect primitives between the rounded corners*
20,1,$1+$1,$2,$3,$4,$5,0*
20,1,$1+$1,$4,$5,$6,$7,0*
20,1,$1+$1,$6,$7,$8,$9,0*
20,1,$1+$1,$8,$9,$2,$3,0*%
%AMFreePoly0*
4,1,18,-0.697500,2.280000,2.027500,2.280000,2.502500,2.280000,2.502500,1.530000,2.027500,1.530000,2.027500,-1.530000,2.502500,-1.530000,2.502500,-2.280000,-0.697500,-2.280000,-0.697500,-2.775000,-1.602500,-2.775000,-1.602500,-2.280000,-2.027500,-2.280000,-2.027500,2.280000,-1.602500,2.280000,-1.602500,2.775000,-0.697500,2.775000,-0.697500,2.280000,-0.697500,2.280000,$1*%
G04 Aperture macros list end*
%ADD10RoundRect,0.218750X-0.256250X0.218750X-0.256250X-0.218750X0.256250X-0.218750X0.256250X0.218750X0*%
%ADD11RoundRect,0.125000X-0.125000X0.487500X-0.125000X-0.487500X0.125000X-0.487500X0.125000X0.487500X0*%
%ADD12RoundRect,0.250000X0.650000X-0.325000X0.650000X0.325000X-0.650000X0.325000X-0.650000X-0.325000X0*%
%ADD13R,0.492000X0.300000*%
%ADD14RoundRect,0.135000X0.185000X-0.135000X0.185000X0.135000X-0.185000X0.135000X-0.185000X-0.135000X0*%
%ADD15RoundRect,0.225000X-0.250000X0.225000X-0.250000X-0.225000X0.250000X-0.225000X0.250000X0.225000X0*%
%ADD16RoundRect,0.140000X0.170000X-0.140000X0.170000X0.140000X-0.170000X0.140000X-0.170000X-0.140000X0*%
%ADD17RoundRect,0.250000X0.362500X1.425000X-0.362500X1.425000X-0.362500X-1.425000X0.362500X-1.425000X0*%
%ADD18RoundRect,0.135000X-0.185000X0.135000X-0.185000X-0.135000X0.185000X-0.135000X0.185000X0.135000X0*%
%ADD19RoundRect,0.250000X-0.362500X-1.425000X0.362500X-1.425000X0.362500X1.425000X-0.362500X1.425000X0*%
%ADD20RoundRect,0.135000X-0.135000X-0.185000X0.135000X-0.185000X0.135000X0.185000X-0.135000X0.185000X0*%
%ADD21RoundRect,0.150000X-0.150000X-0.700000X0.150000X-0.700000X0.150000X0.700000X-0.150000X0.700000X0*%
%ADD22RoundRect,0.250000X-0.250000X-1.150000X0.250000X-1.150000X0.250000X1.150000X-0.250000X1.150000X0*%
%ADD23RoundRect,0.140000X-0.170000X0.140000X-0.170000X-0.140000X0.170000X-0.140000X0.170000X0.140000X0*%
%ADD24R,1.358900X0.279400*%
%ADD25RoundRect,0.147500X0.172500X-0.147500X0.172500X0.147500X-0.172500X0.147500X-0.172500X-0.147500X0*%
%ADD26R,2.750000X5.500000*%
%ADD27RoundRect,0.187500X-0.312500X-0.187500X0.312500X-0.187500X0.312500X0.187500X-0.312500X0.187500X0*%
%ADD28FreePoly0,0.000000*%
%ADD29RoundRect,0.140000X-0.140000X-0.170000X0.140000X-0.170000X0.140000X0.170000X-0.140000X0.170000X0*%
%ADD30RoundRect,0.125000X-0.487500X-0.125000X0.487500X-0.125000X0.487500X0.125000X-0.487500X0.125000X0*%
%ADD31RoundRect,0.162500X-0.162500X-0.287500X0.162500X-0.287500X0.162500X0.287500X-0.162500X0.287500X0*%
%ADD32RoundRect,0.100000X-0.300000X-0.100000X0.300000X-0.100000X0.300000X0.100000X-0.300000X0.100000X0*%
%ADD33RoundRect,0.187500X0.312500X0.187500X-0.312500X0.187500X-0.312500X-0.187500X0.312500X-0.187500X0*%
%ADD34FreePoly0,180.000000*%
%ADD35RoundRect,0.250000X-0.315000X-0.315000X0.315000X-0.315000X0.315000X0.315000X-0.315000X0.315000X0*%
%ADD36RoundRect,0.062500X-0.375000X-0.062500X0.375000X-0.062500X0.375000X0.062500X-0.375000X0.062500X0*%
%ADD37RoundRect,0.062500X-0.062500X-0.375000X0.062500X-0.375000X0.062500X0.375000X-0.062500X0.375000X0*%
%ADD38RoundRect,0.250000X-0.375000X-0.625000X0.375000X-0.625000X0.375000X0.625000X-0.375000X0.625000X0*%
%ADD39R,2.400000X1.900000*%
%ADD40RoundRect,0.250000X-0.650000X1.000000X-0.650000X-1.000000X0.650000X-1.000000X0.650000X1.000000X0*%
G04 APERTURE END LIST*
D10*
%TO.C,D5*%
X96834500Y-36448000D03*
X96834500Y-38023000D03*
%TD*%
D11*
%TO.C,Q5*%
X110985000Y-61297500D03*
X109685000Y-61297500D03*
X110335000Y-63172500D03*
%TD*%
D12*
%TO.C,C36*%
X96534500Y-58510500D03*
X96534500Y-55560500D03*
%TD*%
D13*
%TO.C,U11*%
X82701000Y-57135000D03*
X82701000Y-57635000D03*
X82701000Y-58135000D03*
X84369000Y-58135000D03*
X84369000Y-57635000D03*
X84369000Y-57135000D03*
%TD*%
D14*
%TO.C,R97*%
X108335000Y-63745000D03*
X108335000Y-62725000D03*
%TD*%
%TO.C,R49*%
X77135000Y-51495000D03*
X77135000Y-50475000D03*
%TD*%
D15*
%TO.C,C33*%
X96534500Y-60760500D03*
X96534500Y-62310500D03*
%TD*%
D14*
%TO.C,R92*%
X110335000Y-67745000D03*
X110335000Y-66725000D03*
%TD*%
D16*
%TO.C,C26*%
X108434500Y-44315500D03*
X108434500Y-43355500D03*
%TD*%
D17*
%TO.C,R74*%
X93060000Y-65035000D03*
X87135000Y-65035000D03*
%TD*%
D18*
%TO.C,R73*%
X81385000Y-59325000D03*
X81385000Y-60345000D03*
%TD*%
D14*
%TO.C,R69*%
X80185000Y-60345000D03*
X80185000Y-59325000D03*
%TD*%
D19*
%TO.C,R68*%
X87172500Y-60635000D03*
X93097500Y-60635000D03*
%TD*%
D12*
%TO.C,C42*%
X115034500Y-58410500D03*
X115034500Y-55460500D03*
%TD*%
D16*
%TO.C,C24*%
X110634500Y-44315500D03*
X110634500Y-43355500D03*
%TD*%
D20*
%TO.C,R101*%
X105025000Y-62835000D03*
X106045000Y-62835000D03*
%TD*%
D18*
%TO.C,R75*%
X77135000Y-61225000D03*
X77135000Y-62245000D03*
%TD*%
D14*
%TO.C,R38*%
X114434500Y-48945500D03*
X114434500Y-47925500D03*
%TD*%
%TO.C,R60*%
X78435000Y-55595000D03*
X78435000Y-54575000D03*
%TD*%
D21*
%TO.C,J1*%
X102584500Y-40985500D03*
X103834500Y-40985500D03*
X105084500Y-40985500D03*
D22*
X100734500Y-37635500D03*
X106934500Y-37635500D03*
%TD*%
D14*
%TO.C,R27*%
X78440000Y-47055000D03*
X78440000Y-46035000D03*
%TD*%
D20*
%TO.C,R47*%
X109324500Y-39235500D03*
X110344500Y-39235500D03*
%TD*%
D14*
%TO.C,R15*%
X78540000Y-42355000D03*
X78540000Y-41335000D03*
%TD*%
D23*
%TO.C,C21*%
X121234500Y-38455500D03*
X121234500Y-39415500D03*
%TD*%
D19*
%TO.C,R10*%
X87172500Y-38635000D03*
X93097500Y-38635000D03*
%TD*%
D18*
%TO.C,R50*%
X81535000Y-50475000D03*
X81535000Y-51495000D03*
%TD*%
D14*
%TO.C,R16*%
X80340000Y-42355000D03*
X80340000Y-41335000D03*
%TD*%
D24*
%TO.C,U19*%
X103163850Y-65485001D03*
X103163850Y-64985002D03*
X103163850Y-64485000D03*
X103163850Y-63985001D03*
X103163850Y-63485000D03*
X103163850Y-62985000D03*
X103163850Y-62485002D03*
X103163850Y-61985000D03*
X103163850Y-61485001D03*
X103163850Y-60984999D03*
X98706150Y-60984999D03*
X98706150Y-61484998D03*
X98706150Y-61985000D03*
X98706150Y-62484999D03*
X98706150Y-62985000D03*
X98706150Y-63984998D03*
X98706150Y-64485000D03*
X98706150Y-64984999D03*
X98706150Y-65485001D03*
%TD*%
D12*
%TO.C,C38*%
X101734500Y-58510500D03*
X101734500Y-55560500D03*
%TD*%
D14*
%TO.C,R80*%
X96834500Y-40445500D03*
X96834500Y-39425500D03*
%TD*%
D13*
%TO.C,U13*%
X78401000Y-61735000D03*
X78401000Y-62235000D03*
X78401000Y-62735000D03*
X80069000Y-62735000D03*
X80069000Y-62235000D03*
X80069000Y-61735000D03*
%TD*%
D23*
%TO.C,C43*%
X116734500Y-57875500D03*
X116734500Y-58835500D03*
%TD*%
D13*
%TO.C,U2*%
X78606000Y-37245000D03*
X78606000Y-37745000D03*
X78606000Y-38245000D03*
X80274000Y-38245000D03*
X80274000Y-37745000D03*
X80274000Y-37245000D03*
%TD*%
D14*
%TO.C,R28*%
X80340000Y-47055000D03*
X80340000Y-46035000D03*
%TD*%
D23*
%TO.C,C39*%
X103434500Y-55855500D03*
X103434500Y-56815500D03*
%TD*%
D14*
%TO.C,R108*%
X117734500Y-58845500D03*
X117734500Y-57825500D03*
%TD*%
D25*
%TO.C,L2*%
X107334500Y-44320500D03*
X107334500Y-43350500D03*
%TD*%
D26*
%TO.C,R103*%
X94035000Y-82235000D03*
X85835000Y-82235000D03*
%TD*%
D14*
%TO.C,R72*%
X83435000Y-60345000D03*
X83435000Y-59325000D03*
%TD*%
D19*
%TO.C,R67*%
X87172500Y-56235000D03*
X93097500Y-56235000D03*
%TD*%
%TO.C,R11*%
X87172500Y-43035000D03*
X93097500Y-43035000D03*
%TD*%
D23*
%TO.C,C14*%
X101334500Y-44355500D03*
X101334500Y-45315500D03*
%TD*%
D12*
%TO.C,C37*%
X99134500Y-58510500D03*
X99134500Y-55560500D03*
%TD*%
D13*
%TO.C,U4*%
X78506000Y-43945000D03*
X78506000Y-44445000D03*
X78506000Y-44945000D03*
X80174000Y-44945000D03*
X80174000Y-44445000D03*
X80174000Y-43945000D03*
%TD*%
D14*
%TO.C,R36*%
X78440000Y-49055000D03*
X78440000Y-48035000D03*
%TD*%
%TO.C,R37*%
X80340000Y-49055000D03*
X80340000Y-48035000D03*
%TD*%
%TO.C,R25*%
X81640000Y-47065000D03*
X81640000Y-46045000D03*
%TD*%
%TO.C,R56*%
X78435000Y-53595000D03*
X78435000Y-52575000D03*
%TD*%
%TO.C,R94*%
X110335000Y-65745000D03*
X110335000Y-64725000D03*
%TD*%
D12*
%TO.C,C40*%
X110234500Y-58410500D03*
X110234500Y-55460500D03*
%TD*%
D14*
%TO.C,R95*%
X108335000Y-65745000D03*
X108335000Y-64725000D03*
%TD*%
D27*
%TO.C,Q2*%
X106135000Y-72525000D03*
X106135000Y-73795000D03*
X106135000Y-75065000D03*
X106135000Y-76335000D03*
D28*
X109627250Y-74430000D03*
%TD*%
D10*
%TO.C,D4*%
X98534500Y-36448000D03*
X98534500Y-38023000D03*
%TD*%
D29*
%TO.C,C34*%
X105055000Y-60835000D03*
X106015000Y-60835000D03*
%TD*%
D30*
%TO.C,D2*%
X83102500Y-47145000D03*
X83102500Y-48445000D03*
X84977500Y-47795000D03*
%TD*%
%TO.C,D1*%
X83102500Y-40395000D03*
X83102500Y-41695000D03*
X84977500Y-41045000D03*
%TD*%
%TO.C,Q3*%
X106997500Y-66785000D03*
X106997500Y-68085000D03*
X108872500Y-67435000D03*
%TD*%
D13*
%TO.C,U8*%
X78535000Y-50485000D03*
X78535000Y-50985000D03*
X78535000Y-51485000D03*
X80203000Y-51485000D03*
X80203000Y-50985000D03*
X80203000Y-50485000D03*
%TD*%
D16*
%TO.C,C22*%
X119234500Y-49415500D03*
X119234500Y-48455500D03*
%TD*%
D14*
%TO.C,R9*%
X81640000Y-40355000D03*
X81640000Y-39335000D03*
%TD*%
%TO.C,R58*%
X77135000Y-53595000D03*
X77135000Y-52575000D03*
%TD*%
%TO.C,R99*%
X108335000Y-61745000D03*
X108335000Y-60725000D03*
%TD*%
D31*
%TO.C,U20*%
X106334500Y-57805500D03*
D32*
X104984500Y-55635500D03*
X104984500Y-56235500D03*
X104984500Y-56835500D03*
X104984500Y-57435500D03*
X104984500Y-58035500D03*
X108034500Y-58035500D03*
X108034500Y-57435500D03*
X108034500Y-56835500D03*
X108034500Y-56235500D03*
X108034500Y-55635500D03*
%TD*%
D14*
%TO.C,R79*%
X98534500Y-40445500D03*
X98534500Y-39425500D03*
%TD*%
%TO.C,R57*%
X80235000Y-53595000D03*
X80235000Y-52575000D03*
%TD*%
%TO.C,R61*%
X80235000Y-55595000D03*
X80235000Y-54575000D03*
%TD*%
D33*
%TO.C,Q1*%
X102935000Y-76305000D03*
X102935000Y-75035000D03*
X102935000Y-73765000D03*
X102935000Y-72495000D03*
D34*
X99442750Y-74400000D03*
%TD*%
D14*
%TO.C,R21*%
X77140000Y-44955000D03*
X77140000Y-43935000D03*
%TD*%
%TO.C,R14*%
X77240000Y-40355000D03*
X77240000Y-39335000D03*
%TD*%
%TO.C,R3*%
X77240000Y-38255000D03*
X77240000Y-37235000D03*
%TD*%
D19*
%TO.C,R41*%
X87172500Y-47435000D03*
X93097500Y-47435000D03*
%TD*%
D18*
%TO.C,R98*%
X111535000Y-63725000D03*
X111535000Y-64745000D03*
%TD*%
D14*
%TO.C,R12*%
X78540000Y-40355000D03*
X78540000Y-39335000D03*
%TD*%
%TO.C,R66*%
X81385000Y-58245000D03*
X81385000Y-57225000D03*
%TD*%
D19*
%TO.C,R42*%
X87172500Y-51835000D03*
X93097500Y-51835000D03*
%TD*%
D14*
%TO.C,R29*%
X77140000Y-47045000D03*
X77140000Y-46025000D03*
%TD*%
D35*
%TO.C,U15*%
X114297000Y-40485500D03*
X114297000Y-41885500D03*
X114297000Y-43285500D03*
X114297000Y-44685500D03*
X115697000Y-40485500D03*
X115697000Y-41885500D03*
X115697000Y-43285500D03*
X115697000Y-44685500D03*
X117097000Y-40485500D03*
X117097000Y-41885500D03*
X117097000Y-43285500D03*
X117097000Y-44685500D03*
X118497000Y-40485500D03*
X118497000Y-41885500D03*
X118497000Y-43285500D03*
X118497000Y-44685500D03*
D36*
X112959500Y-39835500D03*
X112959500Y-40335500D03*
X112959500Y-40835500D03*
X112959500Y-41335500D03*
X112959500Y-41835500D03*
X112959500Y-42335500D03*
X112959500Y-42835500D03*
X112959500Y-43335500D03*
X112959500Y-43835500D03*
X112959500Y-44335500D03*
X112959500Y-44835500D03*
X112959500Y-45335500D03*
D37*
X113647000Y-46023000D03*
X114147000Y-46023000D03*
X114647000Y-46023000D03*
X115147000Y-46023000D03*
X115647000Y-46023000D03*
X116147000Y-46023000D03*
X116647000Y-46023000D03*
X117147000Y-46023000D03*
X117647000Y-46023000D03*
X118147000Y-46023000D03*
X118647000Y-46023000D03*
X119147000Y-46023000D03*
D36*
X119834500Y-45335500D03*
X119834500Y-44835500D03*
X119834500Y-44335500D03*
X119834500Y-43835500D03*
X119834500Y-43335500D03*
X119834500Y-42835500D03*
X119834500Y-42335500D03*
X119834500Y-41835500D03*
X119834500Y-41335500D03*
X119834500Y-40835500D03*
X119834500Y-40335500D03*
X119834500Y-39835500D03*
D37*
X119147000Y-39148000D03*
X118647000Y-39148000D03*
X118147000Y-39148000D03*
X117647000Y-39148000D03*
X117147000Y-39148000D03*
X116647000Y-39148000D03*
X116147000Y-39148000D03*
X115647000Y-39148000D03*
X115147000Y-39148000D03*
X114647000Y-39148000D03*
X114147000Y-39148000D03*
X113647000Y-39148000D03*
%TD*%
D30*
%TO.C,D3*%
X82997500Y-53585000D03*
X82997500Y-54885000D03*
X84872500Y-54235000D03*
%TD*%
D38*
%TO.C,F1*%
X84535000Y-75035000D03*
X87335000Y-75035000D03*
%TD*%
D18*
%TO.C,R22*%
X81640000Y-43935000D03*
X81640000Y-44955000D03*
%TD*%
D16*
%TO.C,C16*%
X101335000Y-49515000D03*
X101335000Y-48555000D03*
%TD*%
D18*
%TO.C,R4*%
X81640000Y-37235000D03*
X81640000Y-38255000D03*
%TD*%
D23*
%TO.C,C25*%
X109534500Y-43355500D03*
X109534500Y-44315500D03*
%TD*%
D20*
%TO.C,R100*%
X105025000Y-59835000D03*
X106045000Y-59835000D03*
%TD*%
%TO.C,R46*%
X109324500Y-41435500D03*
X110344500Y-41435500D03*
%TD*%
%TO.C,R44*%
X109324500Y-40335500D03*
X110344500Y-40335500D03*
%TD*%
D29*
%TO.C,C23*%
X111054500Y-37735500D03*
X112014500Y-37735500D03*
%TD*%
D39*
%TO.C,Y1*%
X103735000Y-48485000D03*
X103735000Y-44385000D03*
%TD*%
D12*
%TO.C,C41*%
X112634500Y-58410500D03*
X112634500Y-55460500D03*
%TD*%
D14*
%TO.C,R40*%
X115734500Y-48945500D03*
X115734500Y-47925500D03*
%TD*%
D40*
%TO.C,D6*%
X94135000Y-73235000D03*
X94135000Y-77235000D03*
%TD*%
D13*
%TO.C,U10*%
X78351000Y-57135000D03*
X78351000Y-57635000D03*
X78351000Y-58135000D03*
X80019000Y-58135000D03*
X80019000Y-57635000D03*
X80019000Y-57135000D03*
%TD*%
D14*
%TO.C,R13*%
X80340000Y-40355000D03*
X80340000Y-39335000D03*
%TD*%
D20*
%TO.C,R102*%
X105025000Y-61835000D03*
X106045000Y-61835000D03*
%TD*%
D14*
%TO.C,R54*%
X81535000Y-53595000D03*
X81535000Y-52575000D03*
%TD*%
M02*
